{
DisplayStrings = (
agbdnrhuimpbqddcdefghijtklmnopqrstu,
"asglinmecobdpq\012mhnulijkrtf\012vwxyz\012",
bcdefghijklmnopqrstuvwxy
);
copyright = "Borna Izadpanah";
date = "2015-10-13 18:21:16 +0000";
designer = "Borna Izadpanah";
familyName = "FilmFarsi_V1";
fontMaster = (
{
alignmentZones = (
"{1700, 15}",
"{1200, 15}",
"{1050, 15}",
"{0, -15}",
"{-1000, -15}"
);
ascender = 1700;
capHeight = 1200;
descender = -1000;
guideLines = (
{
locked = 1;
position = "{267, 400}";
},
{
locked = 1;
position = "{613, 1381}";
},
{
locked = 1;
position = "{688, 800}";
}
);
id = "5483B82D-F897-45AA-9987-2D1C58E320E8";
userData = {
GSCornerRadius = 149;
};
weightValue = 400;
widthValue = 5;
xHeight = 1050;
}
);
glyphs = (
{
color = 7;
glyphname = a;
lastChange = "2015-11-04 17:09:52 +0000";
layers = (
{
layerId = "5483B82D-F897-45AA-9987-2D1C58E320E8";
name = Regular;
paths = (
{
closed = 1;
nodes = (
"1089 0 LINE",
"1091 242 OFFCURVE",
"1134 865 OFFCURVE",
"1153 1050 CURVE",
"823 1050 LINE",
"723 747 OFFCURVE",
"706 495 OFFCURVE",
"698 243 CURVE SMOOTH",
"696 166 OFFCURVE",
"694 80 OFFCURVE",
"705 0 CURVE"
);
},
{
closed = 1;
nodes = (
"902 916 LINE",
"823 977 OFFCURVE",
"651 1061 OFFCURVE",
"481 1061 CURVE",
"312 1061 OFFCURVE",
"60 696 OFFCURVE",
"60 374 CURVE SMOOTH",
"60 109 OFFCURVE",
"230 -15 OFFCURVE",
"444 -15 CURVE",
"562 21 OFFCURVE",
"816 246 OFFCURVE",
"940 395 CURVE",
"847 518 LINE",
"729 412 OFFCURVE",
"590 287 OFFCURVE",
"517 287 CURVE SMOOTH",
"480 287 OFFCURVE",
"472 335 OFFCURVE",
"472 397 CURVE SMOOTH",
"472 535 OFFCURVE",
"542 802 OFFCURVE",
"658 802 CURVE SMOOTH",
"733 802 OFFCURVE",
"825 713 OFFCURVE",
"965 573 CURVE"
);
}
);
width = 1233;
},
{
associatedMasterId = "5483B82D-F897-45AA-9987-2D1C58E320E8";
background = {
paths = (
{
closed = 1;
nodes = (
"750 360 OFFCURVE",
"631 304 OFFCURVE",
"556 304 CURVE SMOOTH",
"380 304 OFFCURVE",
"429 626 OFFCURVE",
"491 748 CURVE",
"586 796 OFFCURVE",
"836 733 OFFCURVE",
"953 602 CURVE",
"1067 978 LINE",
"950 1010 OFFCURVE",
"793 1043 OFFCURVE",
"626 1061 CURVE",
"366 1035 OFFCURVE",
"70 787 OFFCURVE",
"70 411 CURVE SMOOTH",
"70 152 OFFCURVE",
"199 -15 OFFCURVE",
"402 -15 CURVE",
"522 13 OFFCURVE",
"740 155 OFFCURVE",
"938 345 CURVE",
"855 453 LINE"
);
},
{
closed = 1;
nodes = (
"1056 10 LINE",
"1044 255 OFFCURVE",
"1058 672 OFFCURVE",
"1067 978 CURVE",
"740 934 LINE",
"701 761 OFFCURVE",
"703 240 OFFCURVE",
"709 -12 CURVE"
);
}
);
};
layerId = "435E093A-7A2B-4C5E-9CDA-AE0F0F80B706";
name = "Regular Nov 3 15, 16:36";
paths = (
{
closed = 1;
nodes = (
"750 360 OFFCURVE",
"631 304 OFFCURVE",
"556 304 CURVE SMOOTH",
"370 304 OFFCURVE",
"419 662 OFFCURVE",
"579 816 CURVE",
"464 768 LINE",
"590 790 OFFCURVE",
"853 714 OFFCURVE",
"953 602 CURVE",
"1062 988 LINE",
"950 1010 OFFCURVE",
"793 1043 OFFCURVE",
"626 1061 CURVE",
"366 1035 OFFCURVE",
"70 787 OFFCURVE",
"70 411 CURVE SMOOTH",
"70 152 OFFCURVE",
"183 -15 OFFCURVE",
"442 -15 CURVE",
"560 21 OFFCURVE",
"814 179 OFFCURVE",
"938 345 CURVE",
"855 453 LINE"
);
},
{
closed = 1;
nodes = (
"1062 0 LINE",
"1049 255 OFFCURVE",
"1053 672 OFFCURVE",
"1062 988 CURVE",
"713 934 LINE",
"705 761 OFFCURVE",
"695 240 OFFCURVE",
"713 0 CURVE"
);
}
);
width = 1162;
}
);
unicode = 0061;
},
{
color = 7;
glyphname = b;
lastChange = "2015-11-04 17:10:22 +0000";
layers = (
{
layerId = "5483B82D-F897-45AA-9987-2D1C58E320E8";
name = Regular;
paths = (
{
closed = 1;
nodes = (
"108 930 OFFCURVE",
"84 471 OFFCURVE",
"80 0 CURVE",
"389 0 LINE",
"481 151 LINE",
"489 554 OFFCURVE",
"512 963 OFFCURVE",
"551 1381 CURVE",
"152 1381 LINE"
);
},
{
closed = 1;
nodes = (
"447 609 LINE",
"542 691 OFFCURVE",
"636 764 OFFCURVE",
"692 764 CURVE SMOOTH",
"781 764 OFFCURVE",
"741 249 OFFCURVE",
"591 249 CURVE SMOOTH",
"551 249 OFFCURVE",
"496 274 OFFCURVE",
"431 318 CURVE",
"345 110 LINE",
"441 53 OFFCURVE",
"620 -10 OFFCURVE",
"768 -10 CURVE",
"937 -10 OFFCURVE",
"1149 355 OFFCURVE",
"1149 677 CURVE SMOOTH",
"1149 942 OFFCURVE",
"979 1066 OFFCURVE",
"765 1066 CURVE",
"671 1037 OFFCURVE",
"491 889 OFFCURVE",
"359 754 CURVE"
);
}
);
width = 1209;
}
);
unicode = 0062;
},
{
color = 7;
glyphname = c;
lastChange = "2015-11-04 17:30:51 +0000";
layers = (
{
layerId = "5483B82D-F897-45AA-9987-2D1C58E320E8";
name = Regular;
paths = (
{
closed = 1;
nodes = (
"654 289 OFFCURVE",
"470 265 OFFCURVE",
"470 422 CURVE SMOOTH",
"470 525 OFFCURVE",
"507 662 OFFCURVE",
"570 740 CURVE",
"613 770 OFFCURVE",
"812 739 OFFCURVE",
"895 726 CURVE",
"953 985 LINE",
"810 1032 OFFCURVE",
"555 1064 OFFCURVE",
"479 1061 CURVE",
"311 1037 OFFCURVE",
"60 728 OFFCURVE",
"60 354 CURVE SMOOTH",
"60 149 OFFCURVE",
"224 -2 OFFCURVE",
"464 -15 CURVE",
"628 0 OFFCURVE",
"812 67 OFFCURVE",
"969 150 CURVE",
"915 377 LINE"
);
}
);
width = 1029;
}
);
unicode = 0063;
},
{
color = 7;
glyphname = d;
lastChange = "2015-11-04 17:10:34 +0000";
layers = (
{
associatedMasterId = "5483B82D-F897-45AA-9987-2D1C58E320E8";
background = {
paths = (
{
closed = 1;
nodes = (
"774 319 OFFCURVE",
"545 344 OFFCURVE",
"545 582 CURVE SMOOTH",
"545 1211 LINE",
"428 1216 OFFCURVE",
"311 1211 OFFCURVE",
"194 1196 CURVE",
"194 396 LINE SMOOTH",
"194 -117 OFFCURVE",
"722 -211 OFFCURVE",
"1027 456 CURVE",
"1134 574 LINE"
);
},
{
closed = 1;
nodes = (
"1201 241 OFFCURVE",
"1204 796 OFFCURVE",
"1204 1211 CURVE",
"1087 1216 OFFCURVE",
"970 1211 OFFCURVE",
"853 1196 CURVE",
"853 406 LINE SMOOTH",
"853 306 OFFCURVE",
"860 172 OFFCURVE",
"884 -4 CURVE",
"991 -10 OFFCURVE",
"1104 -5 OFFCURVE",
"1211 9 CURVE"
);
}
);
};
layerId = "F6825280-09BD-49D7-B84D-BCA3E6DF0595";
name = "Regular Oct 14 15, 23:18";
paths = (
{
closed = 1;
nodes = (
"1010 1050 OFFCURVE",
"773 1215 OFFCURVE",
"584 1215 CURVE SMOOTH",
"248 1215 OFFCURVE",
"100 902 OFFCURVE",
"100 578 CURVE SMOOTH",
"100 270 OFFCURVE",
"235 -12 OFFCURVE",
"509 -12 CURVE SMOOTH",
"701 -12 OFFCURVE",
"952 188 OFFCURVE",
"1028 556 CURVE",
"944 618 LINE",
"894 501 OFFCURVE",
"812 303 OFFCURVE",
"633 303 CURVE SMOOTH",
"459 303 OFFCURVE",
"388 508 OFFCURVE",
"388 686 CURVE SMOOTH",
"388 919 OFFCURVE",
"530 1123 OFFCURVE",
"915 655 CURVE",
"1063 934 LINE"
);
},
{
closed = 1;
nodes = (
"903 1700 LINE",
"876 1620 OFFCURVE",
"860 1531 OFFCURVE",
"853 1431 CURVE",
"853 0 LINE",
"1253 0 LINE",
"1253 1700 LINE"
);
}
);
width = 1318;
},
{
layerId = "5483B82D-F897-45AA-9987-2D1C58E320E8";
name = Regular;
paths = (
{
closed = 1;
nodes = (
"739 971 LINE",
"783 912 LINE",
"750 775 OFFCURVE",
"716 563 OFFCURVE",
"711 481 CURVE SMOOTH",
"700 283 LINE",
"696 189 OFFCURVE",
"693 94 OFFCURVE",
"705 0 CURVE",
"1094 0 LINE",
"1098 451 OFFCURVE",
"1122 911 OFFCURVE",
"1166 1381 CURVE",
"767 1381 LINE"
);
},
{
closed = 1;
nodes = (
"759 440 LINE",
"666 359 OFFCURVE",
"572 287 OFFCURVE",
"517 287 CURVE SMOOTH",
"428 287 OFFCURVE",
"468 802 OFFCURVE",
"618 802 CURVE SMOOTH",
"661 802 OFFCURVE",
"724 772 OFFCURVE",
"796 720 CURVE",
"872 936 LINE",
"778 994 OFFCURVE",
"593 1061 OFFCURVE",
"441 1061 CURVE",
"272 1061 OFFCURVE",
"60 696 OFFCURVE",
"60 374 CURVE SMOOTH",
"60 109 OFFCURVE",
"230 -15 OFFCURVE",
"444 -15 CURVE",
"521 9 OFFCURVE",
"657 114 OFFCURVE",
"777 225 CURVE"
);
}
);
width = 1246;
}
);
unicode = 0064;
},
{
color = 7;
glyphname = e;
lastChange = "2015-11-04 17:09:59 +0000";
layers = (
{
layerId = "5483B82D-F897-45AA-9987-2D1C58E320E8";
name = Regular;
paths = (
{
closed = 1;
nodes = (
"248 437 LINE",
"769 391 OFFCURVE",
"1048 456 OFFCURVE",
"1048 732 CURVE SMOOTH",
"1048 807 OFFCURVE",
"977 954 OFFCURVE",
"914 995 CURVE",
"787 1033 OFFCURVE",
"556 1064 OFFCURVE",
"478 1061 CURVE",
"324 1050 OFFCURVE",
"60 728 OFFCURVE",
"60 354 CURVE SMOOTH",
"60 114 OFFCURVE",
"266 0 OFFCURVE",
"454 -15 CURVE",
"639 1 OFFCURVE",
"857 69 OFFCURVE",
"1001 143 CURVE",
"947 360 LINE",
"704 288 OFFCURVE",
"469 219 OFFCURVE",
"469 422 CURVE SMOOTH",
"469 546 OFFCURVE",
"513 779 OFFCURVE",
"618 842 CURVE",
"673 826 OFFCURVE",
"700 773 OFFCURVE",
"700 740 CURVE SMOOTH",
"700 633 OFFCURVE",
"552 605 OFFCURVE",
"260 609 CURVE"
);
}
);
width = 1108;
}
);
unicode = 0065;
},
{
color = 7;
glyphname = f;
lastChange = "2015-11-04 17:11:18 +0000";
layers = (
{
layerId = "5483B82D-F897-45AA-9987-2D1C58E320E8";
name = Regular;
paths = (
{
closed = 1;
nodes = (
"633 1505 OFFCURVE",
"355 1523 OFFCURVE",
"238 1338 CURVE SMOOTH",
"179 1245 OFFCURVE",
"159 1076 OFFCURVE",
"168 889 CURVE",
"152 772 OFFCURVE",
"137 634 OFFCURVE",
"134 493 CURVE SMOOTH",
"122 0 LINE",
"521 0 LINE",
"534 506 LINE SMOOTH",
"537 613 OFFCURVE",
"540 726 OFFCURVE",
"542 891 CURVE",
"566 1157 OFFCURVE",
"562 1228 OFFCURVE",
"756 1200 CURVE",
"785 1398 LINE"
);
},
{
closed = 1;
nodes = (
"40 800 LINE",
"712 800 LINE",
"712 1050 LINE",
"179 1050 LINE",
"40 1040 LINE"
);
}
);
width = 745;
}
);
unicode = 0066;
},
{
color = 7;
glyphname = g;
lastChange = "2015-11-04 17:36:23 +0000";
layers = (
{
layerId = "5483B82D-F897-45AA-9987-2D1C58E320E8";
name = Regular;
paths = (
{
closed = 1;
nodes = (
"730 747 OFFCURVE",
"713 495 OFFCURVE",
"705 243 CURVE SMOOTH",
"703 170 OFFCURVE",
"720 89 OFFCURVE",
"720 20 CURVE SMOOTH",
"720 -128 OFFCURVE",
"691 -374 OFFCURVE",
"117 -102 CURVE",
"71 -387 LINE",
"487 -672 OFFCURVE",
"1085 -566 OFFCURVE",
"1101 215 CURVE SMOOTH",
"1104 388 OFFCURVE",
"1143 865 OFFCURVE",
"1159 1050 CURVE",
"828 1050 LINE"
);
},
{
closed = 1;
nodes = (
"894 927 LINE",
"810 986 OFFCURVE",
"648 1061 OFFCURVE",
"488 1061 CURVE",
"319 1061 OFFCURVE",
"67 696 OFFCURVE",
"67 374 CURVE SMOOTH",
"67 109 OFFCURVE",
"237 -15 OFFCURVE",
"451 -15 CURVE",
"527 8 OFFCURVE",
"661 111 OFFCURVE",
"779 220 CURVE",
"745 421 LINE",
"659 348 OFFCURVE",
"575 287 OFFCURVE",
"524 287 CURVE SMOOTH",
"487 287 OFFCURVE",
"479 335 OFFCURVE",
"479 397 CURVE SMOOTH",
"479 535 OFFCURVE",
"549 802 OFFCURVE",
"665 802 CURVE SMOOTH",
"715 802 OFFCURVE",
"772 763 OFFCURVE",
"845 696 CURVE"
);
}
);
width = 1237;
}
);
unicode = 0067;
},
{
color = 7;
glyphname = h;
lastChange = "2015-11-04 17:11:06 +0000";
layers = (
{
layerId = "5483B82D-F897-45AA-9987-2D1C58E320E8";
name = Regular;
paths = (
{
closed = 1;
nodes = (
"108 922 OFFCURVE",
"84 471 OFFCURVE",
"80 0 CURVE",
"479 0 LINE",
"481 227 OFFCURVE",
"488 447 OFFCURVE",
"500 675 CURVE",
"502 713 OFFCURVE",
"501 745 OFFCURVE",
"480 767 CURVE",
"494 860 OFFCURVE",
"516 952 OFFCURVE",
"523 1045 CURVE",
"531 1153 OFFCURVE",
"541 1272 OFFCURVE",
"551 1381 CURVE",
"152 1381 LINE"
);
},
{
closed = 1;
nodes = (
"1168 185 OFFCURVE",
"1173 390 OFFCURVE",
"1188 725 CURVE SMOOTH",
"1193 812 OFFCURVE",
"1084 1011 OFFCURVE",
"814 1065 CURVE",
"671 1030 OFFCURVE",
"429 800 OFFCURVE",
"274 647 CURVE",
"364 538 LINE",
"527 662 OFFCURVE",
"700 751 OFFCURVE",
"757 720 CURVE SMOOTH",
"793 701 OFFCURVE",
"780 610 OFFCURVE",
"766 0 CURVE",
"1165 0 LINE"
);
},
{
closed = 1;
nodes = (
"554 845 LINE",
"443 898 LINE",
"482 796 LINE"
);
}
);
width = 1268;
}
);
unicode = 0068;
},
{
color = 7;
glyphname = i;
lastChange = "2015-11-04 17:11:12 +0000";
layers = (
{
layerId = "5483B82D-F897-45AA-9987-2D1C58E320E8";
name = Regular;
paths = (
{
closed = 1;
nodes = (
"448 1185 OFFCURVE",
"552 1317 OFFCURVE",
"556 1372 CURVE SMOOTH",
"558 1426 OFFCURVE",
"416 1586 OFFCURVE",
"360 1590 CURVE SMOOTH",
"294 1593 OFFCURVE",
"160 1500 OFFCURVE",
"130 1395 CURVE",
"134 1297 OFFCURVE",
"216 1193 OFFCURVE",
"337 1166 CURVE"
);
},
{
closed = 1;
nodes = (
"100 739 OFFCURVE",
"81 389 OFFCURVE",
"80 0 CURVE",
"479 0 LINE",
"480 371 OFFCURVE",
"499 721 OFFCURVE",
"524 1050 CURVE",
"125 1050 LINE"
);
}
);
width = 627;
}
);
unicode = 0069;
},
{
color = 7;
glyphname = j;
lastChange = "2015-11-04 17:11:11 +0000";
layers = (
{
layerId = "5483B82D-F897-45AA-9987-2D1C58E320E8";
name = Regular;
paths = (
{
closed = 1;
nodes = (
"102 607 OFFCURVE",
"98 396 OFFCURVE",
"93 10 CURVE SMOOTH",
"91 -125 OFFCURVE",
"56 -236 OFFCURVE",
"-84 -327 CURVE",
"67 -534 LINE",
"412 -437 OFFCURVE",
"484 -181 OFFCURVE",
"499 332 CURVE SMOOTH",
"502 443 OFFCURVE",
"501 588 OFFCURVE",
"536 1050 CURVE",
"137 1050 LINE"
);
},
{
closed = 1;
nodes = (
"458 1185 OFFCURVE",
"562 1317 OFFCURVE",
"566 1372 CURVE SMOOTH",
"568 1426 OFFCURVE",
"426 1586 OFFCURVE",
"370 1590 CURVE SMOOTH",
"304 1593 OFFCURVE",
"170 1500 OFFCURVE",
"140 1395 CURVE",
"144 1297 OFFCURVE",
"226 1193 OFFCURVE",
"347 1166 CURVE"
);
}
);
width = 627;
}
);
unicode = 006A;
},
{
color = 7;
glyphname = k;
lastChange = "2015-11-04 17:11:14 +0000";
layers = (
{
layerId = "5483B82D-F897-45AA-9987-2D1C58E320E8";
name = Regular;
paths = (
{
closed = 1;
nodes = (
"1082 1007 OFFCURVE",
"970 1042 OFFCURVE",
"848 1068 CURVE",
"744 888 OFFCURVE",
"632 680 OFFCURVE",
"433 551 CURVE",
"443 480 LINE",
"513 470 LINE",
"598 279 OFFCURVE",
"686 121 OFFCURVE",
"784 -10 CURVE",
"921 0 OFFCURVE",
"1059 43 OFFCURVE",
"1186 113 CURVE",
"1079 250 OFFCURVE",
"942 422 OFFCURVE",
"811 622 CURVE",
"772 489 LINE",
"984 655 OFFCURVE",
"1131 814 OFFCURVE",
"1181 961 CURVE"
);
},
{
closed = 1;
nodes = (
"108 930 OFFCURVE",
"84 471 OFFCURVE",
"80 0 CURVE",
"479 0 LINE",
"483 451 OFFCURVE",
"507 911 OFFCURVE",
"551 1381 CURVE",
"152 1381 LINE"
);
}
);
width = 1206;
}
);
unicode = 006B;
},
{
color = 7;
glyphname = l;
lastChange = "2015-11-04 17:11:10 +0000";
layers = (
{
layerId = "5483B82D-F897-45AA-9987-2D1C58E320E8";
name = Regular;
paths = (
{
closed = 1;
nodes = (
"108 930 OFFCURVE",
"84 471 OFFCURVE",
"80 0 CURVE",
"479 0 LINE",
"483 451 OFFCURVE",
"507 911 OFFCURVE",
"551 1381 CURVE",
"152 1381 LINE"
);
}
);
width = 631;
}
);
unicode = 006C;
},
{
color = 7;
glyphname = m;
lastChange = "2015-11-04 17:11:05 +0000";
layers = (
{
layerId = "5483B82D-F897-45AA-9987-2D1C58E320E8";
name = Regular;
paths = (
{
closed = 1;
nodes = (
"1138 177 OFFCURVE",
"1143 390 OFFCURVE",
"1158 725 CURVE SMOOTH",
"1163 812 OFFCURVE",
"1062 1011 OFFCURVE",
"814 1065 CURVE",
"671 1030 OFFCURVE",
"429 800 OFFCURVE",
"274 647 CURVE",
"364 538 LINE",
"515 662 OFFCURVE",
"674 751 OFFCURVE",
"727 720 CURVE SMOOTH",
"763 701 OFFCURVE",
"750 610 OFFCURVE",
"736 0 CURVE",
"1135 0 LINE"
);
},
{
closed = 1;
nodes = (
"554 850 LINE",
"443 903 LINE",
"482 801 LINE"
);
},
{
closed = 1;
nodes = (
"100 739 OFFCURVE",
"81 389 OFFCURVE",
"80 0 CURVE",
"479 0 LINE",
"480 270 OFFCURVE",
"490 532 OFFCURVE",
"509 778 CURVE",
"484 1050 LINE",
"135 1050 LINE"
);
},
{
closed = 1;
nodes = (
"1796 177 OFFCURVE",
"1801 390 OFFCURVE",
"1816 725 CURVE SMOOTH",
"1821 812 OFFCURVE",
"1720 1011 OFFCURVE",
"1472 1065 CURVE",
"1329 1030 OFFCURVE",
"1087 800 OFFCURVE",
"932 647 CURVE",
"1022 538 LINE",
"1173 662 OFFCURVE",
"1332 751 OFFCURVE",
"1385 720 CURVE SMOOTH",
"1421 701 OFFCURVE",
"1408 610 OFFCURVE",
"1394 0 CURVE",
"1793 0 LINE"
);
}
);
width = 1896;
}
);
unicode = 006D;
},
{
color = 7;
glyphname = n;
lastChange = "2015-11-04 17:11:07 +0000";
layers = (
{
associatedMasterId = "5483B82D-F897-45AA-9987-2D1C58E320E8";
background = {
paths = (
{
closed = 1;
nodes = (
"130 1050 OFFCURVE",
"130 895 OFFCURVE",
"130 801 CURVE SMOOTH",
"130 0 LINE",
"530 0 LINE",
"530 931 LINE",
"470 1213 LINE",
"100 1173 LINE"
);
},
{
closed = 1;
nodes = (
"708 1171 OFFCURVE",
"487 973 OFFCURVE",
"307 826 CURVE",
"314 665 LINE",
"595 831 OFFCURVE",
"890 941 OFFCURVE",
"890 580 CURVE SMOOTH",
"890 0 LINE",
"1290 0 LINE",
"1290 690 LINE SMOOTH",
"1290 897 OFFCURVE",
"1287 1215 OFFCURVE",
"910 1215 CURVE"
);
},
{
closed = 1;
nodes = (
"515 961 LINE",
"595 1004 LINE",
"481 1028 LINE"
);
}
);
};
layerId = "033A8565-E341-412B-B317-C2DA30C95975";
name = "Regular Oct 19 15, 16:46";
paths = (
{
closed = 1;
nodes = (
"118 1018 OFFCURVE",
"130 895 OFFCURVE",
"130 801 CURVE SMOOTH",
"130 0 LINE",
"530 0 LINE",
"530 931 LINE",
"470 1213 LINE",
"100 1173 LINE"
);
},
{
closed = 1;
nodes = (
"629 1128 OFFCURVE",
"433 963 OFFCURVE",
"307 856 CURVE",
"314 725 LINE",
"498 818 OFFCURVE",
"620 871 OFFCURVE",
"698 871 CURVE SMOOTH",
"800 871 OFFCURVE",
"830 783 OFFCURVE",
"830 634 CURVE SMOOTH",
"830 0 LINE",
"1230 0 LINE",
"1230 690 LINE SMOOTH",
"1230 897 OFFCURVE",
"1227 1215 OFFCURVE",
"850 1215 CURVE"
);
},
{
closed = 1;
nodes = (
"515 971 LINE",
"595 1014 LINE",
"481 1038 LINE"
);
}
);
width = 1330;
},
{
layerId = "5483B82D-F897-45AA-9987-2D1C58E320E8";
name = Regular;
paths = (
{
closed = 1;
nodes = (
"1168 177 OFFCURVE",
"1173 390 OFFCURVE",
"1188 725 CURVE SMOOTH",
"1193 812 OFFCURVE",
"1084 1011 OFFCURVE",
"814 1065 CURVE",
"671 1030 OFFCURVE",
"429 800 OFFCURVE",
"274 647 CURVE",
"364 538 LINE",
"527 662 OFFCURVE",
"700 751 OFFCURVE",
"757 720 CURVE SMOOTH",
"793 701 OFFCURVE",
"780 610 OFFCURVE",
"766 0 CURVE",
"1165 0 LINE"
);
},
{
closed = 1;
nodes = (
"554 850 LINE",
"443 903 LINE",
"482 801 LINE"
);
},
{
closed = 1;
nodes = (
"100 739 OFFCURVE",
"81 389 OFFCURVE",
"80 0 CURVE",
"479 0 LINE",
"480 270 OFFCURVE",
"490 532 OFFCURVE",
"509 778 CURVE",
"484 1050 LINE",
"135 1050 LINE"
);
}
);
width = 1268;
},
{
associatedMasterId = "5483B82D-F897-45AA-9987-2D1C58E320E8";
background = {
paths = (
{
closed = 1;
nodes = (
"641 1060 OFFCURVE",
"517 979 OFFCURVE",
"454 926 CURVE",
"423 1005 OFFCURVE",
"368 1059 OFFCURVE",
"282 1059 CURVE SMOOTH",
"175 1059 OFFCURVE",
"100 975 OFFCURVE",
"100 975 CURVE SMOOTH",
"100 975 OFFCURVE",
"149 871 OFFCURVE",
"149 707 CURVE SMOOTH",
"149 22 LINE",
"149 22 OFFCURVE",
"188 -10 OFFCURVE",
"224 -10 CURVE SMOOTH",
"264 -10 OFFCURVE",
"385 0 OFFCURVE",
"484 0 CURVE",
"484 208 LINE",
"484 682 LINE",
"484 743 LINE",
"516 761 OFFCURVE",
"576 788 OFFCURVE",
"646 788 CURVE SMOOTH",
"752 788 OFFCURVE",
"795 731 OFFCURVE",
"795 640 CURVE SMOOTH",
"795 208 LINE",
"795 22 LINE",
"795 22 OFFCURVE",
"834 -10 OFFCURVE",
"871 -10 CURVE SMOOTH",
"910 -10 OFFCURVE",
"1031 0 OFFCURVE",
"1130 0 CURVE",
"1130 208 LINE",
"1130 675 LINE SMOOTH",
"1130 929 OFFCURVE",
"1011 1060 OFFCURVE",
"809 1060 CURVE SMOOTH"
);
}
);
};
layerId = "5059FB9A-E023-46F8-9F6A-2FBA6F7E3C51";
name = "Regular Nov 2 15, 14:53";
paths = (
{
closed = 1;
nodes = (
"113 911 OFFCURVE",
"116 790 OFFCURVE",
"116 709 CURVE SMOOTH",
"116 0 LINE",
"486 0 LINE",
"486 766 LINE",
"434 1065 LINE",
"90 1030 LINE"
);
},
{
closed = 1;
nodes = (
"376 658 LINE",
"515 731 OFFCURVE",
"632 742 OFFCURVE",
"684 742 CURVE SMOOTH",
"771 742 OFFCURVE",
"797 712 OFFCURVE",
"797 614 CURVE SMOOTH",
"797 0 LINE",
"1167 0 LINE",
"1167 708 LINE SMOOTH",
"1167 947 OFFCURVE",
"1042 1065 OFFCURVE",
"815 1065 CURVE",
"657 1024 OFFCURVE",
"444 914 OFFCURVE",
"308 803 CURVE"
);
}
);
width = 1257;
}
);
unicode = 006E;
},
{
color = 7;
glyphname = o;
lastChange = "2015-11-04 17:30:25 +0000";
layers = (
{
layerId = "5483B82D-F897-45AA-9987-2D1C58E320E8";
name = Regular;
paths = (
{
closed = 1;
nodes = (
"824 1048 OFFCURVE",
"598 1054 OFFCURVE",
"426 1054 CURVE",
"261 986 OFFCURVE",
"126 835 OFFCURVE",
"79 637 CURVE SMOOTH",
"29 438 OFFCURVE",
"78 239 OFFCURVE",
"217 121 CURVE SMOOTH",
"337 11 OFFCURVE",
"558 -13 OFFCURVE",
"727 -8 CURVE",
"896 58 OFFCURVE",
"1034 211 OFFCURVE",
"1083 411 CURVE SMOOTH",
"1129 609 OFFCURVE",
"1074 800 OFFCURVE",
"947 921 CURVE SMOOTH"
);
},
{
closed = 1;
nodes = (
"482 242 OFFCURVE",
"458 378 OFFCURVE",
"467 530 CURVE SMOOTH",
"477 683 OFFCURVE",
"520 826 OFFCURVE",
"599 819 CURVE SMOOTH",
"678 812 OFFCURVE",
"703 667 OFFCURVE",
"692 513 CURVE SMOOTH",
"683 360 OFFCURVE",
"640 230 OFFCURVE",
"560 236 CURVE SMOOTH"
);
}
);
width = 1159;
}
);
unicode = 006F;
},
{
color = 7;
glyphname = p;
lastChange = "2015-11-04 17:10:44 +0000";
layers = (
{
layerId = "5483B82D-F897-45AA-9987-2D1C58E320E8";
name = Regular;
paths = (
{
closed = 1;
nodes = (
"120 739 OFFCURVE",
"91 359 OFFCURVE",
"80 -331 CURVE",
"479 -331 LINE",
"491 269 OFFCURVE",
"505 532 OFFCURVE",
"529 778 CURVE",
"504 1050 LINE",
"152 1050 LINE"
);
},
{
closed = 1;
nodes = (
"357 108 LINE",
"453 52 OFFCURVE",
"632 -11 OFFCURVE",
"779 -11 CURVE",
"948 -11 OFFCURVE",
"1160 354 OFFCURVE",
"1160 676 CURVE SMOOTH",
"1160 941 OFFCURVE",
"990 1065 OFFCURVE",
"776 1065 CURVE",
"686 1037 OFFCURVE",
"515 899 OFFCURVE",
"385 769 CURVE",
"454 604 LINE",
"549 687 OFFCURVE",
"646 763 OFFCURVE",
"703 763 CURVE SMOOTH",
"792 763 OFFCURVE",
"752 248 OFFCURVE",
"602 248 CURVE SMOOTH",
"563 248 OFFCURVE",
"508 272 OFFCURVE",
"445 315 CURVE"
);
}
);
width = 1229;
}
);
unicode = 0070;
},
{
color = 7;
glyphname = q;
lastChange = "2015-11-04 17:10:58 +0000";
layers = (
{
layerId = "5483B82D-F897-45AA-9987-2D1C58E320E8";
name = Regular;
paths = (
{
closed = 1;
nodes = (
"723 744 OFFCURVE",
"706 490 OFFCURVE",
"698 243 CURVE SMOOTH",
"695 156 OFFCURVE",
"685 -258 OFFCURVE",
"684 -331 CURVE",
"1083 -331 LINE",
"1092 189 OFFCURVE",
"1121 745 OFFCURVE",
"1155 1050 CURVE",
"826 1050 LINE"
);
},
{
closed = 1;
nodes = (
"752 434 LINE",
"662 356 OFFCURVE",
"570 287 OFFCURVE",
"520 287 CURVE SMOOTH",
"426 287 OFFCURVE",
"465 802 OFFCURVE",
"621 802 CURVE SMOOTH",
"663 802 OFFCURVE",
"730 769 OFFCURVE",
"805 713 CURVE",
"867 940 LINE",
"771 997 OFFCURVE",
"590 1061 OFFCURVE",
"441 1061 CURVE",
"272 1061 OFFCURVE",
"60 691 OFFCURVE",
"60 382 CURVE SMOOTH",
"60 105 OFFCURVE",
"230 -15 OFFCURVE",
"444 -15 CURVE",
"526 10 OFFCURVE",
"673 126 OFFCURVE",
"797 244 CURVE"
);
}
);
width = 1235;
}
);
unicode = 0071;
},
{
color = 7;
glyphname = r;
lastChange = "2015-11-04 17:11:15 +0000";
layers = (
{
layerId = "5483B82D-F897-45AA-9987-2D1C58E320E8";
name = Regular;
paths = (
{
closed = 1;
nodes = (
"909 989 LINE",
"866 1041 OFFCURVE",
"820 1063 OFFCURVE",
"775 1063 CURVE SMOOTH",
"608 1063 OFFCURVE",
"444 757 OFFCURVE",
"393 509 CURVE",
"431 487 LINE",
"560 654 OFFCURVE",
"744 676 OFFCURVE",
"862 644 CURVE"
);
},
{
closed = 1;
nodes = (
"555 799 LINE",
"444 852 LINE",
"483 750 LINE"
);
},
{
closed = 1;
nodes = (
"100 739 OFFCURVE",
"81 389 OFFCURVE",
"80 0 CURVE",
"479 0 LINE",
"480 246 OFFCURVE",
"488 485 OFFCURVE",
"504 711 CURVE SMOOTH",
"506 734 OFFCURVE",
"495 770 OFFCURVE",
"497 792 CURVE",
"475 1050 LINE",
"135 1050 LINE"
);
}
);
width = 925;
}
);
unicode = 0072;
},
{
color = 7;
glyphname = s;
lastChange = "2015-11-04 17:35:56 +0000";
layers = (
{
layerId = "5483B82D-F897-45AA-9987-2D1C58E320E8";
name = Regular;
paths = (
{
closed = 1;
nodes = (
"985 995 LINE",
"861 1037 OFFCURVE",
"742 1057 OFFCURVE",
"634 1057 CURVE SMOOTH",
"321 1057 OFFCURVE",
"100 893 OFFCURVE",
"100 646 CURVE",
"155 377 OFFCURVE",
"550 390 OFFCURVE",
"550 311 CURVE SMOOTH",
"550 254 OFFCURVE",
"310 277 OFFCURVE",
"114 326 CURVE",
"64 59 LINE",
"195 12 OFFCURVE",
"324 -10 OFFCURVE",
"443 -10 CURVE SMOOTH",
"736 -10 OFFCURVE",
"959 131 OFFCURVE",
"959 404 CURVE",
"900 679 OFFCURVE",
"508 631 OFFCURVE",
"508 726 CURVE SMOOTH",
"508 784 OFFCURVE",
"675 768 OFFCURVE",
"944 723 CURVE"
);
}
);
width = 1025;
}
);
unicode = 0073;
},
{
color = 7;
glyphname = t;
lastChange = "2015-11-04 17:36:00 +0000";
layers = (
{
layerId = "5483B82D-F897-45AA-9987-2D1C58E320E8";
name = Regular;
paths = (
{
closed = 1;
nodes = (
"270 1318 LINE",
"197 1050 LINE",
"179 782 OFFCURVE",
"165 512 OFFCURVE",
"160 352 CURVE SMOOTH",
"153 111 OFFCURVE",
"261 -10 OFFCURVE",
"471 -10 CURVE SMOOTH",
"542 -10 OFFCURVE",
"626 4 OFFCURVE",
"720 32 CURVE",
"756 316 LINE",
"663 316 OFFCURVE",
"598 320 OFFCURVE",
"558 320 CURVE",
"603 1290 LINE"
);
},
{
closed = 1;
nodes = (
"60 800 LINE",
"774 800 LINE",
"774 1050 LINE",
"197 1050 LINE",
"60 1040 LINE"
);
}
);
width = 834;
}
);
unicode = 0074;
},
{
color = 7;
glyphname = u;
lastChange = "2015-11-04 17:11:09 +0000";
layers = (
{
layerId = "5483B82D-F897-45AA-9987-2D1C58E320E8";
name = Regular;
paths = (
{
closed = 1;
nodes = (
"100 870 OFFCURVE",
"85 669 OFFCURVE",
"80 325 CURVE SMOOTH",
"79 238 OFFCURVE",
"184 39 OFFCURVE",
"454 -15 CURVE",
"597 20 OFFCURVE",
"839 250 OFFCURVE",
"994 403 CURVE",
"904 512 LINE",
"743 387 OFFCURVE",
"543 292 OFFCURVE",
"511 330 CURVE SMOOTH",
"504 338 OFFCURVE",
"464 401 OFFCURVE",
"488 729 CURVE SMOOTH",
"494 813 OFFCURVE",
"514 1029 OFFCURVE",
"516 1050 CURVE",
"117 1050 LINE"
);
},
{
closed = 1;
nodes = (
"714 189 LINE",
"825 136 LINE",
"786 238 LINE"
);
},
{
closed = 1;
nodes = (
"1147 300 OFFCURVE",
"1173 660 OFFCURVE",
"1192 1050 CURVE",
"803 1050 LINE",
"778 779 OFFCURVE",
"759 517 OFFCURVE",
"752 271 CURVE",
"753 181 OFFCURVE",
"760 96 OFFCURVE",
"773 0 CURVE",
"1149 0 LINE"
);
}
);
width = 1272;
}
);
unicode = 0075;
},
{
color = 7;
glyphname = w;
lastChange = "2015-11-04 17:03:36 +0000";
layers = (
{
background = {
paths = (
{
closed = 1;
nodes = (
"369 8 OFFCURVE",
"507 -14 OFFCURVE",
"664 -6 CURVE",
"816 377 OFFCURVE",
"918 701 OFFCURVE",
"983 917 CURVE",
"935 979 OFFCURVE",
"751 1050 OFFCURVE",
"648 1060 CURVE",
"608 855 OFFCURVE",
"546 560 OFFCURVE",
"475 345 CURVE",
"458 344 LINE",
"404 614 OFFCURVE",
"382 786 OFFCURVE",
"356 1026 CURVE",
"274 1050 OFFCURVE",
"150 1064 OFFCURVE",
"5 1053 CURVE",
"57 701 OFFCURVE",
"128 319 OFFCURVE",
"258 35 CURVE"
);
}
);
};
layerId = "5483B82D-F897-45AA-9987-2D1C58E320E8";
name = Regular;
width = 1606;
}
);
unicode = 0077;
},
{
color = 7;
glyphname = x;
lastChange = "2015-11-04 11:45:44 +0000";
layers = (
{
background = {
paths = (
{
closed = 1;
nodes = (
"598 217 OFFCURVE",
"643 109 OFFCURVE",
"689 -8 CURVE",
"819 8 OFFCURVE",
"940 45 OFFCURVE",
"1050 101 CURVE",
"994 216 OFFCURVE",
"885 400 OFFCURVE",
"767 552 CURVE",
"905 679 OFFCURVE",
"1023 855 OFFCURVE",
"1060 917 CURVE",
"968 995 OFFCURVE",
"857 1042 OFFCURVE",
"725 1060 CURVE",
"692 947 OFFCURVE",
"645 846 OFFCURVE",
"579 743 CURVE",
"575 743 LINE",
"546 786 OFFCURVE",
"498 884 OFFCURVE",
"438 1063 CURVE",
"325 1052 OFFCURVE",
"211 1033 OFFCURVE",
"98 1008 CURVE",
"127 880 OFFCURVE",
"234 711 OFFCURVE",
"351 541 CURVE",
"227 410 OFFCURVE",
"98 223 OFFCURVE",
"10 88 CURVE",
"135 26 OFFCURVE",
"259 -12 OFFCURVE",
"384 -7 CURVE",
"428 109 OFFCURVE",
"479 217 OFFCURVE",
"540 326 CURVE",
"544 326 LINE"
);
}
);
};
layerId = "5483B82D-F897-45AA-9987-2D1C58E320E8";
name = Regular;
width = 1070;
}
);
unicode = 0078;
},
{
color = 7;
glyphname = y;
lastChange = "2015-11-04 17:11:30 +0000";
layers = (
{
associatedMasterId = "5483B82D-F897-45AA-9987-2D1C58E320E8";
background = {
paths = (
{
closed = 1;
nodes = (
"100 870 OFFCURVE",
"85 669 OFFCURVE",
"80 325 CURVE SMOOTH",
"79 238 OFFCURVE",
"184 39 OFFCURVE",
"454 -15 CURVE",
"597 20 OFFCURVE",
"839 250 OFFCURVE",
"994 403 CURVE",
"904 512 LINE",
"743 387 OFFCURVE",
"543 292 OFFCURVE",
"511 330 CURVE SMOOTH",
"504 338 OFFCURVE",
"464 401 OFFCURVE",
"488 729 CURVE SMOOTH",
"494 813 OFFCURVE",
"514 1029 OFFCURVE",
"516 1050 CURVE",
"117 1050 LINE"
);
},
{
closed = 1;
nodes = (
"714 189 LINE",
"825 136 LINE",
"786 238 LINE"
);
},
{
closed = 1;
nodes = (
"803 1050 LINE",
"778 779 OFFCURVE",
"759 517 OFFCURVE",
"752 271 CURVE",
"753 181 OFFCURVE",
"760 96 OFFCURVE",
"773 0 CURVE SMOOTH",
"803 -204 OFFCURVE",
"711 -360 OFFCURVE",
"167 -102 CURVE",
"121 -387 LINE",
"401 -714 OFFCURVE",
"1173 -521 OFFCURVE",
"1149 0 CURVE SMOOTH",
"1147 300 OFFCURVE",
"1173 660 OFFCURVE",
"1192 1050 CURVE"
);
}
);
};
layerId = "349FF4CA-3C0D-43D2-9F53-4A0D833B4B19";
name = "Regular Nov 4 15, 15:34";
paths = (
{
closed = 1;
nodes = (
"318 282 OFFCURVE",
"475 55 OFFCURVE",
"613 0 CURVE",
"825 263 LINE",
"668 355 OFFCURVE",
"599 873 OFFCURVE",
"569 1032 CURVE",
"188 915 LINE"
);
},
{
closed = 1;
nodes = (
"803 1050 LINE",
"778 779 OFFCURVE",
"759 517 OFFCURVE",
"752 271 CURVE",
"753 181 OFFCURVE",
"760 96 OFFCURVE",
"773 0 CURVE SMOOTH",
"803 -204 OFFCURVE",
"711 -360 OFFCURVE",
"167 -102 CURVE",
"121 -387 LINE",
"401 -714 OFFCURVE",
"1166 -570 OFFCURVE",
"1151 171 CURVE SMOOTH",
"1148 300 OFFCURVE",
"1173 660 OFFCURVE",
"1192 1050 CURVE"
);
}
);
width = 1272;
},
{
layerId = "5483B82D-F897-45AA-9987-2D1C58E320E8";
name = Regular;
paths = (
{
closed = 1;
nodes = (
"779 425 LINE",
"653 348 OFFCURVE",
"535 302 OFFCURVE",
"511 330 CURVE SMOOTH",
"504 338 OFFCURVE",
"464 401 OFFCURVE",
"488 729 CURVE SMOOTH",
"494 813 OFFCURVE",
"514 1029 OFFCURVE",
"516 1050 CURVE",
"117 1050 LINE",
"100 870 OFFCURVE",
"85 669 OFFCURVE",
"80 325 CURVE SMOOTH",
"79 238 OFFCURVE",
"184 39 OFFCURVE",
"454 -15 CURVE",
"547 8 OFFCURVE",
"682 113 OFFCURVE",
"807 225 CURVE"
);
},
{
closed = 1;
nodes = (
"674 159 LINE",
"785 106 LINE",
"746 208 LINE"
);
},
{
closed = 1;
nodes = (
"745 747 OFFCURVE",
"728 495 OFFCURVE",
"720 243 CURVE SMOOTH",
"718 170 OFFCURVE",
"735 89 OFFCURVE",
"735 20 CURVE SMOOTH",
"735 -128 OFFCURVE",
"706 -374 OFFCURVE",
"132 -102 CURVE",
"86 -387 LINE",
"502 -672 OFFCURVE",
"1100 -566 OFFCURVE",
"1116 215 CURVE SMOOTH",
"1119 388 OFFCURVE",
"1158 865 OFFCURVE",
"1174 1050 CURVE",
"813 1050 LINE"
);
}
);
width = 1254;
}
);
unicode = 0079;
},
{
color = 6;
glyphname = "hamza-ar";
lastChange = "2015-10-26 20:09:01 +0000";
layers = (
{
background = {
paths = (
{
closed = 1;
nodes = (
"397 269 LINE",
"246 454 OFFCURVE",
"425 529 OFFCURVE",
"482 540 CURVE",
"482 597 OFFCURVE",
"439 752 OFFCURVE",
"380 796 CURVE",
"149 734 OFFCURVE",
"55 390 OFFCURVE",
"220 186 CURVE"
);
},
{
closed = 1;
nodes = (
"440 400 OFFCURVE",
"207 299 OFFCURVE",
"66 201 CURVE",
"69 134 OFFCURVE",
"117 0 OFFCURVE",
"164 -34 CURVE",
"256 23 OFFCURVE",
"536 136 OFFCURVE",
"672 158 CURVE",
"672 234 OFFCURVE",
"630 353 OFFCURVE",
"597 402 CURVE"
);
}
);
};
layerId = "5483B82D-F897-45AA-9987-2D1C58E320E8";
name = Regular;
paths = (
{
closed = 1;
nodes = (
"418 281 LINE",
"252 445 OFFCURVE",
"463 507 OFFCURVE",
"521 508 CURVE",
"530 564 OFFCURVE",
"515 724 OFFCURVE",
"465 778 CURVE",
"226 757 OFFCURVE",
"74 435 OFFCURVE",
"201 205 CURVE"
);
},
{
closed = 1;
nodes = (
"455 377 OFFCURVE",
"208 318 OFFCURVE",
"52 246 CURVE",
"43 180 OFFCURVE",
"67 40 OFFCURVE",
"108 -2 CURVE",
"208 39 OFFCURVE",
"504 101 OFFCURVE",
"641 99 CURVE",
"655 174 OFFCURVE",
"634 298 OFFCURVE",
"610 352 CURVE"
);
}
);
width = 695;
}
);
unicode = 0621;
},
{
color = 6;
glyphname = "alef-ar";
lastChange = "2015-10-26 20:09:01 +0000";
layers = (
{
layerId = "5483B82D-F897-45AA-9987-2D1C58E320E8";
name = Regular;
paths = (
{
closed = 1;
nodes = (
"57 3 LINE",
"75 306 OFFCURVE",
"61 758 OFFCURVE",
"40 1194 CURVE",
"386 1213 LINE",
"418 751 OFFCURVE",
"422 339 OFFCURVE",
"407 52 CURVE",
"342 16 OFFCURVE",
"184 -6 OFFCURVE",
"67 -7 CURVE"
);
}
);
width = 465;
}
);
unicode = 0627;
},
{
color = 6;
glyphname = "alef-ar.fina";
lastChange = "2015-10-26 20:09:01 +0000";
layers = (
{
background = {
paths = (
{
closed = 1;
nodes = (
"354 627 OFFCURVE",
"345 857 OFFCURVE",
"326 1083 CURVE",
"-20 1064 LINE",
"-6 825 OFFCURVE",
"5 554 OFFCURVE",
"5 315 CURVE SMOOTH",
"5 312 OFFCURVE",
"5 309 OFFCURVE",
"5 306 CURVE SMOOTH",
"5 277 LINE SMOOTH",
"5 0 OFFCURVE",
"359 0 OFFCURVE",
"529 0 CURVE",
"529 400 LINE",
"467 400 OFFCURVE",
"406 408 OFFCURVE",
"355 421 CURVE"
);
}
);
};
layerId = "5483B82D-F897-45AA-9987-2D1C58E320E8";
name = Regular;
paths = (
{
closed = 1;
nodes = (
"425 422 OFFCURVE",
"416 883 OFFCURVE",
"396 1213 CURVE",
"50 1194 LINE",
"66 801 OFFCURVE",
"70 165 OFFCURVE",
"95 72 CURVE",
"203 14 OFFCURVE",
"368 0 OFFCURVE",
"510 0 CURVE",
"559 133 OFFCURVE",
"559 267 OFFCURVE",
"510 400 CURVE",
"456 400 OFFCURVE",
"318 418 OFFCURVE",
"218 456 CURVE",
"395 194 LINE"
);
}
);
width = 510;
}
);
unicode = FE8E;
},
{
color = 6;
glyphname = "alef-ar.fina.short";
lastChange = "2015-10-26 20:09:01 +0000";
layers = (
{
layerId = "5483B82D-F897-45AA-9987-2D1C58E320E8";
name = Regular;
paths = (
{
closed = 1;
nodes = (
"425 422 OFFCURVE",
"416 883 OFFCURVE",
"396 1213 CURVE",
"50 1194 LINE",
"66 801 OFFCURVE",
"70 165 OFFCURVE",
"95 72 CURVE",
"203 14 OFFCURVE",
"368 0 OFFCURVE",
"510 0 CURVE",
"559 133 OFFCURVE",
"559 267 OFFCURVE",
"510 400 CURVE",
"456 400 OFFCURVE",
"318 418 OFFCURVE",
"218 456 CURVE",
"395 194 LINE"
);
}
);
width = 510;
}
);
},
{
color = 6;
glyphname = "alefHamzaabove-ar";
lastChange = "2015-10-26 20:09:01 +0000";
layers = (
{
components = (
{
disableAlignment = 1;
name = "hamza-ar";
transform = "{0.612, -0.054, 0.054, 0.612, -25, 1259}";
}
);
layerId = "5483B82D-F897-45AA-9987-2D1C58E320E8";
name = Regular;
paths = (
{
closed = 1;
nodes = (
"57 3 LINE",
"75 298 OFFCURVE",
"61 739 OFFCURVE",
"40 1164 CURVE",
"386 1183 LINE",
"418 733 OFFCURVE",
"422 332 OFFCURVE",
"407 52 CURVE",
"342 16 OFFCURVE",
"184 -6 OFFCURVE",
"67 -7 CURVE"
);
}
);
width = 465;
}
);
unicode = 0623;
},
{
color = 6;
glyphname = "alefHamzaabove-ar.fina";
lastChange = "2015-10-26 20:09:01 +0000";
layers = (
{
components = (
{
disableAlignment = 1;
name = "hamza-ar";
transform = "{0.612, -0.054, 0.054, 0.612, -15, 1259}";
}
);
layerId = "5483B82D-F897-45AA-9987-2D1C58E320E8";
name = Regular;
paths = (
{
closed = 1;
nodes = (
"425 415 OFFCURVE",
"416 863 OFFCURVE",
"396 1183 CURVE",
"50 1164 LINE",
"66 782 OFFCURVE",
"70 163 OFFCURVE",
"95 72 CURVE",
"203 14 OFFCURVE",
"368 0 OFFCURVE",
"510 0 CURVE",
"559 133 OFFCURVE",
"559 267 OFFCURVE",
"510 400 CURVE",
"456 400 OFFCURVE",
"318 418 OFFCURVE",
"218 456 CURVE",
"395 194 LINE"
);
}
);
width = 510;
}
);
unicode = FE84;
},
{
color = 6;
glyphname = "alefMadda-ar";
lastChange = "2015-10-26 20:09:01 +0000";
layers = (
{
components = (
{
name = "alef-ar";
}
);
layerId = "5483B82D-F897-45AA-9987-2D1C58E320E8";
name = Regular;
paths = (
{
closed = 1;
nodes = (
"-67 1538 OFFCURVE",
"-32 1581 OFFCURVE",
"80 1581 CURVE SMOOTH",
"200 1581 OFFCURVE",
"289 1532 OFFCURVE",
"456 1613 CURVE",
"523 1417 LINE",
"456 1357 OFFCURVE",
"407 1309 OFFCURVE",
"271 1309 CURVE SMOOTH",
"109 1309 OFFCURVE",
"65 1363 OFFCURVE",
"-58 1272 CURVE",
"-150 1450 LINE"
);
}
);
width = 465;
}
);
unicode = 0622;
},
{
color = 6;
glyphname = "alefMadda-ar.fina";
lastChange = "2015-10-26 20:09:01 +0000";
layers = (
{
components = (
{
name = "alef-ar.fina";
}
);
layerId = "5483B82D-F897-45AA-9987-2D1C58E320E8";
name = Regular;
paths = (
{
closed = 1;
nodes = (
"-37 1538 OFFCURVE",
"-2 1581 OFFCURVE",
"110 1581 CURVE SMOOTH",
"230 1581 OFFCURVE",
"319 1532 OFFCURVE",
"486 1613 CURVE",
"553 1417 LINE",
"486 1357 OFFCURVE",
"437 1309 OFFCURVE",
"301 1309 CURVE SMOOTH",
"139 1309 OFFCURVE",
"95 1363 OFFCURVE",
"-28 1272 CURVE",
"-120 1450 LINE"
);
}
);
width = 510;
}
);
unicode = FE82;
},
{
color = 1;
glyphname = "dotlessbeh-ar";
lastChange = "2015-10-26 20:08:31 +0000";
layers = (
{
layerId = "5483B82D-F897-45AA-9987-2D1C58E320E8";
name = Regular;
paths = (
{
closed = 1;
nodes = (
"65 187 OFFCURVE",
"94 318 OFFCURVE",
"139 443 CURVE",
"531 382 OFFCURVE",
"1025 367 OFFCURVE",
"1218 432 CURVE",
"1076 190 LINE",
"1087 337 OFFCURVE",
"1004 562 OFFCURVE",
"977 643 CURVE",
"1321 723 LINE",
"1374 535 OFFCURVE",
"1387 259 OFFCURVE",
"1272 52 CURVE",
"1073 -8 OFFCURVE",
"582 -57 OFFCURVE",
"50 52 CURVE"
);
}
);
width = 1410;
}
);
unicode = 066E;
},
{
color = 1;
glyphname = "dotlessbeh-ar.fina";
lastChange = "2015-10-26 20:08:31 +0000";
layers = (
{
layerId = "5483B82D-F897-45AA-9987-2D1C58E320E8";
name = Regular;
paths = (
{
closed = 1;
nodes = (
"1316 149 LINE",
"1403 18 OFFCURVE",
"1513 0 OFFCURVE",
"1605 0 CURVE",
"1655 133 OFFCURVE",
"1655 267 OFFCURVE",
"1605 400 CURVE",
"1457 400 OFFCURVE",
"1421 468 OFFCURVE",
"1348 579 CURVE",
"1330 581 LINE",
"1071 316 OFFCURVE",
"638 371 OFFCURVE",
"139 426 CURVE",
"93 297 OFFCURVE",
"64 167 OFFCURVE",
"50 34 CURVE",
"564 -22 OFFCURVE",
"1012 -66 OFFCURVE",
"1296 149 CURVE"
);
}
);
width = 1605;
}
);
},
{
color = 1;
glyphname = "dotlessbeh-ar.medi";
lastChange = "2015-10-26 20:08:31 +0000";
layers = (
{
layerId = "5483B82D-F897-45AA-9987-2D1C58E320E8";
name = Regular;
paths = (
{
closed = 1;
nodes = (
"391 149 LINE",
"474 23 OFFCURVE",
"583 0 OFFCURVE",
"680 0 CURVE",
"730 133 OFFCURVE",
"730 267 OFFCURVE",
"680 400 CURVE",
"532 400 OFFCURVE",
"483 467 OFFCURVE",
"423 579 CURVE",
"405 581 LINE",
"306 477 OFFCURVE",
"137 400 OFFCURVE",
"0 400 CURVE",
"-50 267 OFFCURVE",
"-50 133 OFFCURVE",
"0 0 CURVE",
"92 0 OFFCURVE",
"221 12 OFFCURVE",
"372 149 CURVE"
);
}
);
width = 680;
}
);
},
{
color = 1;
glyphname = "dotlessbeh-ar.init";
lastChange = "2015-11-03 11:43:20 +0000";
layers = (
{
layerId = "5483B82D-F897-45AA-9987-2D1C58E320E8";
name = Regular;
paths = (
{
closed = 1;
nodes = (
"-50 133 OFFCURVE",
"-50 266 OFFCURVE",
"0 400 CURVE",
"129 401 OFFCURVE",
"227 415 OFFCURVE",
"267 443 CURVE",
"227 329 LINE",
"209 450 OFFCURVE",
"163 574 OFFCURVE",
"136 654 CURVE",
"480 734 LINE",
"546 528 OFFCURVE",
"530 218 OFFCURVE",
"431 63 CURVE",
"331 31 OFFCURVE",
"183 3 OFFCURVE",
"0 0 CURVE"
);
}
);
width = 570;
}
);
},
{
color = 6;
glyphname = "beh-ar";
lastChange = "2015-10-26 20:09:09 +0000";
layers = (
{
background = {
paths = (
{
closed = 1;
nodes = (
"1517 401 OFFCURVE",
"1459 422 OFFCURVE",
"1426 444 CURVE SMOOTH",
"1395 464 OFFCURVE",
"1361 527 OFFCURVE",
"1326 580 CURVE",
"1308 582 LINE",
"1230 508 OFFCURVE",
"1136 457 OFFCURVE",
"1090 439 CURVE SMOOTH",
"867 351 OFFCURVE",
"468 404 OFFCURVE",
"139 484 CURVE",
"93 355 OFFCURVE",
"64 225 OFFCURVE",
"50 92 CURVE",
"310 21 OFFCURVE",
"553 -10 OFFCURVE",
"758 -10 CURVE SMOOTH",
"958 -10 OFFCURVE",
"1156 24 OFFCURVE",
"1309 142 CURVE",
"1206 132 LINE",
"1349 30 OFFCURVE",
"1475 1 OFFCURVE",
"1583 1 CURVE",
"1633 134 OFFCURVE",
"1633 268 OFFCURVE",
"1583 401 CURVE"
);
}
);
};
components = (
{
name = "dotlessbeh-ar";
},
{
name = "dot-one";
transform = "{1, 0, 0, 1, 443, -296}";
}
);
layerId = "5483B82D-F897-45AA-9987-2D1C58E320E8";
name = Regular;
width = 1410;
}
);
unicode = 0628;
},
{
color = 6;
glyphname = "beh-ar.fina";
lastChange = "2015-10-26 20:09:09 +0000";
layers = (
{
background = {
paths = (
{
closed = 1;
nodes = (
"1321 149 LINE",
"1404 23 OFFCURVE",
"1513 0 OFFCURVE",
"1610 0 CURVE",
"1660 133 OFFCURVE",
"1660 267 OFFCURVE",
"1610 400 CURVE",
"1544 400 OFFCURVE",
"1486 421 OFFCURVE",
"1453 443 CURVE SMOOTH",
"1422 463 OFFCURVE",
"1388 526 OFFCURVE",
"1353 579 CURVE",
"1335 581 LINE",
"1201 474 OFFCURVE",
"1057 400 OFFCURVE",
"930 400 CURVE",
"880 267 OFFCURVE",
"880 133 OFFCURVE",
"930 0 CURVE",
"985 0 OFFCURVE",
"1089 6 OFFCURVE",
"1302 149 CURVE"
);
}
);
};
components = (
{
name = "dotlessbeh-ar.fina";
},
{
name = "dot-one";
transform = "{1, 0, 0, 1, 453, -296}";
}
);
layerId = "5483B82D-F897-45AA-9987-2D1C58E320E8";
name = Regular;
width = 1605;
}
);
rightMetricsKey = "-37";
unicode = FE90;
},
{
color = 6;
glyphname = "beh-ar.medi";
lastChange = "2015-10-26 20:09:09 +0000";
layers = (
{
associatedMasterId = "5483B82D-F897-45AA-9987-2D1C58E320E8";
layerId = "F1F00D0F-487E-4974-A2F5-D7C18ABB8A12";
name = "Regular Oct 4 15, 23:39";
paths = (
{
closed = 1;
nodes = (
"405 581 LINE",
"327 507 OFFCURVE",
"233 456 OFFCURVE",
"187 438 CURVE SMOOTH",
"145 421 OFFCURVE",
"89 400 OFFCURVE",
"0 400 CURVE",
"-50 267 OFFCURVE",
"-50 133 OFFCURVE",
"0 0 CURVE",
"82 0 OFFCURVE",
"271 14 OFFCURVE",
"537 303 CURVE",
"84 326 LINE",
"325 64 OFFCURVE",
"520 0 OFFCURVE",
"680 0 CURVE",
"730 133 OFFCURVE",
"730 267 OFFCURVE",
"680 400 CURVE",
"614 400 OFFCURVE",
"556 421 OFFCURVE",
"523 443 CURVE SMOOTH",
"492 463 OFFCURVE",
"458 526 OFFCURVE",
"423 579 CURVE"
);
}
);
width = 680;
},
{
background = {
paths = (
{
closed = 1;
nodes = (
"405 581 LINE",
"327 507 OFFCURVE",
"233 456 OFFCURVE",
"187 438 CURVE SMOOTH",
"145 421 OFFCURVE",
"89 400 OFFCURVE",
"0 400 CURVE",
"-50 267 OFFCURVE",
"-50 133 OFFCURVE",
"0 0 CURVE",
"82 0 OFFCURVE",
"271 14 OFFCURVE",
"537 303 CURVE",
"84 326 LINE",
"325 64 OFFCURVE",
"520 0 OFFCURVE",
"680 0 CURVE",
"730 133 OFFCURVE",
"730 267 OFFCURVE",
"680 400 CURVE",
"614 400 OFFCURVE",
"556 421 OFFCURVE",
"523 443 CURVE SMOOTH",
"492 463 OFFCURVE",
"458 526 OFFCURVE",
"423 579 CURVE"
);
}
);
};
components = (
{
name = "dotlessbeh-ar.medi";
},
{
name = "dot-one";
transform = "{1, 0, 0, 1, 43, -296}";
}
);
layerId = "5483B82D-F897-45AA-9987-2D1C58E320E8";
name = Regular;
width = 680;
}
);
unicode = FE92;
},
{
color = 6;
glyphname = "peh-ar.medi";
lastChange = "2015-10-26 20:09:09 +0000";
layers = (
{
components = (
{
name = "dot-three-b";
transform = "{1, 0, 0, 1, -63, -321}";
}
);
layerId = "5483B82D-F897-45AA-9987-2D1C58E320E8";
name = Regular;
paths = (
{
closed = 1;
nodes = (
"531 149 LINE",
"620 23 OFFCURVE",
"736 0 OFFCURVE",
"840 0 CURVE",
"890 133 OFFCURVE",
"890 267 OFFCURVE",
"840 400 CURVE",
"680 400 OFFCURVE",
"628 467 OFFCURVE",
"563 579 CURVE",
"545 581 LINE",
"434 477 OFFCURVE",
"244 400 OFFCURVE",
"0 400 CURVE",
"-50 267 OFFCURVE",
"-50 133 OFFCURVE",
"0 0 CURVE",
"194 0 OFFCURVE",
"341 12 OFFCURVE",
"512 149 CURVE"
);
}
);
width = 840;
}
);
unicode = FB59;
},
{
color = 6;
glyphname = "peh-ar.init";
lastChange = "2015-10-26 20:09:09 +0000";
layers = (
{
components = (
{
name = "dot-three-b";
transform = "{1, 0, 0, 1, -134, -321}";
}
);
layerId = "5483B82D-F897-45AA-9987-2D1C58E320E8";
name = Regular;
paths = (
{
closed = 1;
nodes = (
"-50 133 OFFCURVE",
"-50 266 OFFCURVE",
"0 400 CURVE",
"233 401 OFFCURVE",
"350 415 OFFCURVE",
"397 443 CURVE",
"365 234 LINE",
"365 381 OFFCURVE",
"300 553 OFFCURVE",
"266 654 CURVE",
"610 734 LINE",
"676 528 OFFCURVE",
"660 218 OFFCURVE",
"561 63 CURVE",
"449 31 OFFCURVE",
"284 3 OFFCURVE",
"0 0 CURVE"
);
}
);
width = 715;
}
);
unicode = FB58;
},
{
color = 6;
glyphname = "teh-ar.medi";
lastChange = "2015-10-26 20:09:09 +0000";
layers = (
{
components = (
{
name = "dot-two";
transform = "{1, 0, 0, 1, -39, 917}";
}
);
layerId = "5483B82D-F897-45AA-9987-2D1C58E320E8";
name = Regular;
paths = (
{
closed = 1;
nodes = (
"441 149 LINE",
"530 23 OFFCURVE",
"646 0 OFFCURVE",
"750 0 CURVE",
"800 133 OFFCURVE",
"800 267 OFFCURVE",
"750 400 CURVE",
"590 400 OFFCURVE",
"538 467 OFFCURVE",
"473 579 CURVE",
"455 581 LINE",
"344 477 OFFCURVE",
"154 400 OFFCURVE",
"0 400 CURVE",
"-50 267 OFFCURVE",
"-50 133 OFFCURVE",
"0 0 CURVE",
"104 0 OFFCURVE",
"251 12 OFFCURVE",
"422 149 CURVE"
);
}
);
width = 750;
}
);
unicode = FE98;
},
{
color = 6;
glyphname = "teh-ar.init";
lastChange = "2015-10-26 20:09:09 +0000";
layers = (
{
components = (
{
name = "dot-two";
transform = "{1, 0, 0, 1, -69, 1027}";
}
);
layerId = "5483B82D-F897-45AA-9987-2D1C58E320E8";
name = Regular;
paths = (
{
closed = 1;
nodes = (
"-50 133 OFFCURVE",
"-50 266 OFFCURVE",
"0 400 CURVE",
"153 401 OFFCURVE",
"270 415 OFFCURVE",
"317 443 CURVE",
"285 234 LINE",
"285 381 OFFCURVE",
"220 553 OFFCURVE",
"186 654 CURVE",
"530 734 LINE",
"596 528 OFFCURVE",
"580 218 OFFCURVE",
"481 63 CURVE",
"369 31 OFFCURVE",
"204 3 OFFCURVE",
"0 0 CURVE"
);
}
);
width = 650;
}
);
unicode = FE97;
},
{
color = 6;
glyphname = "theh-ar.medi";
lastChange = "2015-10-26 20:09:09 +0000";
layers = (
{
components = (
{
name = "dot-three-a";
transform = "{1, 0, 0, 1, -2, 923}";
}
);
layerId = "5483B82D-F897-45AA-9987-2D1C58E320E8";
name = Regular;
paths = (
{
closed = 1;
nodes = (
"441 149 LINE",
"530 23 OFFCURVE",
"646 0 OFFCURVE",
"750 0 CURVE",
"800 133 OFFCURVE",
"800 267 OFFCURVE",
"750 400 CURVE",
"590 400 OFFCURVE",
"538 467 OFFCURVE",
"473 579 CURVE",
"455 581 LINE",
"344 477 OFFCURVE",
"154 400 OFFCURVE",
"0 400 CURVE",
"-50 267 OFFCURVE",
"-50 133 OFFCURVE",
"0 0 CURVE",
"104 0 OFFCURVE",
"251 12 OFFCURVE",
"422 149 CURVE"
);
}
);
width = 750;
}
);
unicode = FE9C;
},
{
color = 6;
glyphname = "theh-ar.init";
lastChange = "2015-10-26 20:09:09 +0000";
layers = (
{
components = (
{
name = "dot-three-a";
transform = "{1, 0, 0, 1, -42, 1023}";
}
);
layerId = "5483B82D-F897-45AA-9987-2D1C58E320E8";
name = Regular;
paths = (
{
closed = 1;
nodes = (
"-50 133 OFFCURVE",
"-50 266 OFFCURVE",
"0 400 CURVE",
"153 401 OFFCURVE",
"270 415 OFFCURVE",
"317 443 CURVE",
"285 234 LINE",
"285 381 OFFCURVE",
"220 553 OFFCURVE",
"186 654 CURVE",
"530 734 LINE",
"596 528 OFFCURVE",
"580 218 OFFCURVE",
"481 63 CURVE",
"369 31 OFFCURVE",
"204 3 OFFCURVE",
"0 0 CURVE"
);
}
);
width = 647;
}
);
unicode = FE9B;
},
{
color = 6;
glyphname = "hah-ar";
lastChange = "2015-11-03 11:44:13 +0000";
layers = (
{
background = {
paths = (
{
closed = 1;
nodes = (
"565 630 OFFCURVE",
"885 462 OFFCURVE",
"966 340 CURVE",
"1156 582 LINE",
"1024 616 OFFCURVE",
"925 676 OFFCURVE",
"815 780 CURVE SMOOTH",
"674 913 OFFCURVE",
"596 1029 OFFCURVE",
"356 1050 CURVE",
"300 927 OFFCURVE",
"264 794 OFFCURVE",
"248 651 CURVE"
);
},
{
closed = 1;
nodes = (
"747 -372 OFFCURVE",
"383 -329 OFFCURVE",
"369 -64 CURVE SMOOTH",
"352 248 OFFCURVE",
"851 298 OFFCURVE",
"1088 244 CURVE",
"1131 362 OFFCURVE",
"1153 468 OFFCURVE",
"1156 582 CURVE",
"649 726 OFFCURVE",
"50 370 OFFCURVE",
"50 -152 CURVE SMOOTH",
"50 -650 OFFCURVE",
"594 -829 OFFCURVE",
"1115 -626 CURVE",
"1100 -463 OFFCURVE",
"1069 -344 OFFCURVE",
"1024 -243 CURVE"
);
}
);
};
layerId = "5483B82D-F897-45AA-9987-2D1C58E320E8";
name = Regular;
paths = (
{
closed = 1;
nodes = (
"565 630 OFFCURVE",
"885 462 OFFCURVE",
"966 340 CURVE",
"1156 582 LINE",
"1024 616 OFFCURVE",
"965 656 OFFCURVE",
"858 757 CURVE SMOOTH",
"714 893 OFFCURVE",
"596 1029 OFFCURVE",
"356 1050 CURVE",
"300 927 OFFCURVE",
"264 794 OFFCURVE",
"248 651 CURVE"
);
},
{
closed = 1;
nodes = (
"747 -372 OFFCURVE",
"383 -329 OFFCURVE",
"369 -64 CURVE SMOOTH",
"352 248 OFFCURVE",
"851 298 OFFCURVE",
"1088 244 CURVE",
"1131 362 OFFCURVE",
"1153 468 OFFCURVE",
"1156 582 CURVE",
"649 726 OFFCURVE",
"50 370 OFFCURVE",
"50 -152 CURVE SMOOTH",
"50 -650 OFFCURVE",
"594 -829 OFFCURVE",
"1115 -626 CURVE",
"1100 -463 OFFCURVE",
"1069 -344 OFFCURVE",
"1024 -243 CURVE"
);
}
);
width = 1206;
},
{
associatedMasterId = "5483B82D-F897-45AA-9987-2D1C58E320E8";
layerId = "4A28E058-EDBC-4CE4-A8AC-988A43A69211";
name = "Regular Oct 6 15, 22:41";
paths = (
{
closed = 1;
nodes = (
"544 343 OFFCURVE",
"738 24 OFFCURVE",
"1112 24 CURVE",
"1112 394 LINE",
"781 394 OFFCURVE",
"567 757 OFFCURVE",
"77 757 CURVE",
"77 343 LINE"
);
},
{
closed = 1;
nodes = (
"230 100 OFFCURVE",
"1112 0 CURVE",
"1112 494 LINE",
"-248 494 OFFCURVE",
"-521 -1418 OFFCURVE",
"1332 -915 CURVE",
"1236 -412 LINE",
"-87 -858 OFFCURVE"
);
}
);
width = 1316;
}
);
unicode = 062D;
},
{
color = 6;
glyphname = "hah-ar.fina";
lastChange = "2015-10-26 20:09:09 +0000";
layers = (
{
components = (
{
name = "hah-ar";
}
);
layerId = "5483B82D-F897-45AA-9987-2D1C58E320E8";
name = Regular;
paths = (
{
closed = 1;
nodes = (
"1163 400 OFFCURVE",
"1023 400 OFFCURVE",
"886 468 CURVE",
"868 470 LINE",
"868 177 OFFCURVE",
"941 0 OFFCURVE",
"1227 0 CURVE",
"1277 133 OFFCURVE",
"1277 267 OFFCURVE",
"1227 400 CURVE"
);
}
);
width = 1227;
}
);
unicode = FEA2;
},
{
color = 6;
glyphname = "hah-ar.medi";
lastChange = "2015-11-03 11:45:02 +0000";
layers = (
{
background = {
paths = (
{
closed = 1;
nodes = (
"435 630 OFFCURVE",
"755 462 OFFCURVE",
"836 340 CURVE",
"1026 582 LINE",
"894 616 OFFCURVE",
"835 656 OFFCURVE",
"728 757 CURVE SMOOTH",
"584 893 OFFCURVE",
"466 1029 OFFCURVE",
"226 1050 CURVE",
"170 927 OFFCURVE",
"134 794 OFFCURVE",
"118 651 CURVE"
);
},
{
closed = 1;
nodes = (
"617 -372 OFFCURVE",
"253 -329 OFFCURVE",
"239 -64 CURVE SMOOTH",
"222 248 OFFCURVE",
"721 298 OFFCURVE",
"958 244 CURVE",
"1001 362 OFFCURVE",
"1023 468 OFFCURVE",
"1026 582 CURVE",
"519 726 OFFCURVE",
"-80 370 OFFCURVE",
"-80 -152 CURVE SMOOTH",
"-80 -650 OFFCURVE",
"464 -829 OFFCURVE",
"985 -626 CURVE",
"970 -463 OFFCURVE",
"939 -344 OFFCURVE",
"894 -243 CURVE"
);
}
);
};
layerId = "5483B82D-F897-45AA-9987-2D1C58E320E8";
name = Regular;
paths = (
{
closed = 1;
nodes = (
"-30 267 OFFCURVE",
"-30 133 OFFCURVE",
"0 0 CURVE",
"416 0 OFFCURVE",
"571 234 OFFCURVE",
"938 194 CURVE",
"1001 338 OFFCURVE",
"1023 431 OFFCURVE",
"1026 532 CURVE",
"466 570 OFFCURVE",
"324 400 OFFCURVE",
"0 400 CURVE"
);
},
{
closed = 1;
nodes = (
"435 626 OFFCURVE",
"664 432 OFFCURVE",
"745 290 CURVE",
"1026 532 LINE",
"894 575 OFFCURVE",
"834 619 OFFCURVE",
"731 726 CURVE SMOOTH",
"627 835 OFFCURVE",
"466 1030 OFFCURVE",
"226 1050 CURVE",
"170 927 OFFCURVE",
"134 794 OFFCURVE",
"118 651 CURVE"
);
},
{
closed = 1;
nodes = (
"1043 400 OFFCURVE",
"903 400 OFFCURVE",
"766 468 CURVE",
"748 470 LINE",
"748 177 OFFCURVE",
"821 0 OFFCURVE",
"1107 0 CURVE",
"1157 133 OFFCURVE",
"1157 267 OFFCURVE",
"1107 400 CURVE"
);
}
);
width = 1107;
}
);
leftMetricsKey = "-22";
rightMetricsKey = "-3";
unicode = FEA4;
},
{
color = 6;
glyphname = "hah-ar.init";
lastChange = "2015-11-03 11:45:13 +0000";
layers = (
{
background = {
paths = (
{
closed = 1;
nodes = (
"435 626 OFFCURVE",
"664 432 OFFCURVE",
"745 290 CURVE",
"1026 532 LINE",
"894 575 OFFCURVE",
"799 625 OFFCURVE",
"681 766 CURVE SMOOTH",
"585 880 OFFCURVE",
"466 1030 OFFCURVE",
"226 1050 CURVE",
"170 927 OFFCURVE",
"134 794 OFFCURVE",
"118 651 CURVE"
);
},
{
closed = 1;
nodes = (
"-30 267 OFFCURVE",
"-30 133 OFFCURVE",
"0 0 CURVE",
"416 0 OFFCURVE",
"571 234 OFFCURVE",
"938 194 CURVE",
"1001 338 OFFCURVE",
"1023 431 OFFCURVE",
"1026 532 CURVE",
"466 570 OFFCURVE",
"324 400 OFFCURVE",
"0 400 CURVE"
);
}
);
};
layerId = "5483B82D-F897-45AA-9987-2D1C58E320E8";
name = Regular;
paths = (
{
closed = 1;
nodes = (
"-30 267 OFFCURVE",
"-30 133 OFFCURVE",
"0 0 CURVE",
"416 0 OFFCURVE",
"571 234 OFFCURVE",
"938 194 CURVE",
"1001 338 OFFCURVE",
"1023 431 OFFCURVE",
"1026 532 CURVE",
"466 570 OFFCURVE",
"324 400 OFFCURVE",
"0 400 CURVE"
);
},
{
closed = 1;
nodes = (
"435 626 OFFCURVE",
"664 432 OFFCURVE",
"745 290 CURVE",
"1026 532 LINE",
"894 575 OFFCURVE",
"834 619 OFFCURVE",
"731 726 CURVE SMOOTH",
"627 835 OFFCURVE",
"466 1030 OFFCURVE",
"226 1050 CURVE",
"170 927 OFFCURVE",
"134 794 OFFCURVE",
"118 651 CURVE"
);
}
);
width = 1076;
}
);
unicode = FEA3;
},
{
color = 6;
glyphname = "dal-ar";
lastChange = "2015-11-03 11:45:46 +0000";
layers = (
{
background = {
paths = (
{
closed = 1;
nodes = (
"281 800 LINE",
"441 606 OFFCURVE",
"546 369 OFFCURVE",
"588 128 CURVE",
"765 451 LINE",
"627 387 OFFCURVE",
"344 375 OFFCURVE",
"122 400 CURVE",
"81 276 OFFCURVE",
"56 156 OFFCURVE",
"50 16 CURVE",
"291 -42 OFFCURVE",
"670 24 OFFCURVE",
"776 72 CURVE",
"899 418 OFFCURVE",
"759 782 OFFCURVE",
"577 1050 CURVE"
);
}
);
};
layerId = "5483B82D-F897-45AA-9987-2D1C58E320E8";
name = Regular;
paths = (
{
closed = 1;
nodes = (
"281 800 LINE",
"441 606 OFFCURVE",
"546 369 OFFCURVE",
"588 128 CURVE",
"765 451 LINE",
"627 387 OFFCURVE",
"344 375 OFFCURVE",
"122 400 CURVE",
"81 276 OFFCURVE",
"56 156 OFFCURVE",
"50 16 CURVE",
"291 -42 OFFCURVE",
"670 24 OFFCURVE",
"776 72 CURVE",
"899 418 OFFCURVE",
"759 782 OFFCURVE",
"577 1050 CURVE"
);
}
);
width = 882;
},
{
associatedMasterId = "5483B82D-F897-45AA-9987-2D1C58E320E8";
layerId = "6B09649E-D3A5-4D08-8882-EEA27B358BB7";
name = "Regular Oct 7 15, 10:56";
paths = (
{
closed = 1;
nodes = (
"281 800 LINE",
"441 606 OFFCURVE",
"546 369 OFFCURVE",
"588 128 CURVE",
"642 451 LINE",
"504 387 OFFCURVE",
"344 375 OFFCURVE",
"122 400 CURVE",
"81 276 OFFCURVE",
"56 156 OFFCURVE",
"50 16 CURVE",
"291 -42 OFFCURVE",
"548 1 OFFCURVE",
"654 49 CURVE SMOOTH",
"701 67 OFFCURVE",
"854 278 OFFCURVE",
"854 351 CURVE SMOOTH",
"854 493 OFFCURVE",
"753 791 OFFCURVE",
"577 1050 CURVE"
);
}
);
width = 904;
}
);
unicode = 062F;
},
{
color = 6;
glyphname = "dal-ar.fina";
lastChange = "2015-11-03 11:45:54 +0000";
layers = (
{
background = {
paths = (
{
closed = 1;
nodes = (
"547 411 LINE",
"422 383 OFFCURVE",
"289 381 OFFCURVE",
"122 400 CURVE",
"81 276 OFFCURVE",
"56 156 OFFCURVE",
"50 16 CURVE",
"279 -42 OFFCURVE",
"523 1 OFFCURVE",
"624 49 CURVE",
"647 79 OFFCURVE",
"681 129 OFFCURVE",
"715 183 CURVE"
);
},
{
closed = 1;
nodes = (
"707 115 OFFCURVE",
"885 0 OFFCURVE",
"1037 0 CURVE",
"1086 133 OFFCURVE",
"1086 267 OFFCURVE",
"1037 400 CURVE",
"930 400 OFFCURVE",
"865 448 OFFCURVE",
"803 601 CURVE SMOOTH",
"744 746 OFFCURVE",
"695 882 OFFCURVE",
"587 1050 CURVE",
"291 800 LINE",
"384 680 OFFCURVE",
"462 574 OFFCURVE",
"597 321 CURVE SMOOTH"
);
}
);
};
layerId = "5483B82D-F897-45AA-9987-2D1C58E320E8";
name = Regular;
paths = (
{
closed = 1;
nodes = (
"570 416 LINE",
"422 383 OFFCURVE",
"289 381 OFFCURVE",
"122 400 CURVE",
"81 276 OFFCURVE",
"56 156 OFFCURVE",
"50 16 CURVE",
"279 -42 OFFCURVE",
"523 1 OFFCURVE",
"624 49 CURVE",
"647 79 OFFCURVE",
"681 129 OFFCURVE",
"715 183 CURVE"
);
},
{
closed = 1;
nodes = (
"707 115 OFFCURVE",
"885 0 OFFCURVE",
"1037 0 CURVE",
"1086 133 OFFCURVE",
"1086 267 OFFCURVE",
"1037 400 CURVE",
"930 400 OFFCURVE",
"865 448 OFFCURVE",
"803 601 CURVE SMOOTH",
"744 746 OFFCURVE",
"695 882 OFFCURVE",
"587 1050 CURVE",
"291 800 LINE",
"384 680 OFFCURVE",
"462 574 OFFCURVE",
"597 321 CURVE SMOOTH"
);
}
);
width = 1037;
},
{
associatedMasterId = "5483B82D-F897-45AA-9987-2D1C58E320E8";
layerId = "F38A6F77-C0B5-44E4-8C96-A4AA3A1EE138";
name = "Regular Oct 7 15, 10:58";
paths = (
{
closed = 1;
nodes = (
"291 800 LINE",
"441 606 OFFCURVE",
"591 357 OFFCURVE",
"610 130 CURVE",
"666 447 LINE",
"504 387 OFFCURVE",
"344 375 OFFCURVE",
"122 400 CURVE",
"81 276 OFFCURVE",
"56 156 OFFCURVE",
"50 16 CURVE",
"291 -42 OFFCURVE",
"548 1 OFFCURVE",
"654 49 CURVE",
"701 108 OFFCURVE",
"782 244 OFFCURVE",
"854 351 CURVE",
"854 493 OFFCURVE",
"753 791 OFFCURVE",
"587 1050 CURVE"
);
},
{
closed = 1;
nodes = (
"922 400 OFFCURVE",
"854 422 OFFCURVE",
"809 579 CURVE",
"791 581 LINE",
"703 218 LINE",
"799 44 OFFCURVE",
"963 0 OFFCURVE",
"1037 0 CURVE",
"1086 133 OFFCURVE",
"1086 267 OFFCURVE",
"1037 400 CURVE"
);
}
);
width = 1037;
}
);
rightMetricsKey = "-36";
unicode = FEAA;
},
{
color = 6;
glyphname = "reh-ar";
lastChange = "2015-11-03 11:46:19 +0000";
layers = (
{
layerId = "5483B82D-F897-45AA-9987-2D1C58E320E8";
name = Regular;
paths = (
{
closed = 1;
nodes = (
"223 465 LINE",
"151 230 OFFCURVE",
"7 -99 OFFCURVE",
"-150 -329 CURVE",
"-86 -402 OFFCURVE",
"75 -512 OFFCURVE",
"174 -549 CURVE",
"175 -549 OFFCURVE",
"441 -104 OFFCURVE",
"521 365 CURVE"
);
}
);
width = 571;
},
{
associatedMasterId = "5483B82D-F897-45AA-9987-2D1C58E320E8";
background = {
paths = (
{
closed = 1;
nodes = (
"75 -512 OFFCURVE",
"-86 -402 OFFCURVE",
"-150 -329 CURVE",
"42 -58 OFFCURVE",
"178 182 OFFCURVE",
"275 518 CURVE",
"230 142 LINE",
"230 289 OFFCURVE",
"133 553 OFFCURVE",
"99 654 CURVE",
"443 734 LINE",
"485 604 OFFCURVE",
"517 431 OFFCURVE",
"517 318 CURVE SMOOTH",
"517 27 OFFCURVE",
"175 -549 OFFCURVE",
"174 -549 CURVE"
);
}
);
};
layerId = "5F8BF6F5-5FEE-4EA2-942D-5A2F0BDB1F64";
name = "Regular Oct 5 15, 15:52";
paths = (
{
closed = 1;
nodes = (
"75 -512 OFFCURVE",
"-86 -402 OFFCURVE",
"-150 -329 CURVE",
"42 -58 OFFCURVE",
"178 182 OFFCURVE",
"275 518 CURVE",
"230 142 LINE",
"230 289 OFFCURVE",
"133 553 OFFCURVE",
"99 654 CURVE",
"443 734 LINE",
"485 604 OFFCURVE",
"517 431 OFFCURVE",
"517 318 CURVE SMOOTH",
"517 27 OFFCURVE",
"175 -549 OFFCURVE",
"174 -549 CURVE"
);
}
);
width = 563;
}
);
unicode = 0631;
},
{
color = 6;
glyphname = "reh-ar.fina";
lastChange = "2015-11-03 11:46:23 +0000";
layers = (
{
layerId = "5483B82D-F897-45AA-9987-2D1C58E320E8";
name = Regular;
paths = (
{
closed = 1;
nodes = (
"333 419 LINE",
"235 123 OFFCURVE",
"105 -86 OFFCURVE",
"-70 -329 CURVE",
"-6 -402 OFFCURVE",
"155 -512 OFFCURVE",
"254 -549 CURVE",
"277 -521 OFFCURVE",
"468 -177 OFFCURVE",
"563 138 CURVE",
"356 62 LINE",
"469 14 OFFCURVE",
"648 0 OFFCURVE",
"681 0 CURVE",
"731 133 OFFCURVE",
"731 267 OFFCURVE",
"681 400 CURVE",
"673 400 OFFCURVE",
"493 400 OFFCURVE",
"352 430 CURVE"
);
}
);
width = 681;
}
);
rightMetricsKey = "-3";
unicode = FEAE;
},
{
color = 6;
glyphname = "seen-ar";
lastChange = "2015-11-03 12:00:58 +0000";
layers = (
{
background = {
paths = (
{
closed = 1;
nodes = (
"947 250 OFFCURVE",
"982 29 OFFCURVE",
"982 -337 CURVE",
"1190 -20 LINE",
"1018 -100 OFFCURVE",
"773 -136 OFFCURVE",
"669 -136 CURVE SMOOTH",
"494 -136 OFFCURVE",
"419 -61 OFFCURVE",
"419 83 CURVE SMOOTH",
"419 172 OFFCURVE",
"447 286 OFFCURVE",
"497 425 CURVE",
"201 520 LINE",
"113 303 OFFCURVE",
"65 112 OFFCURVE",
"65 -45 CURVE SMOOTH",
"65 -351 OFFCURVE",
"245 -532 OFFCURVE",
"660 -532 CURVE SMOOTH",
"807 -532 OFFCURVE",
"983 -504 OFFCURVE",
"1192 -441 CURVE",
"1361 -205 OFFCURVE",
"1358 157 OFFCURVE",
"1264 554 CURVE",
"918 483 LINE"
);
}
);
};
layerId = "5483B82D-F897-45AA-9987-2D1C58E320E8";
name = Regular;
paths = (
{
closed = 1;
nodes = (
"1178 593 LINE",
"868 463 LINE",
"922 319 OFFCURVE",
"999 10 OFFCURVE",
"999 -211 CURVE",
"1021 -76 LINE",
"878 -115 OFFCURVE",
"760 -136 OFFCURVE",
"668 -136 CURVE SMOOTH",
"502 -136 OFFCURVE",
"419 -68 OFFCURVE",
"419 85 CURVE SMOOTH",
"419 171 OFFCURVE",
"445 283 OFFCURVE",
"497 425 CURVE",
"200 521 LINE",
"111 307 OFFCURVE",
"64 116 OFFCURVE",
"64 -43 CURVE SMOOTH",
"64 -346 OFFCURVE",
"248 -532 OFFCURVE",
"660 -532 CURVE SMOOTH",
"807 -532 OFFCURVE",
"983 -504 OFFCURVE",
"1192 -441 CURVE",
"1287 -311 OFFCURVE",
"1346 -92 OFFCURVE",
"1321 173 CURVE",
"1121 122 LINE",
"1384 -73 OFFCURVE",
"1527 34 OFFCURVE",
"1659 149 CURVE",
"1678 149 LINE",
"1791 -23 OFFCURVE",
"1946 -54 OFFCURVE",
"2218 63 CURVE",
"2317 218 OFFCURVE",
"2333 528 OFFCURVE",
"2267 734 CURVE",
"1923 654 LINE",
"1944 590 OFFCURVE",
"1979 497 OFFCURVE",
"2001 398 CURVE",
"1864 374 OFFCURVE",
"1784 441 OFFCURVE",
"1710 579 CURVE",
"1692 581 LINE",
"1460 379 OFFCURVE",
"1261 301 OFFCURVE",
"1195 586 CURVE"
);
},
{
closed = 0;
nodes = (
"-314 16 LINE"
);
}
);
width = 2357;
},
{
associatedMasterId = "5483B82D-F897-45AA-9987-2D1C58E320E8";
layerId = "1BC8C220-4C71-4DC1-AC9B-B4969162150A";
name = "Regular Oct 7 15, 12:11";
paths = (
{
closed = 1;
nodes = (
"925 454 LINE",
"947 250 OFFCURVE",
"1022 -219 OFFCURVE",
"938 -411 CURVE",
"1190 -26 LINE",
"515 -241 OFFCURVE",
"280 -165 OFFCURVE",
"497 425 CURVE",
"200 521 LINE",
"-84 -99 OFFCURVE",
"17 -532 OFFCURVE",
"660 -532 CURVE SMOOTH",
"807 -532 OFFCURVE",
"983 -504 OFFCURVE",
"1192 -441 CURVE",
"1346 -229 OFFCURVE",
"1342 108 OFFCURVE",
"1310 308 CURVE",
"944 465 LINE"
);
},
{
closed = 1;
nodes = (
"1843 654 LINE",
"1864 590 OFFCURVE",
"1899 497 OFFCURVE",
"1921 398 CURVE",
"1784 374 OFFCURVE",
"1704 441 OFFCURVE",
"1630 579 CURVE",
"1612 581 LINE",
"1401 375 OFFCURVE",
"1215 345 OFFCURVE",
"944 465 CURVE",
"925 454 LINE",
"1127 213 LINE",
"1006 103 LINE",
"1213 -53 OFFCURVE",
"1403 -41 OFFCURVE",
"1579 149 CURVE",
"1598 149 LINE",
"1711 -23 OFFCURVE",
"1866 -54 OFFCURVE",
"2138 63 CURVE",
"2237 218 OFFCURVE",
"2253 528 OFFCURVE",
"2187 734 CURVE"
);
}
);
width = 2277;
}
);
unicode = 0633;
},
{
color = 6;
glyphname = "seen-ar.fina";
lastChange = "2015-11-03 12:02:04 +0000";
layers = (
{
background = {
paths = (
{
closed = 1;
nodes = (
"868 463 LINE",
"995 87 OFFCURVE",
"1022 -219 OFFCURVE",
"979 -438 CURVE",
"1190 -26 LINE",
"969 -97 OFFCURVE",
"794 -136 OFFCURVE",
"668 -136 CURVE SMOOTH",
"502 -136 OFFCURVE",
"419 -68 OFFCURVE",
"419 85 CURVE SMOOTH",
"419 171 OFFCURVE",
"445 283 OFFCURVE",
"497 425 CURVE",
"200 521 LINE",
"111 307 OFFCURVE",
"63 116 OFFCURVE",
"63 -43 CURVE SMOOTH",
"63 -346 OFFCURVE",
"248 -532 OFFCURVE",
"660 -532 CURVE SMOOTH",
"807 -532 OFFCURVE",
"983 -504 OFFCURVE",
"1192 -441 CURVE",
"1346 -229 OFFCURVE",
"1342 108 OFFCURVE",
"1310 308 CURVE",
"1178 593 LINE"
);
},
{
closed = 1;
nodes = (
"2226 400 OFFCURVE",
"2153 467 OFFCURVE",
"2092 579 CURVE",
"2074 581 LINE",
"1959 335 OFFCURVE",
"1808 329 OFFCURVE",
"1710 579 CURVE",
"1692 581 LINE",
"1455 361 OFFCURVE",
"1262 290 OFFCURVE",
"1195 586 CURVE",
"1178 593 LINE",
"1127 213 LINE",
"1121 122 LINE",
"1304 -45 OFFCURVE",
"1458 -75 OFFCURVE",
"1659 149 CURVE",
"1678 149 LINE",
"1780 -71 OFFCURVE",
"1948 -52 OFFCURVE",
"2041 149 CURVE",
"2060 149 LINE",
"2154 23 OFFCURVE",
"2232 0 OFFCURVE",
"2309 0 CURVE",
"2359 133 OFFCURVE",
"2359 267 OFFCURVE",
"2309 400 CURVE"
);
}
);
};
layerId = "5483B82D-F897-45AA-9987-2D1C58E320E8";
name = Regular;
paths = (
{
closed = 1;
nodes = (
"868 463 LINE",
"995 87 OFFCURVE",
"1022 -219 OFFCURVE",
"979 -438 CURVE",
"1190 -26 LINE",
"969 -97 OFFCURVE",
"794 -136 OFFCURVE",
"668 -136 CURVE SMOOTH",
"502 -136 OFFCURVE",
"419 -68 OFFCURVE",
"419 85 CURVE SMOOTH",
"419 171 OFFCURVE",
"445 283 OFFCURVE",
"497 425 CURVE",
"200 521 LINE",
"111 307 OFFCURVE",
"63 116 OFFCURVE",
"63 -43 CURVE SMOOTH",
"63 -346 OFFCURVE",
"248 -532 OFFCURVE",
"660 -532 CURVE SMOOTH",
"807 -532 OFFCURVE",
"983 -504 OFFCURVE",
"1192 -441 CURVE",
"1346 -229 OFFCURVE",
"1342 108 OFFCURVE",
"1310 308 CURVE",
"1178 593 LINE"
);
},
{
closed = 1;
nodes = (
"2226 400 OFFCURVE",
"2153 467 OFFCURVE",
"2092 579 CURVE",
"2074 581 LINE",
"1959 335 OFFCURVE",
"1808 329 OFFCURVE",
"1710 579 CURVE",
"1692 581 LINE",
"1455 361 OFFCURVE",
"1262 290 OFFCURVE",
"1195 586 CURVE",
"1178 593 LINE",
"1127 213 LINE",
"1121 122 LINE",
"1304 -45 OFFCURVE",
"1458 -75 OFFCURVE",
"1659 149 CURVE",
"1678 149 LINE",
"1780 -71 OFFCURVE",
"1948 -52 OFFCURVE",
"2041 149 CURVE",
"2060 149 LINE",
"2154 23 OFFCURVE",
"2232 0 OFFCURVE",
"2309 0 CURVE",
"2359 133 OFFCURVE",
"2359 267 OFFCURVE",
"2309 400 CURVE"
);
}
);
width = 2309;
}
);
unicode = FEB2;
},
{
color = 6;
glyphname = "seen-ar.medi";
lastChange = "2015-11-03 11:47:12 +0000";
layers = (
{
layerId = "5483B82D-F897-45AA-9987-2D1C58E320E8";
name = Regular;
paths = (
{
closed = 1;
nodes = (
"1400 400 OFFCURVE",
"1351 467 OFFCURVE",
"1291 579 CURVE",
"1273 581 LINE",
"1161 323 OFFCURVE",
"1015 333 OFFCURVE",
"899 579 CURVE",
"881 581 LINE",
"610 331 OFFCURVE",
"487 313 OFFCURVE",
"321 579 CURVE",
"303 581 LINE",
"208 467 OFFCURVE",
"97 400 OFFCURVE",
"0 400 CURVE",
"-30 266 OFFCURVE",
"-30 132 OFFCURVE",
"0 0 CURVE",
"88 7 OFFCURVE",
"182 55 OFFCURVE",
"270 149 CURVE",
"289 149 LINE",
"468 -77 OFFCURVE",
"586 -53 OFFCURVE",
"848 149 CURVE",
"867 149 LINE",
"976 -60 OFFCURVE",
"1119 -69 OFFCURVE",
"1240 149 CURVE",
"1259 149 LINE",
"1342 23 OFFCURVE",
"1451 0 OFFCURVE",
"1548 0 CURVE",
"1598 133 OFFCURVE",
"1591 267 OFFCURVE",
"1548 400 CURVE"
);
}
);
width = 1548;
}
);
leftMetricsKey = "-2";
unicode = FEB4;
},
{
color = 6;
glyphname = "seen-ar.init";
lastChange = "2015-11-03 11:47:30 +0000";
layers = (
{
background = {
paths = (
{
closed = 1;
nodes = (
"1254 654 LINE",
"1275 590 OFFCURVE",
"1310 496 OFFCURVE",
"1332 398 CURVE",
"1195 374 OFFCURVE",
"1115 441 OFFCURVE",
"1041 579 CURVE",
"1023 581 LINE",
"924 477 OFFCURVE",
"746 400 OFFCURVE",
"649 400 CURVE SMOOTH",
"532 400 OFFCURVE",
"483 467 OFFCURVE",
"423 579 CURVE",
"405 581 LINE",
"306 477 OFFCURVE",
"127 400 OFFCURVE",
"0 400 CURVE",
"-50 267 OFFCURVE",
"-50 133 OFFCURVE",
"0 0 CURVE",
"82 0 OFFCURVE",
"221 12 OFFCURVE",
"372 149 CURVE",
"391 149 LINE",
"473 24 OFFCURVE",
"581 0 OFFCURVE",
"648 0 CURVE",
"648 0 OFFCURVE",
"648 0 OFFCURVE",
"648 0 CURVE",
"649 0 LINE",
"649 0 OFFCURVE",
"650 0 OFFCURVE",
"650 0 CURVE",
"703 0 OFFCURVE",
"841 14 OFFCURVE",
"990 149 CURVE",
"1009 149 LINE",
"1122 -23 OFFCURVE",
"1277 -54 OFFCURVE",
"1549 63 CURVE",
"1648 218 OFFCURVE",
"1664 528 OFFCURVE",
"1598 734 CURVE"
);
}
);
};
layerId = "5483B82D-F897-45AA-9987-2D1C58E320E8";
name = Regular;
paths = (
{
closed = 1;
nodes = (
"1254 654 LINE",
"1277 583 OFFCURVE",
"1318 475 OFFCURVE",
"1339 365 CURVE",
"1366 406 LINE",
"1208 364 OFFCURVE",
"1121 430 OFFCURVE",
"1041 579 CURVE",
"1023 581 LINE",
"736 340 OFFCURVE",
"554 311 OFFCURVE",
"423 579 CURVE",
"405 581 LINE",
"306 477 OFFCURVE",
"127 400 OFFCURVE",
"0 400 CURVE",
"-50 267 OFFCURVE",
"-50 133 OFFCURVE",
"0 0 CURVE",
"82 0 OFFCURVE",
"221 12 OFFCURVE",
"372 149 CURVE",
"391 149 LINE",
"532 -73 OFFCURVE",
"770 -57 OFFCURVE",
"990 149 CURVE",
"1009 149 LINE",
"1122 -23 OFFCURVE",
"1277 -63 OFFCURVE",
"1549 63 CURVE",
"1648 218 OFFCURVE",
"1664 528 OFFCURVE",
"1598 734 CURVE"
);
}
);
width = 1718;
}
);
unicode = FEB3;
},
{
color = 6;
glyphname = "sad-ar";
lastChange = "2015-11-03 11:59:31 +0000";
layers = (
{
background = {
paths = (
{
closed = 1;
nodes = (
"948 250 OFFCURVE",
"983 29 OFFCURVE",
"983 -337 CURVE",
"1191 -20 LINE",
"1019 -100 OFFCURVE",
"774 -136 OFFCURVE",
"670 -136 CURVE SMOOTH",
"495 -136 OFFCURVE",
"420 -61 OFFCURVE",
"420 83 CURVE SMOOTH",
"420 172 OFFCURVE",
"448 286 OFFCURVE",
"498 425 CURVE",
"202 520 LINE",
"114 303 OFFCURVE",
"66 112 OFFCURVE",
"66 -45 CURVE SMOOTH",
"66 -351 OFFCURVE",
"246 -532 OFFCURVE",
"661 -532 CURVE SMOOTH",
"808 -532 OFFCURVE",
"984 -504 OFFCURVE",
"1193 -441 CURVE",
"1362 -205 OFFCURVE",
"1359 157 OFFCURVE",
"1265 554 CURVE",
"919 483 LINE"
);
}
);
};
layerId = "5483B82D-F897-45AA-9987-2D1C58E320E8";
name = Regular;
paths = (
{
closed = 1;
nodes = (
"1828 548 OFFCURVE",
"2222 509 OFFCURVE",
"2234 316 CURVE",
"2373 452 LINE",
"2209 398 OFFCURVE",
"1856 343 OFFCURVE",
"1556 386 CURVE",
"1538 387 LINE",
"1316 366 OFFCURVE",
"1266 460 OFFCURVE",
"1195 586 CURVE",
"1178 593 LINE",
"868 463 LINE",
"912 345 OFFCURVE",
"972 117 OFFCURVE",
"992 -84 CURVE",
"611 -183 OFFCURVE",
"419 -148 OFFCURVE",
"419 85 CURVE SMOOTH",
"419 171 OFFCURVE",
"445 283 OFFCURVE",
"497 425 CURVE",
"200 521 LINE",
"112 307 OFFCURVE",
"65 116 OFFCURVE",
"65 -43 CURVE SMOOTH",
"65 -346 OFFCURVE",
"249 -532 OFFCURVE",
"660 -532 CURVE SMOOTH",
"807 -532 OFFCURVE",
"983 -504 OFFCURVE",
"1192 -441 CURVE",
"1282 -328 OFFCURVE",
"1342 -147 OFFCURVE",
"1328 184 CURVE",
"1007 167 LINE",
"1384 -114 OFFCURVE",
"2180 0 OFFCURVE",
"2364 86 CURVE",
"2424 173 OFFCURVE",
"2468 329 OFFCURVE",
"2468 394 CURVE SMOOTH",
"2468 916 OFFCURVE",
"1921 1096 OFFCURVE",
"1386 376 CURVE",
"1550 251 LINE"
);
}
);
width = 2518;
}
);
unicode = 0635;
},
{
color = 6;
glyphname = "sad-ar.fina";
lastChange = "2015-11-03 11:58:51 +0000";
layers = (
{
components = (
{
name = "sad-ar";
}
);
layerId = "5483B82D-F897-45AA-9987-2D1C58E320E8";
name = Regular;
paths = (
{
closed = 1;
nodes = (
"2332 400 LINE",
"2242 184 LINE",
"2470 0 OFFCURVE",
"2470 0 OFFCURVE",
"2544 0 CURVE",
"2594 133 OFFCURVE",
"2594 267 OFFCURVE",
"2544 400 CURVE"
);
}
);
width = 2544;
}
);
unicode = FEBA;
},
{
color = 6;
glyphname = "sad-ar.medi";
lastChange = "2015-11-03 11:51:03 +0000";
layers = (
{
background = {
paths = (
{
closed = 1;
nodes = (
"871 548 OFFCURVE",
"1265 509 OFFCURVE",
"1277 316 CURVE",
"1416 452 LINE",
"1252 398 OFFCURVE",
"899 343 OFFCURVE",
"599 386 CURVE",
"581 387 LINE",
"359 366 OFFCURVE",
"309 460 OFFCURVE",
"238 586 CURVE",
"221 593 LINE",
"-89 463 LINE",
"-45 345 OFFCURVE",
"15 117 OFFCURVE",
"35 -84 CURVE",
"-486 -220 OFFCURVE",
"-654 -103 OFFCURVE",
"-460 425 CURVE",
"-757 521 LINE",
"-1041 -99 OFFCURVE",
"-940 -532 OFFCURVE",
"-297 -532 CURVE SMOOTH",
"-150 -532 OFFCURVE",
"26 -504 OFFCURVE",
"235 -441 CURVE",
"318 -328 OFFCURVE",
"373 -147 OFFCURVE",
"360 184 CURVE",
"50 167 LINE",
"427 -114 OFFCURVE",
"1223 0 OFFCURVE",
"1407 86 CURVE",
"1467 173 OFFCURVE",
"1511 329 OFFCURVE",
"1511 394 CURVE SMOOTH",
"1511 916 OFFCURVE",
"964 1096 OFFCURVE",
"429 376 CURVE",
"593 251 LINE"
);
}
);
};
layerId = "5483B82D-F897-45AA-9987-2D1C58E320E8";
name = Regular;
paths = (
{
closed = 1;
nodes = (
"1383 400 LINE",
"1273 184 LINE",
"1521 0 OFFCURVE",
"1521 0 OFFCURVE",
"1595 0 CURVE",
"1645 133 OFFCURVE",
"1645 267 OFFCURVE",
"1595 400 CURVE"
);
},
{
closed = 1;
nodes = (
"895 563 OFFCURVE",
"1243 484 OFFCURVE",
"1267 349 CURVE",
"1340 430 LINE",
"1064 361 OFFCURVE",
"777 361 OFFCURVE",
"573 387 CURVE",
"496 384 OFFCURVE",
"416 462 OFFCURVE",
"353 579 CURVE",
"335 581 LINE",
"236 477 OFFCURVE",
"115 400 OFFCURVE",
"0 400 CURVE",
"-50 267 OFFCURVE",
"-50 133 OFFCURVE",
"0 0 CURVE",
"52 0 OFFCURVE",
"190 22 OFFCURVE",
"302 149 CURVE",
"321 149 LINE",
"478 -96 OFFCURVE",
"1123 -14 OFFCURVE",
"1407 86 CURVE",
"1479 190 OFFCURVE",
"1510 348 OFFCURVE",
"1510 391 CURVE SMOOTH",
"1510 903 OFFCURVE",
"979 1110 OFFCURVE",
"429 376 CURVE",
"593 251 LINE"
);
}
);
width = 1595;
}
);
unicode = FEBC;
},
{
color = 6;
glyphname = "sad-ar.init";
lastChange = "2015-11-03 11:51:42 +0000";
layers = (
{
associatedMasterId = "5483B82D-F897-45AA-9987-2D1C58E320E8";
background = {
paths = (
{
closed = 1;
nodes = (
"1106 564 OFFCURVE",
"1291 530 OFFCURVE",
"1410 412 CURVE",
"1237 394 OFFCURVE",
"1068 380 OFFCURVE",
"918 380 CURVE SMOOTH",
"705 380 OFFCURVE",
"562 394 OFFCURVE",
"473 579 CURVE",
"455 581 LINE",
"356 477 OFFCURVE",
"235 400 OFFCURVE",
"120 400 CURVE",
"70 267 OFFCURVE",
"70 133 OFFCURVE",
"120 0 CURVE",
"172 0 OFFCURVE",
"310 22 OFFCURVE",
"422 149 CURVE",
"441 149 LINE",
"524 23 OFFCURVE",
"671 -9 OFFCURVE",
"856 -9 CURVE SMOOTH",
"1152 -9 OFFCURVE",
"1468 22 OFFCURVE",
"1635 188 CURVE",
"1768 844 OFFCURVE",
"1269 1123 OFFCURVE",
"638 603 CURVE",
"776 319 LINE"
);
}
);
};
layerId = "8D72FDA8-5CD0-404A-B033-A4F6EC2F8F68";
name = "Regular Oct 12 15, 21:20";
paths = (
{
closed = 1;
nodes = (
"1106 564 OFFCURVE",
"1291 530 OFFCURVE",
"1410 412 CURVE",
"1237 394 OFFCURVE",
"1068 380 OFFCURVE",
"918 380 CURVE SMOOTH",
"705 380 OFFCURVE",
"497 400 OFFCURVE",
"411 731 CURVE",
"116 619 LINE",
"286 38 OFFCURVE",
"671 -9 OFFCURVE",
"856 -9 CURVE SMOOTH",
"1152 -9 OFFCURVE",
"1468 22 OFFCURVE",
"1635 188 CURVE",
"1768 844 OFFCURVE",
"1269 1123 OFFCURVE",
"638 603 CURVE",
"776 319 LINE"
);
},
{
closed = 1;
nodes = (
"-50 267 OFFCURVE",
"-50 133 OFFCURVE",
"0 0 CURVE",
"269 0 OFFCURVE",
"517 144 OFFCURVE",
"517 400 CURVE",
"0 400 LINE"
);
}
);
width = 1777;
},
{
background = {
paths = (
{
closed = 1;
nodes = (
"868 543 OFFCURVE",
"1216 490 OFFCURVE",
"1290 372 CURVE",
"926 326 OFFCURVE",
"699 335 OFFCURVE",
"557 369 CURVE",
"496 384 OFFCURVE",
"416 462 OFFCURVE",
"353 579 CURVE",
"335 581 LINE",
"236 477 OFFCURVE",
"115 400 OFFCURVE",
"0 400 CURVE",
"-50 267 OFFCURVE",
"-50 133 OFFCURVE",
"0 0 CURVE",
"52 0 OFFCURVE",
"190 22 OFFCURVE",
"302 149 CURVE",
"321 149 LINE",
"482 -96 OFFCURVE",
"1290 -44 OFFCURVE",
"1515 148 CURVE",
"1653 804 OFFCURVE",
"1106 1237 OFFCURVE",
"359 376 CURVE",
"593 251 LINE"
);
}
);
};
layerId = "5483B82D-F897-45AA-9987-2D1C58E320E8";
name = Regular;
paths = (
{
closed = 1;
nodes = (
"895 563 OFFCURVE",
"1243 484 OFFCURVE",
"1267 349 CURVE",
"1340 430 LINE",
"1064 361 OFFCURVE",
"777 361 OFFCURVE",
"573 387 CURVE",
"496 384 OFFCURVE",
"416 462 OFFCURVE",
"353 579 CURVE",
"335 581 LINE",
"236 477 OFFCURVE",
"115 400 OFFCURVE",
"0 400 CURVE",
"-50 267 OFFCURVE",
"-50 133 OFFCURVE",
"0 0 CURVE",
"52 0 OFFCURVE",
"190 22 OFFCURVE",
"302 149 CURVE",
"321 149 LINE",
"478 -96 OFFCURVE",
"1123 -14 OFFCURVE",
"1407 86 CURVE",
"1479 190 OFFCURVE",
"1510 348 OFFCURVE",
"1510 391 CURVE SMOOTH",
"1510 903 OFFCURVE",
"979 1110 OFFCURVE",
"429 376 CURVE",
"593 251 LINE"
);
}
);
width = 1560;
}
);
unicode = FEBB;
},
{
color = 6;
glyphname = "tah-ar";
lastChange = "2015-11-03 11:54:06 +0000";
layers = (
{
background = {
paths = (
{
closed = 1;
nodes = (
"304 -24 OFFCURVE",
"773 -44 OFFCURVE",
"1137 86 CURVE",
"1196 173 OFFCURVE",
"1239 321 OFFCURVE",
"1239 379 CURVE SMOOTH",
"1239 712 OFFCURVE",
"1053 877 OFFCURVE",
"802 852 CURVE SMOOTH",
"697 841 OFFCURVE",
"612 764 OFFCURVE",
"447 613 CURVE SMOOTH",
"366 538 OFFCURVE",
"348 491 OFFCURVE",
"207 299 CURVE",
"323 251 LINE",
"601 539 OFFCURVE",
"1033 529 OFFCURVE",
"1012 257 CURVE",
"1109 432 LINE",
"861 364 OFFCURVE",
"368 351 OFFCURVE",
"120 412 CURVE",
"77 287 OFFCURVE",
"53 161 OFFCURVE",
"50 36 CURVE"
);
},
{
closed = 1;
nodes = (
"425 342 LINE",
"632 512 OFFCURVE",
"650 869 OFFCURVE",
"650 1213 CURVE",
"304 1194 LINE",
"320 631 OFFCURVE",
"312 440 OFFCURVE",
"207 299 CURVE"
);
}
);
};
layerId = "5483B82D-F897-45AA-9987-2D1C58E320E8";
name = Regular;
paths = (
{
closed = 1;
nodes = (
"304 -24 OFFCURVE",
"773 -44 OFFCURVE",
"1137 86 CURVE",
"1196 173 OFFCURVE",
"1239 321 OFFCURVE",
"1239 379 CURVE SMOOTH",
"1239 712 OFFCURVE",
"1053 879 OFFCURVE",
"802 852 CURVE SMOOTH",
"632 834 OFFCURVE",
"422 592 OFFCURVE",
"207 299 CURVE",
"323 251 LINE",
"601 539 OFFCURVE",
"1033 529 OFFCURVE",
"1012 257 CURVE",
"1109 432 LINE",
"861 364 OFFCURVE",
"368 351 OFFCURVE",
"120 412 CURVE",
"77 287 OFFCURVE",
"53 161 OFFCURVE",
"50 36 CURVE"
);
},
{
closed = 1;
nodes = (
"548 503 LINE",
"640 691 OFFCURVE",
"650 956 OFFCURVE",
"650 1213 CURVE",
"304 1194 LINE",
"320 631 OFFCURVE",
"312 440 OFFCURVE",
"207 299 CURVE"
);
}
);
width = 1289;
},
{
associatedMasterId = "5483B82D-F897-45AA-9987-2D1C58E320E8";
background = {
paths = (
{
closed = 1;
nodes = (
"646 554 OFFCURVE",
"1003 484 OFFCURVE",
"1027 349 CURVE",
"1229 455 LINE",
"915 366 OFFCURVE",
"569 357 OFFCURVE",
"333 387 CURVE",
"256 384 OFFCURVE",
"176 462 OFFCURVE",
"113 579 CURVE",
"95 581 LINE",
"-4 477 OFFCURVE",
"-125 400 OFFCURVE",
"-240 400 CURVE",
"-290 267 OFFCURVE",
"-290 133 OFFCURVE",
"-240 0 CURVE",
"-188 0 OFFCURVE",
"-50 22 OFFCURVE",
"62 149 CURVE",
"81 149 LINE",
"238 -96 OFFCURVE",
"883 -22 OFFCURVE",
"1167 86 CURVE",
"1239 190 OFFCURVE",
"1270 348 OFFCURVE",
"1270 391 CURVE SMOOTH",
"1270 903 OFFCURVE",
"739 1110 OFFCURVE",
"119 376 CURVE",
"353 251 LINE"
);
}
);
};
layerId = "6C27CAB9-0FC5-4739-95D6-91488F875B66";
name = "Regular Oct 25 15, 16:40";
paths = (
{
closed = 1;
nodes = (
"432 -23 OFFCURVE",
"1020 -23 OFFCURVE",
"1251 188 CURVE",
"1333 647 OFFCURVE",
"1127 902 OFFCURVE",
"832 872 CURVE SMOOTH",
"676 856 OFFCURVE",
"521 603 OFFCURVE",
"254 603 CURVE",
"413 276 LINE",
"590 554 OFFCURVE",
"1087 563 OFFCURVE",
"1087 263 CURVE",
"1139 432 LINE",
"829 393 OFFCURVE",
"379 355 OFFCURVE",
"120 412 CURVE",
"77 287 OFFCURVE",
"53 161 OFFCURVE",
"50 36 CURVE"
);
},
{
closed = 1;
nodes = (
"547 517 LINE",
"659 627 OFFCURVE",
"680 869 OFFCURVE",
"680 1213 CURVE",
"334 1194 LINE",
"340 983 OFFCURVE",
"348 888 OFFCURVE",
"348 791 CURVE SMOOTH",
"348 687 OFFCURVE",
"345 679 OFFCURVE",
"254 603 CURVE"
);
}
);
width = 1319;
}
);
unicode = 0637;
},
{
color = 6;
glyphname = "tah-ar.fina";
lastChange = "2015-11-03 11:56:04 +0000";
layers = (
{
background = {
paths = (
{
closed = 1;
nodes = (
"1059 175 LINE",
"1100 39 LINE",
"1152 13 OFFCURVE",
"1266 0 OFFCURVE",
"1330 0 CURVE",
"1380 133 OFFCURVE",
"1380 267 OFFCURVE",
"1330 400 CURVE",
"1302 400 OFFCURVE",
"1260 400 OFFCURVE",
"1209 406 CURVE"
);
},
{
closed = 1;
nodes = (
"448 0 OFFCURVE",
"1060 -18 OFFCURVE",
"1251 188 CURVE",
"1328 608 OFFCURVE",
"1163 875 OFFCURVE",
"864 875 CURVE SMOOTH",
"751 875 OFFCURVE",
"678 799 OFFCURVE",
"459 620 CURVE SMOOTH",
"397 569 OFFCURVE",
"331 665 OFFCURVE",
"254 603 CURVE",
"412 278 LINE",
"624 578 OFFCURVE",
"1087 535 OFFCURVE",
"1087 278 CURVE",
"1139 432 LINE",
"848 392 OFFCURVE",
"365 400 OFFCURVE",
"266 400 CURVE",
"226 267 OFFCURVE",
"226 133 OFFCURVE",
"266 0 CURVE"
);
},
{
closed = 1;
nodes = (
"547 517 LINE",
"659 627 OFFCURVE",
"680 869 OFFCURVE",
"680 1163 CURVE",
"334 1144 LINE",
"340 983 OFFCURVE",
"345 888 OFFCURVE",
"348 791 CURVE SMOOTH",
"352 700 OFFCURVE",
"350 682 OFFCURVE",
"254 603 CURVE"
);
}
);
};
components = (
{
name = "tah-ar";
}
);
layerId = "5483B82D-F897-45AA-9987-2D1C58E320E8";
name = Regular;
paths = (
{
closed = 1;
nodes = (
"1142 400 LINE",
"992 144 LINE",
"1280 0 OFFCURVE",
"1280 0 OFFCURVE",
"1354 0 CURVE",
"1404 133 OFFCURVE",
"1404 267 OFFCURVE",
"1354 400 CURVE"
);
}
);
width = 1354;
}
);
unicode = FEC2;
},
{
color = 6;
glyphname = "tah-ar.medi";
lastChange = "2015-11-03 11:56:25 +0000";
layers = (
{
background = {
paths = (
{
closed = 1;
nodes = (
"266 0 OFFCURVE",
"649 -13 OFFCURVE",
"947 86 CURVE",
"1006 173 OFFCURVE",
"1049 321 OFFCURVE",
"1049 379 CURVE SMOOTH",
"1049 712 OFFCURVE",
"863 879 OFFCURVE",
"612 852 CURVE SMOOTH",
"442 834 OFFCURVE",
"199 571 OFFCURVE",
"71 308 CURVE",
"133 251 LINE",
"411 539 OFFCURVE",
"843 529 OFFCURVE",
"822 257 CURVE",
"919 432 LINE",
"778 388 OFFCURVE",
"446 362 OFFCURVE",
"189 377 CURVE SMOOTH",
"173 378 OFFCURVE",
"157 399 OFFCURVE",
"141 400 CURVE",
"0 400 LINE",
"-50 267 OFFCURVE",
"-50 133 OFFCURVE",
"0 0 CURVE"
);
},
{
closed = 1;
nodes = (
"235 342 LINE",
"442 512 OFFCURVE",
"460 869 OFFCURVE",
"460 1213 CURVE",
"114 1194 LINE",
"127 723 OFFCURVE",
"123 488 OFFCURVE",
"55 362 CURVE"
);
},
{
closed = 1;
nodes = (
"872 400 LINE",
"722 144 LINE",
"1010 0 OFFCURVE",
"1010 0 OFFCURVE",
"1084 0 CURVE",
"1134 133 OFFCURVE",
"1134 267 OFFCURVE",
"1084 400 CURVE"
);
}
);
};
layerId = "5483B82D-F897-45AA-9987-2D1C58E320E8";
name = Regular;
paths = (
{
closed = 1;
nodes = (
"266 0 OFFCURVE",
"649 -13 OFFCURVE",
"947 86 CURVE",
"1006 173 OFFCURVE",
"1049 321 OFFCURVE",
"1049 379 CURVE SMOOTH",
"1049 712 OFFCURVE",
"863 879 OFFCURVE",
"612 852 CURVE SMOOTH",
"442 834 OFFCURVE",
"199 571 OFFCURVE",
"71 308 CURVE",
"133 251 LINE",
"411 539 OFFCURVE",
"843 529 OFFCURVE",
"822 257 CURVE",
"919 432 LINE",
"778 388 OFFCURVE",
"446 362 OFFCURVE",
"189 377 CURVE SMOOTH",
"173 378 OFFCURVE",
"157 399 OFFCURVE",
"141 400 CURVE",
"0 400 LINE",
"-50 267 OFFCURVE",
"-50 133 OFFCURVE",
"0 0 CURVE"
);
},
{
closed = 1;
nodes = (
"235 342 LINE",
"442 512 OFFCURVE",
"460 869 OFFCURVE",
"460 1213 CURVE",
"114 1194 LINE",
"127 723 OFFCURVE",
"123 488 OFFCURVE",
"55 362 CURVE"
);
},
{
closed = 1;
nodes = (
"872 400 LINE",
"722 144 LINE",
"1010 0 OFFCURVE",
"1010 0 OFFCURVE",
"1084 0 CURVE",
"1134 133 OFFCURVE",
"1134 267 OFFCURVE",
"1084 400 CURVE"
);
}
);
width = 1084;
}
);
unicode = FEC4;
},
{
color = 6;
glyphname = "tah-ar.init";
lastChange = "2015-11-03 11:56:38 +0000";
layers = (
{
background = {
paths = (
{
closed = 1;
nodes = (
"266 0 OFFCURVE",
"649 -13 OFFCURVE",
"947 86 CURVE",
"1006 173 OFFCURVE",
"1049 321 OFFCURVE",
"1049 379 CURVE SMOOTH",
"1049 712 OFFCURVE",
"863 877 OFFCURVE",
"612 852 CURVE SMOOTH",
"502 841 OFFCURVE",
"414 757 OFFCURVE",
"233 591 CURVE SMOOTH",
"156 520 OFFCURVE",
"194 463 OFFCURVE",
"76 362 CURVE",
"133 251 LINE",
"411 539 OFFCURVE",
"843 529 OFFCURVE",
"822 257 CURVE",
"919 432 LINE",
"778 388 OFFCURVE",
"446 362 OFFCURVE",
"189 377 CURVE SMOOTH",
"173 378 OFFCURVE",
"157 399 OFFCURVE",
"141 400 CURVE",
"0 400 LINE",
"-50 267 OFFCURVE",
"-50 133 OFFCURVE",
"0 0 CURVE"
);
},
{
closed = 1;
nodes = (
"235 342 LINE",
"442 512 OFFCURVE",
"460 869 OFFCURVE",
"460 1213 CURVE",
"114 1194 LINE",
"127 723 OFFCURVE",
"144 488 OFFCURVE",
"76 362 CURVE"
);
}
);
};
layerId = "5483B82D-F897-45AA-9987-2D1C58E320E8";
name = Regular;
paths = (
{
closed = 1;
nodes = (
"266 0 OFFCURVE",
"649 -13 OFFCURVE",
"947 86 CURVE",
"1006 173 OFFCURVE",
"1049 321 OFFCURVE",
"1049 379 CURVE SMOOTH",
"1049 712 OFFCURVE",
"863 879 OFFCURVE",
"612 852 CURVE SMOOTH",
"442 834 OFFCURVE",
"199 571 OFFCURVE",
"71 308 CURVE",
"133 251 LINE",
"411 539 OFFCURVE",
"843 529 OFFCURVE",
"822 257 CURVE",
"919 432 LINE",
"778 388 OFFCURVE",
"446 362 OFFCURVE",
"189 377 CURVE SMOOTH",
"173 378 OFFCURVE",
"157 399 OFFCURVE",
"141 400 CURVE",
"0 400 LINE",
"-50 267 OFFCURVE",
"-50 133 OFFCURVE",
"0 0 CURVE"
);
},
{
closed = 1;
nodes = (
"235 342 LINE",
"442 512 OFFCURVE",
"460 869 OFFCURVE",
"460 1213 CURVE",
"114 1194 LINE",
"127 723 OFFCURVE",
"123 488 OFFCURVE",
"55 362 CURVE"
);
}
);
width = 1099;
}
);
unicode = FEC3;
},
{
color = 6;
glyphname = "ain-ar";
lastChange = "2015-11-03 11:52:58 +0000";
layers = (
{
background = {
paths = (
{
closed = 1;
nodes = (
"1013 646 LINE",
"1004 721 OFFCURVE",
"950 950 OFFCURVE",
"921 994 CURVE",
"634 973 OFFCURVE",
"262 808 OFFCURVE",
"262 493 CURVE SMOOTH",
"262 407 OFFCURVE",
"295 330 OFFCURVE",
"340 266 CURVE",
"179 170 OFFCURVE",
"50 21 OFFCURVE",
"50 -196 CURVE SMOOTH",
"50 -651 OFFCURVE",
"624 -779 OFFCURVE",
"1145 -636 CURVE",
"1136 -498 OFFCURVE",
"1102 -362 OFFCURVE",
"1054 -253 CURVE",
"691 -358 OFFCURVE",
"369 -252 OFFCURVE",
"369 -105 CURVE SMOOTH",
"369 55 OFFCURVE",
"793 55 OFFCURVE",
"1023 45 CURVE",
"1050 113 OFFCURVE",
"1088 315 OFFCURVE",
"1091 437 CURVE",
"930 429 OFFCURVE",
"808 416 OFFCURVE",
"710 398 CURVE",
"627 446 OFFCURVE",
"527 511 OFFCURVE",
"527 566 CURVE SMOOTH",
"527 647 OFFCURVE",
"815 643 OFFCURVE",
"976 616 CURVE"
);
}
);
};
layerId = "5483B82D-F897-45AA-9987-2D1C58E320E8";
name = Regular;
paths = (
{
closed = 1;
nodes = (
"1013 646 LINE",
"1004 721 OFFCURVE",
"950 950 OFFCURVE",
"921 994 CURVE",
"634 973 OFFCURVE",
"262 808 OFFCURVE",
"262 493 CURVE SMOOTH",
"262 407 OFFCURVE",
"295 330 OFFCURVE",
"340 266 CURVE",
"179 170 OFFCURVE",
"50 21 OFFCURVE",
"50 -196 CURVE SMOOTH",
"50 -651 OFFCURVE",
"624 -779 OFFCURVE",
"1145 -636 CURVE",
"1136 -498 OFFCURVE",
"1102 -362 OFFCURVE",
"1054 -253 CURVE",
"691 -358 OFFCURVE",
"369 -252 OFFCURVE",
"369 -105 CURVE SMOOTH",
"369 55 OFFCURVE",
"793 55 OFFCURVE",
"1023 45 CURVE",
"1050 113 OFFCURVE",
"1088 315 OFFCURVE",
"1091 437 CURVE",
"930 429 OFFCURVE",
"808 416 OFFCURVE",
"710 398 CURVE",
"636 446 OFFCURVE",
"547 511 OFFCURVE",
"547 566 CURVE SMOOTH",
"547 647 OFFCURVE",
"822 643 OFFCURVE",
"976 616 CURVE"
);
}
);
width = 1195;
},
{
associatedMasterId = "5483B82D-F897-45AA-9987-2D1C58E320E8";
background = {
paths = (
{
closed = 1;
nodes = (
"777 -382 OFFCURVE",
"413 -339 OFFCURVE",
"399 -74 CURVE SMOOTH",
"382 238 OFFCURVE",
"881 288 OFFCURVE",
"1118 234 CURVE",
"1161 352 OFFCURVE",
"1183 458 OFFCURVE",
"1186 572 CURVE",
"679 716 OFFCURVE",
"80 360 OFFCURVE",
"80 -162 CURVE SMOOTH",
"80 -660 OFFCURVE",
"624 -839 OFFCURVE",
"1145 -636 CURVE",
"1130 -473 OFFCURVE",
"1099 -354 OFFCURVE",
"1054 -253 CURVE"
);
}
);
};
layerId = "BD42FE98-532C-4A19-B203-E2001401EED5";
name = "Regular Oct 11 15, 14:50";
paths = (
{
closed = 1;
nodes = (
"691 -358 OFFCURVE",
"369 -252 OFFCURVE",
"369 -105 CURVE SMOOTH",
"369 5 OFFCURVE",
"523 40 OFFCURVE",
"880 124 CURVE",
"457 137 LINE",
"666 0 OFFCURVE",
"933 33 OFFCURVE",
"1023 55 CURVE",
"1050 113 OFFCURVE",
"1088 315 OFFCURVE",
"1091 437 CURVE",
"818 424 OFFCURVE",
"657 396 OFFCURVE",
"535 352 CURVE SMOOTH",
"296 275 OFFCURVE",
"50 104 OFFCURVE",
"50 -196 CURVE SMOOTH",
"50 -651 OFFCURVE",
"624 -779 OFFCURVE",
"1145 -636 CURVE",
"1136 -498 OFFCURVE",
"1102 -362 OFFCURVE",
"1054 -253 CURVE"
);
},
{
closed = 1;
nodes = (
"902 289 LINE",
"732 373 OFFCURVE",
"594 469 OFFCURVE",
"470 593 CURVE",
"662 697 OFFCURVE",
"986 659 OFFCURVE",
"1006 644 CURVE",
"1032 681 OFFCURVE",
"1072 921 OFFCURVE",
"1058 1022 CURVE",
"766 1054 OFFCURVE",
"252 891 OFFCURVE",
"252 523 CURVE SMOOTH",
"252 361 OFFCURVE",
"354 227 OFFCURVE",
"457 137 CURVE"
);
}
);
width = 1195;
}
);
unicode = 0639;
},
{
color = 6;
glyphname = "ain-ar.fina";
lastChange = "2015-11-03 11:52:08 +0000";
layers = (
{
layerId = "5483B82D-F897-45AA-9987-2D1C58E320E8";
name = Regular;
paths = (
{
closed = 1;
nodes = (
"369 71 OFFCURVE",
"739 158 OFFCURVE",
"964 316 CURVE",
"627 232 LINE",
"737 88 OFFCURVE",
"957 0 OFFCURVE",
"1207 0 CURVE",
"1257 133 OFFCURVE",
"1257 267 OFFCURVE",
"1207 400 CURVE",
"1118 400 OFFCURVE",
"1045 410 OFFCURVE",
"957 445 CURVE",
"971 340 LINE",
"1057 424 OFFCURVE",
"1137 563 OFFCURVE",
"1182 692 CURVE",
"1182 1042 OFFCURVE",
"783 1036 OFFCURVE",
"253 880 CURVE",
"240 731 OFFCURVE",
"253 649 OFFCURVE",
"280 530 CURVE",
"424 567 OFFCURVE",
"471 467 OFFCURVE",
"560 332 CURVE",
"755 446 LINE",
"332 346 OFFCURVE",
"50 113 OFFCURVE",
"50 -196 CURVE SMOOTH",
"50 -651 OFFCURVE",
"615 -778 OFFCURVE",
"1145 -636 CURVE",
"1137 -518 OFFCURVE",
"1104 -376 OFFCURVE",
"1054 -253 CURVE",
"691 -358 OFFCURVE",
"369 -252 OFFCURVE",
"369 -105 CURVE SMOOTH"
);
},
{
closed = 1;
nodes = (
"907 567 OFFCURVE",
"837 504 OFFCURVE",
"803 480 CURVE",
"746 525 OFFCURVE",
"713 570 OFFCURVE",
"683 625 CURVE",
"733 634 OFFCURVE",
"855 649 OFFCURVE",
"933 632 CURVE"
);
}
);
width = 1207;
},
{
associatedMasterId = "5483B82D-F897-45AA-9987-2D1C58E320E8";
background = {
paths = (
{
closed = 1;
nodes = (
"165 267 OFFCURVE",
"165 133 OFFCURVE",
"215 0 CURVE",
"347 0 LINE",
"712 167 LINE",
"991 0 LINE",
"1207 0 LINE",
"1257 133 OFFCURVE",
"1257 267 OFFCURVE",
"1207 400 CURVE",
"515 400 LINE",
"215 400 LINE"
);
},
{
closed = 1;
nodes = (
"1136 399 LINE",
"471 399 OFFCURVE",
"892 1113 OFFCURVE",
"256 900 CURVE",
"243 751 OFFCURVE",
"256 629 OFFCURVE",
"283 510 CURVE",
"579 629 OFFCURVE",
"469 0 OFFCURVE",
"991 0 CURVE"
);
},
{
closed = 1;
nodes = (
"492 574 LINE",
"623 629 OFFCURVE",
"809 718 OFFCURVE",
"938 672 CURVE",
"876 516 OFFCURVE",
"725 405 OFFCURVE",
"654 380 CURVE",
"347 0 LINE",
"627 0 OFFCURVE",
"797 161 OFFCURVE",
"899 259 CURVE SMOOTH",
"1107 459 OFFCURVE",
"1187 684 OFFCURVE",
"1187 787 CURVE SMOOTH",
"1187 1141 OFFCURVE",
"823 1159 OFFCURVE",
"256 900 CURVE"
);
}
);
};
layerId = "50B6177C-8778-4BEB-8B68-60013A6EDBA3";
name = "Regular Oct 8 15, 17:38";
paths = (
{
closed = 1;
nodes = (
"661 -388 OFFCURVE",
"369 -252 OFFCURVE",
"369 -105 CURVE SMOOTH",
"369 -36 OFFCURVE",
"460 -5 OFFCURVE",
"580 7 CURVE",
"776 204 LINE",
"919 202 OFFCURVE",
"1082 0 OFFCURVE",
"1207 0 CURVE",
"1257 133 OFFCURVE",
"1257 267 OFFCURVE",
"1207 400 CURVE",
"938 400 OFFCURVE",
"672 396 OFFCURVE",
"535 352 CURVE SMOOTH",
"296 275 OFFCURVE",
"50 104 OFFCURVE",
"50 -196 CURVE SMOOTH",
"50 -651 OFFCURVE",
"615 -860 OFFCURVE",
"1145 -636 CURVE",
"1125 -460 OFFCURVE",
"1084 -332 OFFCURVE",
"1024 -223 CURVE"
);
},
{
closed = 1;
nodes = (
"1207 400 LINE",
"425 400 OFFCURVE",
"891 1113 OFFCURVE",
"255 900 CURVE",
"242 751 OFFCURVE",
"255 629 OFFCURVE",
"282 510 CURVE",
"578 629 OFFCURVE",
"425 0 OFFCURVE",
"1207 0 CURVE"
);
},
{
closed = 1;
nodes = (
"491 574 LINE",
"622 629 OFFCURVE",
"808 718 OFFCURVE",
"937 672 CURVE",
"875 516 OFFCURVE",
"724 405 OFFCURVE",
"653 380 CURVE",
"580 7 LINE",
"1071 406 OFFCURVE",
"1186 633 OFFCURVE",
"1186 787 CURVE SMOOTH",
"1186 1141 OFFCURVE",
"822 1159 OFFCURVE",
"255 900 CURVE"
);
}
);
width = 1207;
}
);
unicode = FECA;
},
{
color = 6;
glyphname = "ain-ar.medi";
lastChange = "2015-11-03 11:52:30 +0000";
layers = (
{
layerId = "5483B82D-F897-45AA-9987-2D1C58E320E8";
name = Regular;
paths = (
{
closed = 1;
nodes = (
"921 399 LINE",
"284 399 OFFCURVE",
"612 917 OFFCURVE",
"43 880 CURVE",
"30 731 OFFCURVE",
"41 649 OFFCURVE",
"68 530 CURVE",
"236 564 OFFCURVE",
"271 444 OFFCURVE",
"347 323 CURVE SMOOTH",
"474 120 OFFCURVE",
"702 0 OFFCURVE",
"992 0 CURVE"
);
},
{
closed = 1;
nodes = (
"816 400 LINE",
"890 497 OFFCURVE",
"941 599 OFFCURVE",
"972 692 CURVE",
"972 1111 OFFCURVE",
"387 985 OFFCURVE",
"43 880 CURVE",
"277 574 LINE",
"377 616 OFFCURVE",
"619 658 OFFCURVE",
"723 632 CURVE",
"698 570 OFFCURVE",
"637 513 OFFCURVE",
"576 467 CURVE",
"576 468 OFFCURVE",
"575 468 OFFCURVE",
"575 469 CURVE",
"436 414 OFFCURVE",
"173 400 OFFCURVE",
"0 400 CURVE",
"-50 267 OFFCURVE",
"-50 133 OFFCURVE",
"0 0 CURVE",
"302 0 OFFCURVE",
"500 108 OFFCURVE",
"618 201 CURVE",
"992 0 LINE",
"1042 133 OFFCURVE",
"1042 267 OFFCURVE",
"992 400 CURVE"
);
}
);
width = 992;
},
{
associatedMasterId = "5483B82D-F897-45AA-9987-2D1C58E320E8";
background = {
paths = (
{
closed = 1;
nodes = (
"-50 267 OFFCURVE",
"-50 133 OFFCURVE",
"0 0 CURVE",
"992 0 LINE",
"1042 133 OFFCURVE",
"1042 267 OFFCURVE",
"992 400 CURVE",
"300 400 LINE",
"0 400 LINE"
);
},
{
closed = 1;
nodes = (
"921 399 LINE",
"266 399 OFFCURVE",
"677 1113 OFFCURVE",
"41 900 CURVE",
"28 751 OFFCURVE",
"41 629 OFFCURVE",
"68 510 CURVE",
"364 629 OFFCURVE",
"254 0 OFFCURVE",
"776 0 CURVE"
);
},
{
closed = 1;
nodes = (
"277 574 LINE",
"408 629 OFFCURVE",
"594 718 OFFCURVE",
"723 672 CURVE",
"661 516 OFFCURVE",
"510 405 OFFCURVE",
"439 380 CURVE",
"517 88 LINE",
"857 406 OFFCURVE",
"972 633 OFFCURVE",
"972 787 CURVE SMOOTH",
"972 1141 OFFCURVE",
"608 1159 OFFCURVE",
"41 900 CURVE"
);
}
);
};
layerId = "E0699E32-372D-4585-BCD3-DA22793EEC84";
name = "Regular Oct 8 15, 17:35";
paths = (
{
closed = 1;
nodes = (
"-50 267 OFFCURVE",
"-50 133 OFFCURVE",
"0 0 CURVE",
"132 0 LINE",
"497 167 LINE",
"776 0 LINE",
"992 0 LINE",
"1042 133 OFFCURVE",
"1042 267 OFFCURVE",
"992 400 CURVE",
"300 400 LINE",
"0 400 LINE"
);
},
{
closed = 1;
nodes = (
"921 399 LINE",
"266 399 OFFCURVE",
"677 1113 OFFCURVE",
"41 900 CURVE",
"28 751 OFFCURVE",
"41 629 OFFCURVE",
"68 510 CURVE",
"364 629 OFFCURVE",
"254 0 OFFCURVE",
"776 0 CURVE"
);
},
{
closed = 1;
nodes = (
"277 574 LINE",
"408 629 OFFCURVE",
"594 718 OFFCURVE",
"723 672 CURVE",
"661 516 OFFCURVE",
"510 405 OFFCURVE",
"439 380 CURVE",
"132 0 LINE",
"412 0 OFFCURVE",
"582 161 OFFCURVE",
"684 259 CURVE SMOOTH",
"892 459 OFFCURVE",
"972 684 OFFCURVE",
"972 787 CURVE SMOOTH",
"972 1141 OFFCURVE",
"608 1159 OFFCURVE",
"41 900 CURVE"
);
}
);
width = 992;
}
);
unicode = FECC;
},
{
color = 6;
glyphname = "ain-ar.init";
lastChange = "2015-11-03 11:52:45 +0000";
layers = (
{
background = {
paths = (
{
closed = 1;
nodes = (
"707 359 LINE",
"611 411 OFFCURVE",
"353 517 OFFCURVE",
"355 606 CURVE SMOOTH",
"357 691 OFFCURVE",
"624 672 OFFCURVE",
"811 654 CURVE",
"856 719 OFFCURVE",
"890 955 OFFCURVE",
"863 1032 CURVE",
"585 1064 OFFCURVE",
"97 901 OFFCURVE",
"97 533 CURVE SMOOTH",
"97 396 OFFCURVE",
"179 283 OFFCURVE",
"262 207 CURVE"
);
},
{
closed = 1;
nodes = (
"-50 267 OFFCURVE",
"-50 133 OFFCURVE",
"0 0 CURVE",
"170 0 OFFCURVE",
"308 41 OFFCURVE",
"449 97 CURVE",
"588 66 OFFCURVE",
"717 86 OFFCURVE",
"823 130 CURVE",
"860 199 OFFCURVE",
"899 381 OFFCURVE",
"891 469 CURVE",
"560 469 OFFCURVE",
"232 400 OFFCURVE",
"0 400 CURVE"
);
}
);
};
layerId = "5483B82D-F897-45AA-9987-2D1C58E320E8";
name = Regular;
paths = (
{
closed = 1;
nodes = (
"-50 267 OFFCURVE",
"-50 133 OFFCURVE",
"0 0 CURVE",
"170 0 OFFCURVE",
"308 41 OFFCURVE",
"449 97 CURVE",
"549 77 OFFCURVE",
"744 86 OFFCURVE",
"823 104 CURVE",
"850 200 OFFCURVE",
"889 382 OFFCURVE",
"891 469 CURVE",
"560 469 OFFCURVE",
"232 400 OFFCURVE",
"0 400 CURVE"
);
},
{
closed = 1;
nodes = (
"808 687 LINE",
"796 769 OFFCURVE",
"755 953 OFFCURVE",
"720 1032 CURVE",
"585 1032 OFFCURVE",
"97 901 OFFCURVE",
"97 533 CURVE SMOOTH",
"97 396 OFFCURVE",
"179 283 OFFCURVE",
"262 207 CURVE",
"707 359 LINE",
"619 411 OFFCURVE",
"383 517 OFFCURVE",
"385 606 CURVE SMOOTH",
"387 685 OFFCURVE",
"602 674 OFFCURVE",
"773 658 CURVE"
);
}
);
width = 942;
}
);
unicode = FECB;
},
{
color = 6;
glyphname = "feh-ar";
lastChange = "2015-10-26 20:09:09 +0000";
layers = (
{
background = {
paths = (
{
closed = 1;
nodes = (
"1088 407 OFFCURVE",
"981 412 OFFCURVE",
"938 453 CURVE",
"981 525 OFFCURVE",
"1088 480 OFFCURVE",
"1141 421 CURVE"
);
},
{
closed = 1;
nodes = (
"1383 496 OFFCURVE",
"1303 829 OFFCURVE",
"1047 829 CURVE SMOOTH",
"810 829 OFFCURVE",
"686 545 OFFCURVE",
"686 379 CURVE SMOOTH",
"686 107 OFFCURVE",
"1017 34 OFFCURVE",
"1213 88 CURVE",
"1158 399 LINE",
"1088 195 OFFCURVE",
"906 -111 OFFCURVE",
"771 -276 CURVE",
"835 -349 OFFCURVE",
"996 -459 OFFCURVE",
"1095 -496 CURVE",
"1141 -422 OFFCURVE",
"1383 -5 OFFCURVE",
"1383 313 CURVE SMOOTH"
);
}
);
};
components = (
{
name = "dot-one";
transform = "{1, 0, 0, 1, 922, 1118}";
},
{
name = "feh-ar-m";
}
);
layerId = "5483B82D-F897-45AA-9987-2D1C58E320E8";
name = Regular;
width = 1497;
}
);
unicode = 0641;
},
{
color = 6;
glyphname = "feh-ar.init";
lastChange = "2015-10-26 20:09:09 +0000";
layers = (
{
components = (
{
name = "dot-one";
transform = "{1, 0, 0, 1, 179, 1118}";
}
);
layerId = "5483B82D-F897-45AA-9987-2D1C58E320E8";
name = Regular;
paths = (
{
closed = 1;
nodes = (
"-50 267 OFFCURVE",
"-50 133 OFFCURVE",
"0 0 CURVE",
"286 0 OFFCURVE",
"481 17 OFFCURVE",
"600 63 CURVE",
"799 379 OFFCURVE",
"700 829 OFFCURVE",
"404 829 CURVE SMOOTH",
"185 829 OFFCURVE",
"43 573 OFFCURVE",
"43 379 CURVE SMOOTH",
"43 267 OFFCURVE",
"105 173 OFFCURVE",
"203 136 CURVE",
"531 259 LINE",
"579 431 LINE",
"435 400 OFFCURVE",
"214 399 OFFCURVE",
"0 400 CURVE"
);
},
{
closed = 1;
nodes = (
"445 407 OFFCURVE",
"338 412 OFFCURVE",
"295 453 CURVE",
"338 525 OFFCURVE",
"445 480 OFFCURVE",
"498 421 CURVE"
);
}
);
width = 754;
}
);
unicode = FED3;
},
{
color = 1;
glyphname = "dotlessfeh-ar";
lastChange = "2015-10-26 20:08:39 +0000";
layers = (
{
layerId = "5483B82D-F897-45AA-9987-2D1C58E320E8";
name = Regular;
paths = (
{
closed = 1;
nodes = (
"1443 829 OFFCURVE",
"1147 829 CURVE SMOOTH",
"928 829 OFFCURVE",
"786 573 OFFCURVE",
"786 379 CURVE SMOOTH",
"786 267 OFFCURVE",
"848 173 OFFCURVE",
"946 136 CURVE",
"1274 259 LINE",
"1322 431 LINE",
"1035 345 OFFCURVE",
"606 390 OFFCURVE",
"139 433 CURVE",
"94 308 OFFCURVE",
"65 177 OFFCURVE",
"50 42 CURVE",
"682 -57 OFFCURVE",
"1144 -13 OFFCURVE",
"1343 63 CURVE",
"1542 379 OFFCURVE"
);
},
{
closed = 1;
nodes = (
"1188 407 OFFCURVE",
"1081 412 OFFCURVE",
"1038 453 CURVE",
"1081 525 OFFCURVE",
"1188 480 OFFCURVE",
"1241 421 CURVE"
);
}
);
width = 1497;
}
);
unicode = 06A1;
},
{
color = 1;
glyphname = "dotlessfeh-ar.fina";
lastChange = "2015-10-26 20:08:39 +0000";
layers = (
{
layerId = "5483B82D-F897-45AA-9987-2D1C58E320E8";
name = Regular;
paths = (
{
closed = 1;
nodes = (
"804 158 OFFCURVE",
"788 133 OFFCURVE",
"838 0 CURVE",
"1090 89 OFFCURVE",
"1219 90 OFFCURVE",
"1452 133 CURVE",
"1625 397 OFFCURVE",
"1538 829 OFFCURVE",
"1242 829 CURVE SMOOTH",
"1023 829 OFFCURVE",
"881 573 OFFCURVE",
"881 379 CURVE SMOOTH",
"881 267 OFFCURVE",
"943 173 OFFCURVE",
"1041 136 CURVE",
"1071 400 LINE",
"854 291 LINE"
);
},
{
closed = 1;
nodes = (
"1287 397 OFFCURVE",
"1180 392 OFFCURVE",
"1133 429 CURVE",
"1170 505 OFFCURVE",
"1280 469 OFFCURVE",
"1339 415 CURVE"
);
},
{
closed = 1;
nodes = (
"1174 259 LINE",
"1133 400 LINE",
"899 366 OFFCURVE",
"506 380 OFFCURVE",
"139 433 CURVE",
"94 308 OFFCURVE",
"65 177 OFFCURVE",
"50 42 CURVE",
"557 -48 OFFCURVE",
"1329 -35 OFFCURVE",
"1452 133 CURVE"
);
},
{
closed = 1;
nodes = (
"1383 400 LINE",
"1264 289 LINE",
"1264 129 OFFCURVE",
"1418 0 OFFCURVE",
"1595 0 CURVE",
"1645 133 OFFCURVE",
"1645 267 OFFCURVE",
"1595 400 CURVE"
);
}
);
width = 1595;
}
);
},
{
color = 1;
glyphname = "dotlessfeh-ar.medi";
lastChange = "2015-10-26 20:08:39 +0000";
layers = (
{
layerId = "5483B82D-F897-45AA-9987-2D1C58E320E8";
name = Regular;
paths = (
{
closed = 1;
nodes = (
"-50 267 OFFCURVE",
"-50 133 OFFCURVE",
"0 0 CURVE",
"286 0 OFFCURVE",
"478 14 OFFCURVE",
"593 90 CURVE SMOOTH",
"666 138 OFFCURVE",
"666 208 OFFCURVE",
"683 272 CURVE SMOOTH",
"753 537 OFFCURVE",
"643 829 OFFCURVE",
"404 829 CURVE SMOOTH",
"185 829 OFFCURVE",
"43 573 OFFCURVE",
"43 379 CURVE SMOOTH",
"43 267 OFFCURVE",
"105 173 OFFCURVE",
"203 136 CURVE",
"233 400 LINE",
"0 400 LINE"
);
},
{
closed = 1;
nodes = (
"449 397 OFFCURVE",
"342 392 OFFCURVE",
"295 429 CURVE",
"332 505 OFFCURVE",
"442 469 OFFCURVE",
"501 415 CURVE"
);
},
{
closed = 1;
nodes = (
"542 400 LINE",
"423 289 LINE",
"423 129 OFFCURVE",
"577 0 OFFCURVE",
"754 0 CURVE",
"804 133 OFFCURVE",
"804 267 OFFCURVE",
"754 400 CURVE"
);
}
);
width = 754;
}
);
},
{
color = 1;
glyphname = "dotlessfeh-ar.init";
lastChange = "2015-10-26 20:08:39 +0000";
layers = (
{
layerId = "5483B82D-F897-45AA-9987-2D1C58E320E8";
name = Regular;
paths = (
{
closed = 1;
nodes = (
"-50 267 OFFCURVE",
"-50 133 OFFCURVE",
"0 0 CURVE",
"286 0 OFFCURVE",
"481 17 OFFCURVE",
"600 63 CURVE",
"799 379 OFFCURVE",
"700 829 OFFCURVE",
"404 829 CURVE SMOOTH",
"185 829 OFFCURVE",
"43 573 OFFCURVE",
"43 379 CURVE SMOOTH",
"43 267 OFFCURVE",
"105 173 OFFCURVE",
"203 136 CURVE",
"531 259 LINE",
"579 431 LINE",
"435 400 OFFCURVE",
"214 399 OFFCURVE",
"0 400 CURVE"
);
},
{
closed = 1;
nodes = (
"445 407 OFFCURVE",
"338 412 OFFCURVE",
"295 453 CURVE",
"338 525 OFFCURVE",
"445 480 OFFCURVE",
"498 421 CURVE"
);
}
);
width = 754;
}
);
},
{
color = 6;
glyphname = "dotlessqaf-ar";
lastChange = "2015-11-03 11:58:35 +0000";
layers = (
{
layerId = "5483B82D-F897-45AA-9987-2D1C58E320E8";
name = Regular;
paths = (
{
closed = 1;
nodes = (
"1025 354 OFFCURVE",
"918 359 OFFCURVE",
"875 400 CURVE",
"918 472 OFFCURVE",
"1025 427 OFFCURVE",
"1078 368 CURVE"
);
},
{
closed = 1;
nodes = (
"1432 -61 OFFCURVE",
"1370 776 OFFCURVE",
"993 776 CURVE SMOOTH",
"793 776 OFFCURVE",
"627 574 OFFCURVE",
"625 312 CURVE SMOOTH",
"623 54 OFFCURVE",
"1021 -72 OFFCURVE",
"1277 85 CURVE",
"982 304 LINE",
"1017 173 OFFCURVE",
"1021 -72 OFFCURVE",
"992 -252 CURVE",
"1202 -19 LINE",
"999 -56 OFFCURVE",
"825 -88 OFFCURVE",
"693 -88 CURVE SMOOTH",
"521 -88 OFFCURVE",
"421 -34 OFFCURVE",
"421 135 CURVE SMOOTH",
"421 223 OFFCURVE",
"448 336 OFFCURVE",
"497 475 CURVE",
"201 570 LINE",
"110 358 OFFCURVE",
"64 167 OFFCURVE",
"64 8 CURVE SMOOTH",
"64 -342 OFFCURVE",
"304 -483 OFFCURVE",
"639 -483 CURVE SMOOTH",
"806 -483 OFFCURVE",
"996 -450 OFFCURVE",
"1192 -391 CURVE"
);
}
);
width = 1384;
}
);
unicode = 066F;
},
{
color = 6;
glyphname = "dotlessqaf-ar.fina";
lastChange = "2015-11-03 11:58:16 +0000";
layers = (
{
background = {
paths = (
{
closed = 1;
nodes = (
"1256 17 LINE",
"1331 0 OFFCURVE",
"1336 0 OFFCURVE",
"1428 0 CURVE",
"1478 133 OFFCURVE",
"1478 267 OFFCURVE",
"1428 400 CURVE",
"1329 400 OFFCURVE",
"1276 400 OFFCURVE",
"1199 414 CURVE"
);
},
{
closed = 1;
nodes = (
"1445 -61 OFFCURVE",
"1383 776 OFFCURVE",
"1006 776 CURVE SMOOTH",
"806 776 OFFCURVE",
"640 574 OFFCURVE",
"638 312 CURVE SMOOTH",
"636 54 OFFCURVE",
"1034 -72 OFFCURVE",
"1290 85 CURVE",
"995 304 LINE",
"1030 173 OFFCURVE",
"1034 -72 OFFCURVE",
"1005 -252 CURVE",
"1215 -19 LINE",
"1012 -56 OFFCURVE",
"838 -88 OFFCURVE",
"706 -88 CURVE SMOOTH",
"534 -88 OFFCURVE",
"434 -34 OFFCURVE",
"434 135 CURVE SMOOTH",
"434 223 OFFCURVE",
"461 336 OFFCURVE",
"510 475 CURVE",
"214 570 LINE",
"123 358 OFFCURVE",
"77 167 OFFCURVE",
"77 8 CURVE SMOOTH",
"77 -342 OFFCURVE",
"317 -483 OFFCURVE",
"652 -483 CURVE SMOOTH",
"819 -483 OFFCURVE",
"1009 -450 OFFCURVE",
"1205 -391 CURVE"
);
},
{
closed = 1;
nodes = (
"1038 354 OFFCURVE",
"931 359 OFFCURVE",
"888 400 CURVE",
"931 472 OFFCURVE",
"1038 427 OFFCURVE",
"1091 368 CURVE"
);
}
);
};
layerId = "5483B82D-F897-45AA-9987-2D1C58E320E8";
name = Regular;
paths = (
{
closed = 1;
nodes = (
"1256 17 LINE",
"1331 0 OFFCURVE",
"1336 0 OFFCURVE",
"1428 0 CURVE",
"1478 133 OFFCURVE",
"1478 267 OFFCURVE",
"1428 400 CURVE",
"1329 400 OFFCURVE",
"1276 400 OFFCURVE",
"1199 414 CURVE"
);
},
{
closed = 1;
nodes = (
"1445 -61 OFFCURVE",
"1383 776 OFFCURVE",
"1006 776 CURVE SMOOTH",
"806 776 OFFCURVE",
"640 574 OFFCURVE",
"638 312 CURVE SMOOTH",
"636 54 OFFCURVE",
"1034 -72 OFFCURVE",
"1290 85 CURVE",
"995 304 LINE",
"1030 173 OFFCURVE",
"1034 -72 OFFCURVE",
"1005 -252 CURVE",
"1215 -19 LINE",
"1012 -56 OFFCURVE",
"838 -88 OFFCURVE",
"706 -88 CURVE SMOOTH",
"534 -88 OFFCURVE",
"434 -34 OFFCURVE",
"434 135 CURVE SMOOTH",
"434 223 OFFCURVE",
"461 336 OFFCURVE",
"510 475 CURVE",
"214 570 LINE",
"123 358 OFFCURVE",
"77 167 OFFCURVE",
"77 8 CURVE SMOOTH",
"77 -342 OFFCURVE",
"317 -483 OFFCURVE",
"652 -483 CURVE SMOOTH",
"819 -483 OFFCURVE",
"1009 -450 OFFCURVE",
"1205 -391 CURVE"
);
},
{
closed = 1;
nodes = (
"1038 354 OFFCURVE",
"931 359 OFFCURVE",
"888 400 CURVE",
"931 472 OFFCURVE",
"1038 427 OFFCURVE",
"1091 368 CURVE"
);
}
);
width = 1428;
}
);
},
{
color = 6;
glyphname = "qaf-ar";
lastChange = "2015-10-26 20:09:21 +0000";
layers = (
{
background = {
paths = (
{
closed = 1;
nodes = (
"1445 -61 OFFCURVE",
"1383 776 OFFCURVE",
"1006 776 CURVE SMOOTH",
"806 776 OFFCURVE",
"640 574 OFFCURVE",
"638 312 CURVE SMOOTH",
"636 54 OFFCURVE",
"1034 -72 OFFCURVE",
"1290 85 CURVE",
"995 304 LINE",
"1030 173 OFFCURVE",
"1034 -72 OFFCURVE",
"1005 -252 CURVE",
"1215 -10 LINE",
"1058 -61 OFFCURVE",
"802 -86 OFFCURVE",
"680 -86 CURVE SMOOTH",
"508 -86 OFFCURVE",
"434 -11 OFFCURVE",
"434 135 CURVE SMOOTH",
"434 223 OFFCURVE",
"461 336 OFFCURVE",
"510 475 CURVE",
"214 570 LINE",
"114 358 OFFCURVE",
"63 167 OFFCURVE",
"63 8 CURVE SMOOTH",
"63 -295 OFFCURVE",
"252 -483 OFFCURVE",
"658 -483 CURVE SMOOTH",
"806 -483 OFFCURVE",
"987 -456 OFFCURVE",
"1205 -391 CURVE"
);
},
{
closed = 1;
nodes = (
"1038 354 OFFCURVE",
"931 359 OFFCURVE",
"888 400 CURVE",
"931 472 OFFCURVE",
"1038 427 OFFCURVE",
"1091 368 CURVE"
);
}
);
};
components = (
{
name = "dot-two";
transform = "{1, 0, 0, 1, 606, 1028}";
}
);
layerId = "5483B82D-F897-45AA-9987-2D1C58E320E8";
name = Regular;
paths = (
{
closed = 1;
nodes = (
"1445 -61 OFFCURVE",
"1383 776 OFFCURVE",
"1006 776 CURVE SMOOTH",
"806 776 OFFCURVE",
"640 574 OFFCURVE",
"638 312 CURVE SMOOTH",
"636 54 OFFCURVE",
"1034 -72 OFFCURVE",
"1290 85 CURVE",
"995 304 LINE",
"1030 173 OFFCURVE",
"1034 -72 OFFCURVE",
"1005 -252 CURVE",
"1215 -19 LINE",
"1012 -56 OFFCURVE",
"838 -88 OFFCURVE",
"706 -88 CURVE SMOOTH",
"534 -88 OFFCURVE",
"434 -34 OFFCURVE",
"434 135 CURVE SMOOTH",
"434 223 OFFCURVE",
"461 336 OFFCURVE",
"510 475 CURVE",
"214 570 LINE",
"114 358 OFFCURVE",
"63 167 OFFCURVE",
"63 8 CURVE SMOOTH",
"63 -342 OFFCURVE",
"309 -483 OFFCURVE",
"652 -483 CURVE SMOOTH",
"819 -483 OFFCURVE",
"1009 -450 OFFCURVE",
"1205 -391 CURVE"
);
},
{
closed = 1;
nodes = (
"1038 354 OFFCURVE",
"931 359 OFFCURVE",
"888 400 CURVE",
"931 472 OFFCURVE",
"1038 427 OFFCURVE",
"1091 368 CURVE"
);
}
);
width = 1397;
},
{
associatedMasterId = "5483B82D-F897-45AA-9987-2D1C58E320E8";
background = {
paths = (
{
closed = 1;
nodes = (
"1038 354 OFFCURVE",
"931 359 OFFCURVE",
"888 400 CURVE",
"931 472 OFFCURVE",
"1038 427 OFFCURVE",
"1091 368 CURVE"
);
},
{
closed = 1;
nodes = (
"1333 443 OFFCURVE",
"1253 776 OFFCURVE",
"997 776 CURVE SMOOTH",
"760 776 OFFCURVE",
"636 492 OFFCURVE",
"636 326 CURVE SMOOTH",
"636 54 OFFCURVE",
"967 -19 OFFCURVE",
"1163 35 CURVE",
"1108 346 LINE",
"1038 142 OFFCURVE",
"856 -164 OFFCURVE",
"721 -329 CURVE",
"785 -402 OFFCURVE",
"946 -512 OFFCURVE",
"1045 -549 CURVE",
"1091 -475 OFFCURVE",
"1333 -58 OFFCURVE",
"1333 260 CURVE SMOOTH"
);
}
);
};
components = (
{
name = "dot-two";
transform = "{1, 0, 0, 1, 606, 1018}";
}
);
layerId = "11AFEED0-4F4A-4DC7-A0BD-6AE2CDDAB120";
name = "Regular Oct 8 15, 09:28";
paths = (
{
closed = 1;
nodes = (
"1445 -61 OFFCURVE",
"1383 776 OFFCURVE",
"1006 776 CURVE SMOOTH",
"806 776 OFFCURVE",
"719 538 OFFCURVE",
"719 387 CURVE SMOOTH",
"719 162 OFFCURVE",
"1051 110 OFFCURVE",
"1310 244 CURVE",
"974 393 LINE",
"1005 173 OFFCURVE",
"1034 -72 OFFCURVE",
"1005 -252 CURVE",
"1203 30 LINE",
"974 -48 OFFCURVE",
"802 -86 OFFCURVE",
"680 -86 CURVE SMOOTH",
"405 -86 OFFCURVE",
"379 106 OFFCURVE",
"510 475 CURVE",
"214 570 LINE",
"-76 -47 OFFCURVE",
"39 -483 OFFCURVE",
"658 -483 CURVE SMOOTH",
"806 -483 OFFCURVE",
"987 -456 OFFCURVE",
"1205 -391 CURVE"
);
},
{
closed = 1;
nodes = (
"1038 354 OFFCURVE",
"931 359 OFFCURVE",
"888 400 CURVE",
"931 472 OFFCURVE",
"1038 427 OFFCURVE",
"1091 368 CURVE"
);
}
);
width = 1397;
}
);
unicode = 0642;
},
{
color = 6;
glyphname = "qaf-ar.fina";
lastChange = "2015-10-26 20:09:21 +0000";
layers = (
{
background = {
paths = (
{
closed = 1;
nodes = (
"1445 -61 OFFCURVE",
"1383 776 OFFCURVE",
"1006 776 CURVE SMOOTH",
"806 776 OFFCURVE",
"640 574 OFFCURVE",
"638 312 CURVE SMOOTH",
"636 54 OFFCURVE",
"1034 -72 OFFCURVE",
"1290 85 CURVE",
"995 304 LINE",
"1030 173 OFFCURVE",
"1034 -72 OFFCURVE",
"1005 -252 CURVE",
"1203 30 LINE",
"974 -48 OFFCURVE",
"802 -86 OFFCURVE",
"680 -86 CURVE SMOOTH",
"405 -86 OFFCURVE",
"379 106 OFFCURVE",
"510 475 CURVE",
"214 570 LINE",
"-76 -47 OFFCURVE",
"39 -483 OFFCURVE",
"658 -483 CURVE SMOOTH",
"806 -483 OFFCURVE",
"987 -456 OFFCURVE",
"1205 -391 CURVE"
);
},
{
closed = 1;
nodes = (
"1038 354 OFFCURVE",
"931 359 OFFCURVE",
"888 400 CURVE",
"931 472 OFFCURVE",
"1038 427 OFFCURVE",
"1091 368 CURVE"
);
}
);
};
components = (
{
name = "qaf-ar";
}
);
layerId = "5483B82D-F897-45AA-9987-2D1C58E320E8";
name = Regular;
paths = (
{
closed = 1;
nodes = (
"1256 17 LINE",
"1331 0 OFFCURVE",
"1336 0 OFFCURVE",
"1428 0 CURVE",
"1478 133 OFFCURVE",
"1478 267 OFFCURVE",
"1428 400 CURVE",
"1329 400 OFFCURVE",
"1276 400 OFFCURVE",
"1199 414 CURVE"
);
}
);
width = 1428;
}
);
rightMetricsKey = "-";
unicode = FED6;
},
{
color = 6;
glyphname = "kaf-ar";
lastChange = "2015-10-26 20:09:21 +0000";
layers = (
{
background = {
paths = (
{
closed = 1;
nodes = (
"65 187 OFFCURVE",
"94 318 OFFCURVE",
"139 443 CURVE",
"531 382 OFFCURVE",
"1025 367 OFFCURVE",
"1218 432 CURVE",
"1076 190 LINE",
"1087 337 OFFCURVE",
"1004 562 OFFCURVE",
"977 643 CURVE",
"1321 723 LINE",
"1374 535 OFFCURVE",
"1387 259 OFFCURVE",
"1272 52 CURVE",
"1073 -8 OFFCURVE",
"582 -57 OFFCURVE",
"50 52 CURVE"
);
}
);
};
components = (
{
name = "hamza-ar";
transform = "{0.677, 0, 0, 0.677, 395, 553}";
}
);
layerId = "5483B82D-F897-45AA-9987-2D1C58E320E8";
name = Regular;
paths = (
{
closed = 1;
nodes = (
"65 187 OFFCURVE",
"94 318 OFFCURVE",
"139 443 CURVE",
"401 402 OFFCURVE",
"977 351 OFFCURVE",
"1218 432 CURVE",
"1076 190 LINE",
"1087 337 OFFCURVE",
"1161 546 OFFCURVE",
"1134 627 CURVE",
"1321 723 LINE",
"1374 535 OFFCURVE",
"1387 259 OFFCURVE",
"1272 52 CURVE",
"1073 -8 OFFCURVE",
"582 -57 OFFCURVE",
"50 52 CURVE"
);
},
{
closed = 1;
nodes = (
"1093 114 LINE",
"1096 167 OFFCURVE",
"1054 123 OFFCURVE",
"1055 184 CURVE SMOOTH",
"1061 449 OFFCURVE",
"1023 816 OFFCURVE",
"985 1194 CURVE",
"1331 1213 LINE",
"1350 910 OFFCURVE",
"1359 663 OFFCURVE",
"1360 442 CURVE SMOOTH",
"1361 298 OFFCURVE",
"1237 342 OFFCURVE",
"1231 229 CURVE",
"1166 193 OFFCURVE",
"1238 85 OFFCURVE",
"1121 84 CURVE"
);
}
);
width = 1410;
}
);
unicode = 0643;
},
{
color = 6;
glyphname = "kaf-ar.fina";
lastChange = "2015-10-26 20:09:21 +0000";
layers = (
{
components = (
{
name = "kaf-ar";
}
);
layerId = "5483B82D-F897-45AA-9987-2D1C58E320E8";
name = Regular;
paths = (
{
closed = 1;
nodes = (
"1460 267 OFFCURVE",
"1460 133 OFFCURVE",
"1410 0 CURVE",
"1338 0 OFFCURVE",
"1278 27 OFFCURVE",
"1239 90 CURVE",
"1218 400 LINE",
"1410 400 LINE"
);
}
);
width = 1410;
}
);
unicode = FEDA;
},
{
color = 6;
glyphname = "kaf-ar.medi";
lastChange = "2015-10-26 20:09:21 +0000";
layers = (
{
layerId = "5483B82D-F897-45AA-9987-2D1C58E320E8";
name = Regular;
paths = (
{
closed = 1;
nodes = (
"862 1263 LINE",
"862 909 LINE",
"148 684 LINE",
"148 1029 LINE",
"831 1284 LINE"
);
},
{
closed = 1;
nodes = (
"652 0 OFFCURVE",
"427 435 OFFCURVE",
"148 684 CURVE",
"348 934 LINE",
"606 691 OFFCURVE",
"744 400 OFFCURVE",
"922 400 CURVE",
"971 267 OFFCURVE",
"971 133 OFFCURVE",
"922 0 CURVE"
);
},
{
closed = 1;
nodes = (
"-49 133 OFFCURVE",
"-49 267 OFFCURVE",
"1 400 CURVE",
"355 400 OFFCURVE",
"476 428 OFFCURVE",
"662 476 CURVE",
"698 444 OFFCURVE",
"725 363 OFFCURVE",
"715 311 CURVE",
"534 49 LINE",
"444 13 OFFCURVE",
"318 0 OFFCURVE",
"1 0 CURVE"
);
}
);
width = 922;
}
);
rightMetricsKey = "-36";
unicode = FEDC;
},
{
color = 6;
glyphname = "kaf-ar.init";
lastChange = "2015-10-26 20:09:21 +0000";
layers = (
{
associatedMasterId = "5483B82D-F897-45AA-9987-2D1C58E320E8";
layerId = "74E94FD3-26C2-4713-9D6A-23893F39FD79";
name = "Regular Oct 11 15, 22:19";
paths = (
{
closed = 1;
nodes = (
"143 832 LINE",
"369 656 OFFCURVE",
"514 400 OFFCURVE",
"514 159 CURVE",
"567 441 LINE",
"397 408 OFFCURVE",
"154 400 OFFCURVE",
"0 400 CURVE",
"-50 267 OFFCURVE",
"-50 133 OFFCURVE",
"0 0 CURVE",
"312 0 OFFCURVE",
"508 16 OFFCURVE",
"738 108 CURVE",
"780 226 OFFCURVE",
"814 499 OFFCURVE",
"550 886 CURVE",
"846 979 LINE",
"846 1333 LINE",
"815 1354 LINE",
"185 1100 LINE"
);
}
);
width = 896;
},
{
layerId = "5483B82D-F897-45AA-9987-2D1C58E320E8";
name = Regular;
paths = (
{
closed = 1;
nodes = (
"866 1263 LINE",
"866 909 LINE",
"152 684 LINE",
"152 1029 LINE",
"835 1284 LINE"
);
},
{
closed = 1;
nodes = (
"-50 133 OFFCURVE",
"-50 267 OFFCURVE",
"0 400 CURVE",
"259 400 OFFCURVE",
"599 416 OFFCURVE",
"672 467 CURVE",
"577 128 LINE",
"532 315 OFFCURVE",
"358 552 OFFCURVE",
"152 684 CURVE",
"373 1060 LINE",
"823 580 OFFCURVE",
"785 239 OFFCURVE",
"738 108 CURVE",
"508 16 OFFCURVE",
"312 0 OFFCURVE",
"0 0 CURVE"
);
}
);
width = 896;
}
);
unicode = FEDB;
},
{
color = 6;
glyphname = "keheh-ar";
lastChange = "2015-10-26 20:09:21 +0000";
layers = (
{
background = {
paths = (
{
closed = 1;
nodes = (
"65 187 OFFCURVE",
"94 318 OFFCURVE",
"139 443 CURVE",
"531 382 OFFCURVE",
"1025 367 OFFCURVE",
"1218 432 CURVE",
"1076 190 LINE",
"1087 337 OFFCURVE",
"1004 562 OFFCURVE",
"977 643 CURVE",
"1321 723 LINE",
"1374 535 OFFCURVE",
"1387 259 OFFCURVE",
"1272 52 CURVE",
"1073 -8 OFFCURVE",
"582 -57 OFFCURVE",
"50 52 CURVE"
);
}
);
};
layerId = "5483B82D-F897-45AA-9987-2D1C58E320E8";
name = Regular;
paths = (
{
closed = 1;
nodes = (
"65 188 OFFCURVE",
"94 319 OFFCURVE",
"139 444 CURVE",
"474 395 OFFCURVE",
"977 356 OFFCURVE",
"1218 432 CURVE",
"1123 128 LINE",
"1078 314 OFFCURVE",
"904 552 OFFCURVE",
"698 684 CURVE",
"919 1060 LINE",
"1369 578 OFFCURVE",
"1331 236 OFFCURVE",
"1272 52 CURVE",
"1073 -8 OFFCURVE",
"582 -57 OFFCURVE",
"50 53 CURVE"
);
},
{
closed = 1;
nodes = (
"1412 1263 LINE",
"1412 909 LINE",
"698 684 LINE",
"698 1029 LINE",
"1381 1284 LINE"
);
}
);
width = 1442;
}
);
unicode = 06A9;
},
{
color = 6;
glyphname = "keheh-ar.fina";
lastChange = "2015-10-26 20:09:21 +0000";
layers = (
{
background = {
paths = (
{
closed = 1;
nodes = (
"1314 149 LINE",
"1401 18 OFFCURVE",
"1511 0 OFFCURVE",
"1603 0 CURVE",
"1653 133 OFFCURVE",
"1653 267 OFFCURVE",
"1603 400 CURVE",
"1455 400 OFFCURVE",
"1419 468 OFFCURVE",
"1346 579 CURVE",
"1328 581 LINE",
"1069 316 OFFCURVE",
"636 371 OFFCURVE",
"137 426 CURVE",
"91 297 OFFCURVE",
"62 167 OFFCURVE",
"48 34 CURVE",
"562 -22 OFFCURVE",
"1010 -66 OFFCURVE",
"1294 149 CURVE"
);
}
);
};
layerId = "5483B82D-F897-45AA-9987-2D1C58E320E8";
name = Regular;
paths = (
{
closed = 1;
nodes = (
"65 171 OFFCURVE",
"94 302 OFFCURVE",
"139 427 CURVE",
"456 392 OFFCURVE",
"896 321 OFFCURVE",
"1202 476 CURVE",
"1238 444 OFFCURVE",
"1265 363 OFFCURVE",
"1255 311 CURVE",
"1074 40 LINE",
"839 -44 OFFCURVE",
"359 -4 OFFCURVE",
"50 36 CURVE"
);
},
{
closed = 1;
nodes = (
"1412 1263 LINE",
"1412 909 LINE",
"698 684 LINE",
"698 1029 LINE",
"1381 1284 LINE"
);
},
{
closed = 1;
nodes = (
"1196 0 OFFCURVE",
"974 435 OFFCURVE",
"698 684 CURVE",
"898 934 LINE",
"1152 691 OFFCURVE",
"1287 400 OFFCURVE",
"1462 400 CURVE",
"1511 267 OFFCURVE",
"1511 133 OFFCURVE",
"1462 0 CURVE"
);
}
);
width = 1461;
}
);
unicode = FB8F;
},
{
color = 6;
glyphname = "gaf-ar";
lastChange = "2015-10-26 20:09:21 +0000";
layers = (
{
components = (
{
name = "keheh-ar";
}
);
layerId = "5483B82D-F897-45AA-9987-2D1C58E320E8";
name = Regular;
paths = (
{
closed = 1;
nodes = (
"1292 1503 LINE",
"1292 1347 LINE",
"748 1154 LINE",
"748 1339 LINE",
"1261 1524 LINE"
);
}
);
width = 1442;
}
);
unicode = 06AF;
},
{
color = 6;
glyphname = "gaf-ar.fina";
lastChange = "2015-10-26 20:09:21 +0000";
layers = (
{
components = (
{
name = "keheh-ar.fina";
}
);
layerId = "5483B82D-F897-45AA-9987-2D1C58E320E8";
name = Regular;
paths = (
{
closed = 1;
nodes = (
"1292 1503 LINE",
"1292 1347 LINE",
"748 1154 LINE",
"748 1339 LINE",
"1261 1524 LINE"
);
}
);
width = 1461;
}
);
unicode = FB93;
},
{
color = 6;
glyphname = "gaf-ar.medi";
lastChange = "2015-10-26 20:09:21 +0000";
layers = (
{
components = (
{
name = "keheh-ar.medi";
}
);
layerId = "5483B82D-F897-45AA-9987-2D1C58E320E8";
name = Regular;
paths = (
{
closed = 1;
nodes = (
"752 1503 LINE",
"752 1347 LINE",
"208 1154 LINE",
"208 1339 LINE",
"721 1524 LINE"
);
}
);
width = 922;
}
);
unicode = FB95;
},
{
color = 6;
glyphname = "gaf-ar.init";
lastChange = "2015-10-26 20:09:21 +0000";
layers = (
{
components = (
{
name = "keheh-ar.init";
}
);
layerId = "5483B82D-F897-45AA-9987-2D1C58E320E8";
name = Regular;
paths = (
{
closed = 1;
nodes = (
"752 1503 LINE",
"752 1347 LINE",
"208 1154 LINE",
"208 1339 LINE",
"721 1524 LINE"
);
}
);
width = 896;
}
);
unicode = FB94;
},
{
color = 6;
glyphname = "lam-ar";
lastChange = "2015-11-03 12:10:21 +0000";
layers = (
{
background = {
paths = (
{
closed = 1;
nodes = (
"954 400 OFFCURVE",
"989 179 OFFCURVE",
"989 -187 CURVE",
"1197 130 LINE",
"1025 50 OFFCURVE",
"780 14 OFFCURVE",
"676 14 CURVE SMOOTH",
"501 14 OFFCURVE",
"426 89 OFFCURVE",
"426 233 CURVE SMOOTH",
"426 322 OFFCURVE",
"454 436 OFFCURVE",
"504 575 CURVE",
"208 670 LINE",
"120 453 OFFCURVE",
"72 262 OFFCURVE",
"72 105 CURVE SMOOTH",
"72 -201 OFFCURVE",
"252 -382 OFFCURVE",
"667 -382 CURVE SMOOTH",
"814 -382 OFFCURVE",
"990 -354 OFFCURVE",
"1199 -291 CURVE",
"1368 -55 OFFCURVE",
"1365 307 OFFCURVE",
"1271 704 CURVE",
"925 633 LINE"
);
}
);
};
layerId = "5483B82D-F897-45AA-9987-2D1C58E320E8";
name = Regular;
paths = (
{
closed = 1;
nodes = (
"1215 277 OFFCURVE",
"1181 994 OFFCURVE",
"1164 1213 CURVE",
"818 1194 LINE",
"854 834 OFFCURVE",
"890 297 OFFCURVE",
"888 17 CURVE",
"928 49 LINE",
"841 27 OFFCURVE",
"757 14 OFFCURVE",
"684 14 CURVE SMOOTH",
"376 14 OFFCURVE",
"382 227 OFFCURVE",
"504 575 CURVE",
"208 670 LINE",
"118 451 OFFCURVE",
"73 255 OFFCURVE",
"73 94 CURVE SMOOTH",
"73 -246 OFFCURVE",
"309 -380 OFFCURVE",
"651 -380 CURVE SMOOTH",
"781 -380 OFFCURVE",
"926 -361 OFFCURVE",
"1079 -326 CURVE",
"1172 -177 OFFCURVE",
"1215 0 OFFCURVE",
"1215 195 CURVE SMOOTH"
);
}
);
width = 1275;
}
);
unicode = 0644;
},
{
color = 6;
glyphname = "lam-ar.fina";
lastChange = "2015-11-03 12:10:11 +0000";
layers = (
{
layerId = "5483B82D-F897-45AA-9987-2D1C58E320E8";
name = Regular;
paths = (
{
closed = 1;
nodes = (
"901 -15 OFFCURVE",
"1207 64 OFFCURVE",
"1206 208 CURVE SMOOTH",
"1205 429 OFFCURVE",
"1183 910 OFFCURVE",
"1164 1213 CURVE",
"818 1194 LINE",
"856 816 OFFCURVE",
"893 242 OFFCURVE",
"887 -23 CURVE"
);
},
{
closed = 1;
nodes = (
"1245 400 OFFCURVE",
"1155 424 OFFCURVE",
"1149 545 CURVE",
"1035 167 LINE",
"1074 104 OFFCURVE",
"1184 0 OFFCURVE",
"1336 0 CURVE",
"1386 133 OFFCURVE",
"1386 267 OFFCURVE",
"1336 400 CURVE"
);
},
{
closed = 1;
nodes = (
"1215 277 OFFCURVE",
"1181 994 OFFCURVE",
"1164 1213 CURVE",
"818 1194 LINE",
"854 834 OFFCURVE",
"890 297 OFFCURVE",
"888 17 CURVE",
"928 49 LINE",
"841 27 OFFCURVE",
"757 14 OFFCURVE",
"684 14 CURVE SMOOTH",
"376 14 OFFCURVE",
"382 227 OFFCURVE",
"504 575 CURVE",
"208 670 LINE",
"118 451 OFFCURVE",
"73 255 OFFCURVE",
"73 94 CURVE SMOOTH",
"73 -246 OFFCURVE",
"309 -380 OFFCURVE",
"651 -380 CURVE SMOOTH",
"781 -380 OFFCURVE",
"926 -361 OFFCURVE",
"1079 -326 CURVE",
"1172 -177 OFFCURVE",
"1215 0 OFFCURVE",
"1215 195 CURVE SMOOTH"
);
}
);
width = 1336;
}
);
unicode = FEDE;
},
{
color = 6;
glyphname = "lam-ar.medi";
lastChange = "2015-10-26 20:09:21 +0000";
layers = (
{
layerId = "5483B82D-F897-45AA-9987-2D1C58E320E8";
name = Regular;
paths = (
{
closed = 1;
nodes = (
"549 380 OFFCURVE",
"553 293 OFFCURVE",
"473 258 CURVE",
"243 184 LINE",
"249 449 OFFCURVE",
"211 816 OFFCURVE",
"173 1194 CURVE",
"519 1213 LINE",
"538 910 OFFCURVE",
"547 663 OFFCURVE",
"548 442 CURVE SMOOTH"
);
},
{
closed = 1;
nodes = (
"-50 133 OFFCURVE",
"-50 267 OFFCURVE",
"0 400 CURVE",
"160 400 OFFCURVE",
"313 405 OFFCURVE",
"406 432 CURVE",
"429 157 LINE",
"330 65 OFFCURVE",
"202 0 OFFCURVE",
"0 0 CURVE"
);
},
{
closed = 1;
nodes = (
"730 267 OFFCURVE",
"730 133 OFFCURVE",
"680 0 CURVE",
"499 0 OFFCURVE",
"330 78 OFFCURVE",
"292 184 CURVE",
"388 400 LINE",
"680 400 LINE"
);
}
);
width = 680;
}
);
unicode = FEE0;
},
{
color = 6;
glyphname = "lam-ar.init";
lastChange = "2015-10-26 20:09:21 +0000";
layers = (
{
layerId = "5483B82D-F897-45AA-9987-2D1C58E320E8";
name = Regular;
paths = (
{
closed = 1;
nodes = (
"281 114 LINE",
"284 167 OFFCURVE",
"242 123 OFFCURVE",
"243 184 CURVE SMOOTH",
"249 449 OFFCURVE",
"211 816 OFFCURVE",
"173 1194 CURVE",
"519 1213 LINE",
"538 910 OFFCURVE",
"547 663 OFFCURVE",
"548 442 CURVE SMOOTH",
"549 298 OFFCURVE",
"425 342 OFFCURVE",
"419 229 CURVE",
"354 193 OFFCURVE",
"426 85 OFFCURVE",
"309 84 CURVE"
);
},
{
closed = 1;
nodes = (
"-50 133 OFFCURVE",
"-50 267 OFFCURVE",
"0 400 CURVE",
"160 400 OFFCURVE",
"313 405 OFFCURVE",
"406 432 CURVE",
"264 190 LINE",
"275 337 OFFCURVE",
"349 546 OFFCURVE",
"322 627 CURVE",
"509 723 LINE",
"562 535 OFFCURVE",
"575 259 OFFCURVE",
"460 52 CURVE",
"365 23 OFFCURVE",
"202 5 OFFCURVE",
"0 0 CURVE"
);
}
);
width = 598;
}
);
unicode = FEDF;
},
{
color = 6;
glyphname = "meem-ar";
lastChange = "2015-10-26 20:09:21 +0000";
layers = (
{
layerId = "5483B82D-F897-45AA-9987-2D1C58E320E8";
name = Regular;
paths = (
{
closed = 1;
nodes = (
"78 223 OFFCURVE",
"174 369 OFFCURVE",
"259 394 CURVE",
"561 381 OFFCURVE",
"828 383 OFFCURVE",
"880 417 CURVE",
"852 442 OFFCURVE",
"776 464 OFFCURVE",
"700 464 CURVE SMOOTH",
"578 464 OFFCURVE",
"559 403 OFFCURVE",
"559 326 CURVE",
"366 323 LINE",
"291 481 OFFCURVE",
"403 845 OFFCURVE",
"732 845 CURVE SMOOTH",
"973 845 OFFCURVE",
"1086 649 OFFCURVE",
"1086 367 CURVE SMOOTH",
"1086 215 OFFCURVE",
"1050 126 OFFCURVE",
"970 73 CURVE SMOOTH",
"854 -11 OFFCURVE",
"635 -16 OFFCURVE",
"276 9 CURVE",
"384 223 LINE",
"365 -48 OFFCURVE",
"409 -379 OFFCURVE",
"455 -561 CURVE",
"390 -597 OFFCURVE",
"232 -619 OFFCURVE",
"115 -620 CURVE",
"105 -610 LINE",
"59 -392 OFFCURVE",
"36 -107 OFFCURVE",
"59 132 CURVE"
);
}
);
width = 1136;
}
);
unicode = 0645;
},
{
color = 6;
glyphname = "meem-ar.fina";
lastChange = "2015-10-26 20:09:21 +0000";
layers = (
{
layerId = "5483B82D-F897-45AA-9987-2D1C58E320E8";
name = Regular;
paths = (
{
closed = 1;
nodes = (
"1307 267 OFFCURVE",
"1307 133 OFFCURVE",
"1257 0 CURVE",
"1047 0 OFFCURVE",
"937 157 OFFCURVE",
"886 266 CURVE",
"1081 577 LINE",
"1119 443 OFFCURVE",
"1161 400 OFFCURVE",
"1257 400 CURVE"
);
},
{
closed = 1;
nodes = (
"99 223 OFFCURVE",
"195 369 OFFCURVE",
"280 394 CURVE",
"582 381 OFFCURVE",
"849 383 OFFCURVE",
"901 417 CURVE",
"873 442 OFFCURVE",
"797 464 OFFCURVE",
"721 464 CURVE SMOOTH",
"599 464 OFFCURVE",
"580 403 OFFCURVE",
"580 326 CURVE",
"387 323 LINE",
"312 481 OFFCURVE",
"424 845 OFFCURVE",
"753 845 CURVE SMOOTH",
"994 845 OFFCURVE",
"1107 649 OFFCURVE",
"1107 367 CURVE SMOOTH",
"1107 215 OFFCURVE",
"1071 126 OFFCURVE",
"991 73 CURVE SMOOTH",
"875 -11 OFFCURVE",
"656 -16 OFFCURVE",
"297 9 CURVE",
"405 223 LINE",
"386 -48 OFFCURVE",
"430 -379 OFFCURVE",
"476 -561 CURVE",
"411 -597 OFFCURVE",
"253 -619 OFFCURVE",
"136 -620 CURVE",
"126 -610 LINE",
"80 -392 OFFCURVE",
"57 -107 OFFCURVE",
"80 132 CURVE"
);
}
);
width = 1257;
}
);
unicode = FEE2;
},
{
color = 6;
glyphname = "meem-ar.medi";
lastChange = "2015-10-26 20:09:21 +0000";
layers = (
{
background = {
paths = (
{
closed = 1;
nodes = (
"1132 400 OFFCURVE",
"1100 469 OFFCURVE",
"1070 570 CURVE",
"908 377 LINE",
"908 180 OFFCURVE",
"1010 0 OFFCURVE",
"1228 0 CURVE",
"1278 133 OFFCURVE",
"1278 267 OFFCURVE",
"1228 400 CURVE"
);
},
{
closed = 1;
nodes = (
"215 380 LINE",
"280 217 OFFCURVE",
"547 -13 OFFCURVE",
"780 -13 CURVE SMOOTH",
"986 -13 OFFCURVE",
"1097 165 OFFCURVE",
"1097 388 CURVE SMOOTH",
"1097 656 OFFCURVE",
"938 854 OFFCURVE",
"729 854 CURVE SMOOTH",
"412 854 OFFCURVE",
"365 400 OFFCURVE",
"0 400 CURVE",
"-50 267 OFFCURVE",
"-50 133 OFFCURVE",
"0 0 CURVE",
"256 0 OFFCURVE",
"438 152 OFFCURVE",
"505 400 CURVE",
"664 528 OFFCURVE",
"872 452 OFFCURVE",
"894 384 CURVE",
"807 358 OFFCURVE",
"573 350 OFFCURVE",
"359 571 CURVE"
);
}
);
};
layerId = "5483B82D-F897-45AA-9987-2D1C58E320E8";
name = Regular;
paths = (
{
closed = 1;
nodes = (
"1074 400 OFFCURVE",
"1042 469 OFFCURVE",
"1012 570 CURVE",
"850 377 LINE",
"850 180 OFFCURVE",
"952 0 OFFCURVE",
"1170 0 CURVE",
"1220 133 OFFCURVE",
"1220 267 OFFCURVE",
"1170 400 CURVE"
);
},
{
closed = 1;
nodes = (
"215 380 LINE",
"277 217 OFFCURVE",
"529 -13 OFFCURVE",
"750 -13 CURVE SMOOTH",
"937 -13 OFFCURVE",
"1037 165 OFFCURVE",
"1037 388 CURVE SMOOTH",
"1037 656 OFFCURVE",
"891 854 OFFCURVE",
"699 854 CURVE SMOOTH",
"395 854 OFFCURVE",
"400 400 OFFCURVE",
"0 400 CURVE",
"-50 267 OFFCURVE",
"-50 133 OFFCURVE",
"0 0 CURVE",
"256 0 OFFCURVE",
"438 152 OFFCURVE",
"505 400 CURVE",
"639 528 OFFCURVE",
"815 452 OFFCURVE",
"834 384 CURVE",
"757 358 OFFCURVE",
"549 350 OFFCURVE",
"359 571 CURVE"
);
}
);
width = 1170;
}
);
unicode = FEE4;
},
{
color = 6;
glyphname = "meem-ar.init";
lastChange = "2015-10-26 20:09:21 +0000";
layers = (
{
background = {
paths = (
{
closed = 1;
nodes = (
"215 380 LINE",
"280 217 OFFCURVE",
"547 -13 OFFCURVE",
"780 -13 CURVE SMOOTH",
"986 -13 OFFCURVE",
"1097 165 OFFCURVE",
"1097 388 CURVE SMOOTH",
"1097 656 OFFCURVE",
"937 854 OFFCURVE",
"731 854 CURVE SMOOTH",
"370 854 OFFCURVE",
"366 400 OFFCURVE",
"0 400 CURVE",
"-50 267 OFFCURVE",
"-50 133 OFFCURVE",
"0 0 CURVE",
"199 0 OFFCURVE",
"396 102 OFFCURVE",
"486 332 CURVE",
"505 400 LINE",
"664 528 OFFCURVE",
"872 452 OFFCURVE",
"894 384 CURVE",
"807 358 OFFCURVE",
"573 350 OFFCURVE",
"359 571 CURVE"
);
}
);
};
layerId = "5483B82D-F897-45AA-9987-2D1C58E320E8";
name = Regular;
paths = (
{
closed = 1;
nodes = (
"215 380 LINE",
"277 217 OFFCURVE",
"529 -13 OFFCURVE",
"750 -13 CURVE SMOOTH",
"930 -13 OFFCURVE",
"1027 165 OFFCURVE",
"1027 388 CURVE SMOOTH",
"1027 656 OFFCURVE",
"885 854 OFFCURVE",
"699 854 CURVE SMOOTH",
"395 854 OFFCURVE",
"390 400 OFFCURVE",
"0 400 CURVE",
"-50 267 OFFCURVE",
"-50 133 OFFCURVE",
"0 0 CURVE",
"256 0 OFFCURVE",
"438 152 OFFCURVE",
"505 400 CURVE",
"635 528 OFFCURVE",
"806 452 OFFCURVE",
"824 384 CURVE",
"748 358 OFFCURVE",
"545 350 OFFCURVE",
"359 571 CURVE"
);
}
);
width = 1077;
},
{
associatedMasterId = "5483B82D-F897-45AA-9987-2D1C58E320E8";
background = {
paths = (
{
closed = 1;
nodes = (
"315 884 OFFCURVE",
"342 400 OFFCURVE",
"0 400 CURVE",
"-50 267 OFFCURVE",
"-50 133 OFFCURVE",
"0 0 CURVE",
"199 0 OFFCURVE",
"347 99 OFFCURVE",
"406 200 CURVE",
"289 260 LINE",
"368 162 OFFCURVE",
"593 -15 OFFCURVE",
"751 -15 CURVE SMOOTH",
"913 -15 OFFCURVE",
"995 170 OFFCURVE",
"995 373 CURVE SMOOTH",
"995 616 OFFCURVE",
"877 884 OFFCURVE",
"637 884 CURVE SMOOTH"
);
},
{
closed = 1;
nodes = (
"573 553 OFFCURVE",
"805 460 OFFCURVE",
"795 399 CURVE",
"720 362 OFFCURVE",
"539 414 OFFCURVE",
"521 469 CURVE"
);
}
);
};
layerId = "46B7EAFB-5BDB-49A8-8C4C-41313BA08B85";
name = "Regular Oct 12 15, 20:41";
paths = (
{
closed = 1;
nodes = (
"573 553 OFFCURVE",
"805 460 OFFCURVE",
"795 399 CURVE",
"720 362 OFFCURVE",
"539 414 OFFCURVE",
"521 469 CURVE"
);
},
{
closed = 1;
nodes = (
"315 884 OFFCURVE",
"342 400 OFFCURVE",
"0 400 CURVE",
"-50 267 OFFCURVE",
"-50 133 OFFCURVE",
"0 0 CURVE",
"199 0 OFFCURVE",
"347 99 OFFCURVE",
"406 200 CURVE",
"289 260 LINE",
"378 82 OFFCURVE",
"593 -15 OFFCURVE",
"751 -15 CURVE SMOOTH",
"913 -15 OFFCURVE",
"995 170 OFFCURVE",
"995 373 CURVE SMOOTH",
"995 616 OFFCURVE",
"877 884 OFFCURVE",
"637 884 CURVE SMOOTH"
);
}
);
width = 1045;
},
{
associatedMasterId = "5483B82D-F897-45AA-9987-2D1C58E320E8";
background = {
paths = (
{
closed = 1;
nodes = (
"573 553 OFFCURVE",
"805 460 OFFCURVE",
"795 399 CURVE",
"720 362 OFFCURVE",
"539 414 OFFCURVE",
"521 469 CURVE"
);
},
{
closed = 1;
nodes = (
"315 884 OFFCURVE",
"342 400 OFFCURVE",
"0 400 CURVE",
"-50 267 OFFCURVE",
"-50 133 OFFCURVE",
"0 0 CURVE",
"199 0 OFFCURVE",
"347 99 OFFCURVE",
"406 200 CURVE",
"289 260 LINE",
"378 82 OFFCURVE",
"593 -15 OFFCURVE",
"751 -15 CURVE SMOOTH",
"913 -15 OFFCURVE",
"995 170 OFFCURVE",
"995 373 CURVE SMOOTH",
"995 616 OFFCURVE",
"877 884 OFFCURVE",
"637 884 CURVE SMOOTH"
);
}
);
};
layerId = "4AB0620F-BCEE-4A74-ABB7-401332A16165";
name = "Regular Oct 13 15, 09:22";
paths = (
{
closed = 1;
nodes = (
"630 524 OFFCURVE",
"871 460 OFFCURVE",
"898 412 CURVE",
"816 369 OFFCURVE",
"566 402 OFFCURVE",
"539 456 CURVE"
);
},
{
closed = 1;
nodes = (
"370 884 OFFCURVE",
"340 400 OFFCURVE",
"0 400 CURVE",
"-50 267 OFFCURVE",
"-50 133 OFFCURVE",
"0 0 CURVE",
"199 0 OFFCURVE",
"396 102 OFFCURVE",
"486 332 CURVE",
"361 238 LINE",
"433 205 LINE",
"456 145 OFFCURVE",
"481 84 OFFCURVE",
"513 18 CURVE",
"880 -63 OFFCURVE",
"1097 10 OFFCURVE",
"1097 345 CURVE SMOOTH",
"1097 587 OFFCURVE",
"977 884 OFFCURVE",
"682 884 CURVE SMOOTH"
);
}
);
width = 1147;
}
);
unicode = FEE3;
},
{
color = 6;
glyphname = "noonghunna-ar";
lastChange = "2015-11-03 11:57:43 +0000";
layers = (
{
background = {
paths = (
{
closed = 1;
nodes = (
"948 400 OFFCURVE",
"983 179 OFFCURVE",
"983 -187 CURVE",
"1191 130 LINE",
"1019 50 OFFCURVE",
"774 14 OFFCURVE",
"670 14 CURVE SMOOTH",
"388 14 OFFCURVE",
"366 208 OFFCURVE",
"498 575 CURVE",
"202 670 LINE",
"-94 53 OFFCURVE",
"32 -382 OFFCURVE",
"661 -382 CURVE SMOOTH",
"808 -382 OFFCURVE",
"984 -354 OFFCURVE",
"1193 -291 CURVE",
"1362 -55 OFFCURVE",
"1359 307 OFFCURVE",
"1265 704 CURVE",
"919 633 LINE"
);
}
);
};
layerId = "5483B82D-F897-45AA-9987-2D1C58E320E8";
name = Regular;
paths = (
{
closed = 1;
nodes = (
"948 400 OFFCURVE",
"983 179 OFFCURVE",
"983 -187 CURVE",
"1191 130 LINE",
"1019 50 OFFCURVE",
"774 14 OFFCURVE",
"670 14 CURVE SMOOTH",
"495 14 OFFCURVE",
"420 89 OFFCURVE",
"420 233 CURVE SMOOTH",
"420 322 OFFCURVE",
"448 436 OFFCURVE",
"498 575 CURVE",
"202 670 LINE",
"114 453 OFFCURVE",
"66 262 OFFCURVE",
"66 105 CURVE SMOOTH",
"66 -201 OFFCURVE",
"246 -382 OFFCURVE",
"661 -382 CURVE SMOOTH",
"808 -382 OFFCURVE",
"984 -354 OFFCURVE",
"1193 -291 CURVE",
"1362 -55 OFFCURVE",
"1359 307 OFFCURVE",
"1265 704 CURVE",
"919 633 LINE"
);
}
);
width = 1379;
}
);
unicode = 06BA;
},
{
color = 6;
glyphname = "noonghunna-ar.fina";
lastChange = "2015-11-03 12:06:11 +0000";
layers = (
{
background = {
paths = (
{
closed = 1;
nodes = (
"957 250 OFFCURVE",
"992 29 OFFCURVE",
"992 -337 CURVE",
"1200 -20 LINE",
"1028 -100 OFFCURVE",
"783 -136 OFFCURVE",
"679 -136 CURVE SMOOTH",
"504 -136 OFFCURVE",
"429 -61 OFFCURVE",
"429 83 CURVE SMOOTH",
"429 172 OFFCURVE",
"457 286 OFFCURVE",
"507 425 CURVE",
"211 520 LINE",
"123 303 OFFCURVE",
"75 112 OFFCURVE",
"75 -45 CURVE SMOOTH",
"75 -351 OFFCURVE",
"255 -532 OFFCURVE",
"670 -532 CURVE SMOOTH",
"817 -532 OFFCURVE",
"993 -504 OFFCURVE",
"1202 -441 CURVE",
"1371 -205 OFFCURVE",
"1368 157 OFFCURVE",
"1274 554 CURVE",
"928 483 LINE"
);
}
);
};
layerId = "5483B82D-F897-45AA-9987-2D1C58E320E8";
name = Regular;
paths = (
{
closed = 1;
nodes = (
"936 424 LINE",
"957 250 OFFCURVE",
"1032 -219 OFFCURVE",
"948 -411 CURVE",
"1200 -26 LINE",
"979 -97 OFFCURVE",
"804 -136 OFFCURVE",
"678 -136 CURVE SMOOTH",
"512 -136 OFFCURVE",
"429 -68 OFFCURVE",
"429 85 CURVE SMOOTH",
"429 171 OFFCURVE",
"455 283 OFFCURVE",
"507 425 CURVE",
"210 521 LINE",
"122 307 OFFCURVE",
"75 116 OFFCURVE",
"75 -43 CURVE SMOOTH",
"75 -346 OFFCURVE",
"259 -532 OFFCURVE",
"670 -532 CURVE SMOOTH",
"817 -532 OFFCURVE",
"993 -504 OFFCURVE",
"1202 -441 CURVE",
"1356 -229 OFFCURVE",
"1352 108 OFFCURVE",
"1264 319 CURVE",
"955 435 LINE"
);
},
{
closed = 1;
nodes = (
"936 424 LINE",
"1137 213 LINE",
"1016 103 LINE",
"1148 6 OFFCURVE",
"1323 0 OFFCURVE",
"1378 0 CURVE",
"1428 133 OFFCURVE",
"1428 267 OFFCURVE",
"1378 400 CURVE",
"1294 400 OFFCURVE",
"1106 400 OFFCURVE",
"955 435 CURVE"
);
}
);
width = 1378;
}
);
unicode = FB9F;
},
{
color = 6;
glyphname = "heh-ar";
lastChange = "2015-10-26 20:09:21 +0000";
layers = (
{
background = {
paths = (
{
closed = 1;
nodes = (
"254 970 LINE",
"214 834 OFFCURVE",
"194 688 OFFCURVE",
"194 532 CURVE",
"319 517 OFFCURVE",
"604 449 OFFCURVE",
"719 315 CURVE",
"742 438 LINE",
"245 298 OFFCURVE",
"185 447 OFFCURVE",
"368 627 CURVE",
"252 748 LINE",
"159 632 OFFCURVE",
"50 433 OFFCURVE",
"50 267 CURVE SMOOTH",
"50 119 OFFCURVE",
"121 -15 OFFCURVE",
"368 -15 CURVE SMOOTH",
"570 -15 OFFCURVE",
"700 24 OFFCURVE",
"796 122 CURVE",
"835 192 OFFCURVE",
"842 318 OFFCURVE",
"842 385 CURVE SMOOTH",
"842 599 OFFCURVE",
"635 840 OFFCURVE",
"296 986 CURVE"
);
}
);
};
layerId = "5483B82D-F897-45AA-9987-2D1C58E320E8";
name = Regular;
paths = (
{
closed = 1;
nodes = (
"254 970 LINE",
"214 834 OFFCURVE",
"194 688 OFFCURVE",
"194 532 CURVE",
"319 517 OFFCURVE",
"604 449 OFFCURVE",
"719 315 CURVE",
"742 438 LINE",
"245 298 OFFCURVE",
"185 447 OFFCURVE",
"368 627 CURVE",
"252 748 LINE",
"161 633 OFFCURVE",
"50 441 OFFCURVE",
"50 260 CURVE SMOOTH",
"50 119 OFFCURVE",
"117 -15 OFFCURVE",
"381 -15 CURVE SMOOTH",
"558 -15 OFFCURVE",
"701 45 OFFCURVE",
"796 122 CURVE",
"827 197 OFFCURVE",
"842 318 OFFCURVE",
"842 385 CURVE SMOOTH",
"842 599 OFFCURVE",
"635 840 OFFCURVE",
"296 986 CURVE"
);
}
);
width = 892;
}
);
unicode = 0647;
},
{
color = 6;
glyphname = "heh-ar.fina";
lastChange = "2015-10-26 20:09:21 +0000";
layers = (
{
background = {
paths = (
{
closed = 1;
nodes = (
"615 1050 LINE",
"414 726 LINE",
"470 523 OFFCURVE",
"578 0 OFFCURVE",
"984 0 CURVE",
"1036 133 OFFCURVE",
"1033 267 OFFCURVE",
"984 400 CURVE",
"809 400 OFFCURVE",
"755 678 OFFCURVE",
"649 1050 CURVE"
);
},
{
closed = 1;
nodes = (
"286 672 OFFCURVE",
"113 478 OFFCURVE",
"70 366 CURVE",
"70 165 OFFCURVE",
"191 -36 OFFCURVE",
"552 -8 CURVE",
"679 76 OFFCURVE",
"804 201 OFFCURVE",
"835 253 CURVE",
"815 309 OFFCURVE",
"756 407 OFFCURVE",
"661 430 CURVE",
"494 352 OFFCURVE",
"383 379 OFFCURVE",
"319 437 CURVE",
"310 378 LINE",
"397 476 OFFCURVE",
"535 577 OFFCURVE",
"697 651 CURVE",
"529 791 LINE"
);
}
);
};
layerId = "5483B82D-F897-45AA-9987-2D1C58E320E8";
name = Regular;
paths = (
{
closed = 1;
nodes = (
"809 400 OFFCURVE",
"755 698 OFFCURVE",
"676 979 CURVE",
"642 979 LINE",
"554 912 OFFCURVE",
"482 843 OFFCURVE",
"414 746 CURVE",
"266 648 OFFCURVE",
"138 537 OFFCURVE",
"50 366 CURVE",
"50 165 OFFCURVE",
"176 -36 OFFCURVE",
"552 -8 CURVE",
"604 26 OFFCURVE",
"656 68 OFFCURVE",
"701 108 CURVE",
"776 42 OFFCURVE",
"869 0 OFFCURVE",
"984 0 CURVE",
"1036 133 OFFCURVE",
"1033 267 OFFCURVE",
"984 400 CURVE"
);
},
{
closed = 1;
nodes = (
"363 455 OFFCURVE",
"411 493 OFFCURVE",
"470 529 CURVE",
"485 480 OFFCURVE",
"503 432 OFFCURVE",
"522 384 CURVE",
"435 376 OFFCURVE",
"371 391 OFFCURVE",
"326 416 CURVE"
);
}
);
width = 984;
}
);
unicode = FEEA;
},
{
color = 6;
glyphname = "heh-ar.medi";
lastChange = "2015-10-26 20:09:21 +0000";
layers = (
{
layerId = "5483B82D-F897-45AA-9987-2D1C58E320E8";
name = Regular;
paths = (
{
closed = 1;
nodes = (
"533 419 LINE",
"447 147 OFFCURVE",
"333 -45 OFFCURVE",
"180 -269 CURVE",
"244 -342 OFFCURVE",
"405 -452 OFFCURVE",
"504 -489 CURVE",
"523 -463 OFFCURVE",
"683 -149 OFFCURVE",
"763 138 CURVE",
"556 62 LINE",
"669 14 OFFCURVE",
"848 0 OFFCURVE",
"881 0 CURVE",
"931 133 OFFCURVE",
"931 267 OFFCURVE",
"881 400 CURVE",
"873 400 OFFCURVE",
"693 400 OFFCURVE",
"552 430 CURVE"
);
},
{
closed = 1;
nodes = (
"-50 267 OFFCURVE",
"-50 133 OFFCURVE",
"0 0 CURVE",
"99 0 OFFCURVE",
"263 0 OFFCURVE",
"361 29 CURVE",
"281 303 LINE",
"291 226 OFFCURVE",
"276 -57 OFFCURVE",
"180 -269 CURVE",
"376 -104 LINE",
"503 114 LINE",
"387 114 LINE",
"367 351 OFFCURVE",
"330 408 OFFCURVE",
"215 408 CURVE SMOOTH",
"152 408 OFFCURVE",
"103 400 OFFCURVE",
"0 400 CURVE"
);
}
);
width = 881;
},
{
associatedMasterId = "5483B82D-F897-45AA-9987-2D1C58E320E8";
layerId = "3FE80426-CF25-4F8E-8DE9-9E6C4F755126";
name = "Regular Oct 12 15, 17:51";
paths = (
{
closed = 1;
nodes = (
"533 419 LINE",
"447 147 OFFCURVE",
"333 -45 OFFCURVE",
"180 -269 CURVE",
"244 -342 OFFCURVE",
"405 -452 OFFCURVE",
"504 -489 CURVE",
"523 -463 OFFCURVE",
"683 -149 OFFCURVE",
"763 138 CURVE",
"556 62 LINE",
"669 14 OFFCURVE",
"848 0 OFFCURVE",
"881 0 CURVE",
"931 133 OFFCURVE",
"931 267 OFFCURVE",
"881 400 CURVE",
"873 400 OFFCURVE",
"693 400 OFFCURVE",
"552 430 CURVE"
);
},
{
closed = 1;
nodes = (
"0 0 LINE",
"89 0 OFFCURVE",
"121 11 OFFCURVE",
"180 11 CURVE SMOOTH",
"300 11 OFFCURVE",
"268 -135 OFFCURVE",
"180 -269 CURVE",
"376 -104 LINE",
"503 114 LINE",
"387 114 LINE",
"367 351 OFFCURVE",
"330 408 OFFCURVE",
"215 408 CURVE SMOOTH",
"152 408 OFFCURVE",
"103 400 OFFCURVE",
"0 400 CURVE"
);
}
);
width = 881;
}
);
unicode = FEEC;
},
{
color = 6;
glyphname = "heh-ar.init";
lastChange = "2015-11-04 16:48:43 +0000";
layers = (
{
background = {
paths = (
{
closed = 1;
nodes = (
"326 960 OFFCURVE",
"653 902 OFFCURVE",
"884 807 CURVE SMOOTH",
"1235 663 OFFCURVE",
"1245 391 OFFCURVE",
"1002 68 CURVE",
"795 -41 OFFCURVE",
"585 -14 OFFCURVE",
"341 77 CURVE SMOOTH",
"320 85 OFFCURVE",
"322 84 OFFCURVE",
"304 92 CURVE SMOOTH",
"157 157 OFFCURVE",
"48 308 OFFCURVE",
"258 597 CURVE",
"404 827 LINE",
"625 712 LINE",
"425 632 OFFCURVE",
"299 493 OFFCURVE",
"469 411 CURVE SMOOTH",
"646 325 OFFCURVE",
"1043 349 OFFCURVE",
"990 419 CURVE SMOOTH",
"952 469 OFFCURVE",
"687 533 OFFCURVE",
"258 597 CURVE",
"236 698 OFFCURVE",
"237 820 OFFCURVE",
"269 954 CURVE"
);
},
{
closed = 1;
nodes = (
"810 723 LINE",
"810 457 OFFCURVE",
"732 329 OFFCURVE",
"691 294 CURVE",
"557 70 OFFCURVE",
"258 0 OFFCURVE",
"0 0 CURVE",
"-47 133 OFFCURVE",
"-49 267 OFFCURVE",
"0 400 CURVE",
"258 401 LINE",
"288 409 OFFCURVE",
"327 464 OFFCURVE",
"350 439 CURVE SMOOTH",
"432 347 OFFCURVE",
"679 473 OFFCURVE",
"787 730 CURVE"
);
}
);
};
layerId = "5483B82D-F897-45AA-9987-2D1C58E320E8";
name = Regular;
paths = (
{
closed = 1;
nodes = (
"459 618 LINE",
"374 547 OFFCURVE",
"345 447 OFFCURVE",
"469 411 CURVE SMOOTH",
"653 357 OFFCURVE",
"995 346 OFFCURVE",
"995 407 CURVE SMOOTH",
"995 442 OFFCURVE",
"524 557 OFFCURVE",
"258 597 CURVE",
"236 698 OFFCURVE",
"237 820 OFFCURVE",
"269 954 CURVE",
"326 960 OFFCURVE",
"653 902 OFFCURVE",
"884 807 CURVE SMOOTH",
"1235 663 OFFCURVE",
"1245 391 OFFCURVE",
"1002 68 CURVE",
"795 -41 OFFCURVE",
"585 -14 OFFCURVE",
"341 77 CURVE SMOOTH",
"320 85 OFFCURVE",
"322 84 OFFCURVE",
"304 92 CURVE SMOOTH",
"157 157 OFFCURVE",
"48 308 OFFCURVE",
"258 597 CURVE",
"308 676 LINE"
);
},
{
closed = 1;
nodes = (
"800 570 LINE",
"778 406 OFFCURVE",
"723 321 OFFCURVE",
"691 294 CURVE",
"557 70 OFFCURVE",
"258 0 OFFCURVE",
"0 0 CURVE",
"-47 133 OFFCURVE",
"-49 267 OFFCURVE",
"0 400 CURVE",
"258 401 LINE",
"294 401 OFFCURVE",
"262 409 OFFCURVE",
"425 409 CURVE SMOOTH",
"505 409 OFFCURVE",
"617 474 OFFCURVE",
"704 587 CURVE"
);
}
);
width = 1228;
},
{
associatedMasterId = "5483B82D-F897-45AA-9987-2D1C58E320E8";
background = {
paths = (
{
closed = 1;
nodes = (
"346 1053 OFFCURVE",
"651 1004 OFFCURVE",
"904 903 CURVE SMOOTH",
"1085 831 OFFCURVE",
"1235 730 OFFCURVE",
"1262 605 CURVE SMOOTH",
"1294 459 OFFCURVE",
"1231 257 OFFCURVE",
"1092 72 CURVE",
"882 -37 OFFCURVE",
"570 -45 OFFCURVE",
"361 81 CURVE SMOOTH",
"339 94 OFFCURVE",
"344 85 OFFCURVE",
"324 97 CURVE SMOOTH",
"165 192 OFFCURVE",
"63 331 OFFCURVE",
"268 691 CURVE",
"590 747 LINE",
"365 704 OFFCURVE",
"372 477 OFFCURVE",
"488 412 CURVE SMOOTH",
"727 277 OFFCURVE",
"1092 353 OFFCURVE",
"1080 423 CURVE SMOOTH",
"1066 502 OFFCURVE",
"702 586 OFFCURVE",
"268 691 CURVE",
"236 806 OFFCURVE",
"225 926 OFFCURVE",
"279 1048 CURVE"
);
},
{
closed = 1;
nodes = (
"855 725 LINE",
"855 459 OFFCURVE",
"732 329 OFFCURVE",
"691 294 CURVE",
"557 70 OFFCURVE",
"258 0 OFFCURVE",
"0 0 CURVE",
"-47 133 OFFCURVE",
"-49 267 OFFCURVE",
"0 400 CURVE",
"60 400 OFFCURVE",
"152 403 OFFCURVE",
"258 413 CURVE SMOOTH",
"288 421 OFFCURVE",
"321 453 OFFCURVE",
"350 439 CURVE SMOOTH",
"432 398 OFFCURVE",
"692 507 OFFCURVE",
"787 730 CURVE"
);
}
);
};
layerId = "536DFF4D-A360-4F59-A754-652A9C66D8B6";
name = "Regular Oct 26 15, 19:53";
paths = (
{
closed = 1;
nodes = (
"346 1053 OFFCURVE",
"651 1004 OFFCURVE",
"904 903 CURVE SMOOTH",
"1085 831 OFFCURVE",
"1235 730 OFFCURVE",
"1262 605 CURVE SMOOTH",
"1294 459 OFFCURVE",
"1231 257 OFFCURVE",
"1092 72 CURVE",
"882 -37 OFFCURVE",
"570 -45 OFFCURVE",
"361 81 CURVE SMOOTH",
"339 94 OFFCURVE",
"344 85 OFFCURVE",
"324 97 CURVE SMOOTH",
"165 192 OFFCURVE",
"63 331 OFFCURVE",
"268 691 CURVE",
"590 747 LINE",
"365 704 OFFCURVE",
"372 477 OFFCURVE",
"488 412 CURVE SMOOTH",
"727 277 OFFCURVE",
"1092 353 OFFCURVE",
"1080 423 CURVE SMOOTH",
"1066 502 OFFCURVE",
"702 586 OFFCURVE",
"268 691 CURVE",
"236 806 OFFCURVE",
"225 926 OFFCURVE",
"279 1048 CURVE"
);
},
{
closed = 1;
nodes = (
"855 725 LINE",
"855 459 OFFCURVE",
"732 329 OFFCURVE",
"691 294 CURVE",
"557 70 OFFCURVE",
"258 0 OFFCURVE",
"0 0 CURVE",
"-47 133 OFFCURVE",
"-49 267 OFFCURVE",
"0 400 CURVE",
"60 400 OFFCURVE",
"152 403 OFFCURVE",
"258 413 CURVE SMOOTH",
"288 421 OFFCURVE",
"321 453 OFFCURVE",
"350 439 CURVE SMOOTH",
"432 398 OFFCURVE",
"692 507 OFFCURVE",
"787 730 CURVE"
);
}
);
width = 1315;
},
{
associatedMasterId = "5483B82D-F897-45AA-9987-2D1C58E320E8";
background = {
paths = (
{
closed = 1;
nodes = (
"326 960 OFFCURVE",
"653 902 OFFCURVE",
"884 807 CURVE SMOOTH",
"1235 663 OFFCURVE",
"1245 391 OFFCURVE",
"1002 68 CURVE",
"795 -41 OFFCURVE",
"585 -14 OFFCURVE",
"341 77 CURVE SMOOTH",
"320 85 OFFCURVE",
"322 84 OFFCURVE",
"304 92 CURVE SMOOTH",
"157 157 OFFCURVE",
"48 308 OFFCURVE",
"258 597 CURVE",
"404 827 LINE",
"506 604 LINE",
"387 571 OFFCURVE",
"320 483 OFFCURVE",
"469 411 CURVE SMOOTH",
"646 326 OFFCURVE",
"1011 349 OFFCURVE",
"958 419 CURVE SMOOTH",
"920 469 OFFCURVE",
"687 533 OFFCURVE",
"258 597 CURVE",
"226 712 OFFCURVE",
"215 832 OFFCURVE",
"269 954 CURVE"
);
},
{
closed = 1;
nodes = (
"810 723 LINE",
"810 457 OFFCURVE",
"732 329 OFFCURVE",
"691 294 CURVE",
"557 70 OFFCURVE",
"258 0 OFFCURVE",
"0 0 CURVE",
"-47 133 OFFCURVE",
"-49 267 OFFCURVE",
"0 400 CURVE",
"353 400 OFFCURVE",
"607 405 OFFCURVE",
"619 457 CURVE SMOOTH",
"627 488 OFFCURVE",
"513 583 OFFCURVE",
"258 597 CURVE"
);
}
);
};
layerId = "D3352DC3-93C1-4A45-A932-50B82C0948B0";
name = "Regular Nov 4 15, 16:39";
paths = (
{
closed = 1;
nodes = (
"326 960 OFFCURVE",
"653 902 OFFCURVE",
"884 807 CURVE SMOOTH",
"1235 663 OFFCURVE",
"1245 391 OFFCURVE",
"1002 68 CURVE",
"795 -41 OFFCURVE",
"585 -14 OFFCURVE",
"341 77 CURVE SMOOTH",
"320 85 OFFCURVE",
"322 84 OFFCURVE",
"304 92 CURVE SMOOTH",
"157 157 OFFCURVE",
"130 378 OFFCURVE",
"258 597 CURVE",
"404 827 LINE",
"487 654 LINE",
"413 573 OFFCURVE",
"343 410 OFFCURVE",
"458 389 CURVE SMOOTH",
"497 382 OFFCURVE",
"522 389 OFFCURVE",
"552 382 CURVE SMOOTH",
"577 375 OFFCURVE",
"604 370 OFFCURVE",
"631 366 CURVE SMOOTH",
"805 341 OFFCURVE",
"997 367 OFFCURVE",
"958 419 CURVE SMOOTH",
"920 469 OFFCURVE",
"687 533 OFFCURVE",
"258 597 CURVE",
"246 712 OFFCURVE",
"249 818 OFFCURVE",
"269 954 CURVE"
);
},
{
closed = 1;
nodes = (
"810 723 LINE",
"810 457 OFFCURVE",
"732 329 OFFCURVE",
"691 294 CURVE",
"557 70 OFFCURVE",
"258 0 OFFCURVE",
"0 0 CURVE",
"-47 133 OFFCURVE",
"-49 267 OFFCURVE",
"0 400 CURVE",
"353 400 OFFCURVE",
"607 405 OFFCURVE",
"619 457 CURVE SMOOTH",
"627 488 OFFCURVE",
"513 583 OFFCURVE",
"258 597 CURVE"
);
}
);
width = 1315;
}
);
unicode = FEEB;
},
{
color = 6;
glyphname = "waw-ar";
lastChange = "2015-11-04 17:13:32 +0000";
layers = (
{
background = {
paths = (
{
closed = 1;
nodes = (
"508 465 LINE",
"436 230 OFFCURVE",
"292 -99 OFFCURVE",
"135 -329 CURVE",
"199 -402 OFFCURVE",
"360 -512 OFFCURVE",
"459 -549 CURVE",
"460 -549 OFFCURVE",
"726 -104 OFFCURVE",
"806 365 CURVE"
);
}
);
};
layerId = "5483B82D-F897-45AA-9987-2D1C58E320E8";
name = Regular;
paths = (
{
closed = 1;
nodes = (
"462 354 OFFCURVE",
"333 359 OFFCURVE",
"282 400 CURVE",
"333 472 OFFCURVE",
"462 427 OFFCURVE",
"525 368 CURVE"
);
},
{
closed = 1;
nodes = (
"747 443 OFFCURVE",
"667 776 OFFCURVE",
"411 776 CURVE SMOOTH",
"174 776 OFFCURVE",
"50 492 OFFCURVE",
"50 326 CURVE SMOOTH",
"50 54 OFFCURVE",
"381 -19 OFFCURVE",
"577 35 CURVE",
"522 346 LINE",
"452 142 OFFCURVE",
"270 -164 OFFCURVE",
"135 -329 CURVE",
"199 -402 OFFCURVE",
"360 -512 OFFCURVE",
"459 -549 CURVE",
"505 -475 OFFCURVE",
"747 -58 OFFCURVE",
"747 260 CURVE SMOOTH"
);
}
);
width = 788;
}
);
unicode = 0648;
},
{
color = 6;
glyphname = "waw-ar.fina";
lastChange = "2015-11-04 17:13:36 +0000";
layers = (
{
guideLines = (
{
position = "{1260, -547}";
}
);
layerId = "5483B82D-F897-45AA-9987-2D1C58E320E8";
name = Regular;
paths = (
{
closed = 1;
nodes = (
"568 63 LINE",
"660 0 OFFCURVE",
"757 0 OFFCURVE",
"802 0 CURVE",
"852 133 OFFCURVE",
"852 267 OFFCURVE",
"802 400 CURVE",
"726 400 OFFCURVE",
"622 418 OFFCURVE",
"554 436 CURVE"
);
},
{
closed = 1;
nodes = (
"747 443 OFFCURVE",
"667 776 OFFCURVE",
"411 776 CURVE SMOOTH",
"174 776 OFFCURVE",
"50 492 OFFCURVE",
"50 326 CURVE SMOOTH",
"50 54 OFFCURVE",
"381 -19 OFFCURVE",
"577 35 CURVE",
"522 346 LINE",
"452 142 OFFCURVE",
"270 -164 OFFCURVE",
"135 -329 CURVE",
"199 -402 OFFCURVE",
"360 -512 OFFCURVE",
"459 -549 CURVE",
"505 -475 OFFCURVE",
"747 -58 OFFCURVE",
"747 260 CURVE SMOOTH"
);
},
{
closed = 1;
nodes = (
"461 354 OFFCURVE",
"332 359 OFFCURVE",
"281 400 CURVE",
"332 472 OFFCURVE",
"461 427 OFFCURVE",
"524 368 CURVE"
);
}
);
width = 802;
},
{
associatedMasterId = "5483B82D-F897-45AA-9987-2D1C58E320E8";
guideLines = (
{
position = "{1281, -547}";
}
);
layerId = "9E3A56DD-AF09-4E65-897A-581E1C648034";
name = "Regular Oct 5 15, 15:57";
paths = (
{
closed = 1;
nodes = (
"612 9 LINE",
"698 2 OFFCURVE",
"792 0 OFFCURVE",
"873 0 CURVE",
"923 133 OFFCURVE",
"923 267 OFFCURVE",
"873 400 CURVE",
"781 400 OFFCURVE",
"696 392 OFFCURVE",
"579 408 CURVE"
);
},
{
closed = 1;
nodes = (
"306 335 OFFCURVE",
"331 415 CURVE SMOOTH",
"349 473 OFFCURVE",
"464 412 OFFCURVE",
"464 373 CURVE SMOOTH",
"464 336 OFFCURVE"
);
},
{
closed = 1;
nodes = (
"742 441 OFFCURVE",
"667 776 OFFCURVE",
"410 776 CURVE SMOOTH",
"185 776 OFFCURVE",
"50 523 OFFCURVE",
"50 296 CURVE SMOOTH",
"50 83 OFFCURVE",
"374 -26 OFFCURVE",
"577 35 CURVE",
"473 277 LINE",
"389 24 OFFCURVE",
"212 -236 OFFCURVE",
"75 -429 CURVE",
"139 -502 OFFCURVE",
"300 -612 OFFCURVE",
"399 -649 CURVE",
"401 -649 OFFCURVE",
"742 -104 OFFCURVE",
"742 267 CURVE SMOOTH"
);
}
);
width = 873;
}
);
unicode = FEEE;
},
{
color = 6;
glyphname = "alefMaksura-ar";
lastChange = "2015-11-03 12:03:34 +0000";
layers = (
{
background = {
paths = (
{
closed = 1;
nodes = (
"981 924 OFFCURVE",
"700 618 OFFCURVE",
"700 384 CURVE SMOOTH",
"700 301 OFFCURVE",
"858 211 OFFCURVE",
"1069 114 CURVE",
"1195 0 LINE",
"1132 370 LINE",
"1016 123 OFFCURVE",
"743 23 OFFCURVE",
"612 23 CURVE SMOOTH",
"466 23 OFFCURVE",
"402 119 OFFCURVE",
"402 267 CURVE SMOOTH",
"402 365 OFFCURVE",
"430 485 OFFCURVE",
"481 615 CURVE",
"185 710 LINE",
"99 504 OFFCURVE",
"51 306 OFFCURVE",
"51 137 CURVE SMOOTH",
"51 -157 OFFCURVE",
"195 -362 OFFCURVE",
"531 -362 CURVE SMOOTH",
"965 -362 OFFCURVE",
"1311 -69 OFFCURVE",
"1311 264 CURVE SMOOTH",
"1311 435 OFFCURVE",
"882 563 OFFCURVE",
"821 588 CURVE",
"924 277 LINE",
"924 445 OFFCURVE",
"999 544 OFFCURVE",
"1368 625 CURVE",
"1414 697 OFFCURVE",
"1434 896 OFFCURVE",
"1384 998 CURVE"
);
}
);
};
layerId = "5483B82D-F897-45AA-9987-2D1C58E320E8";
name = Regular;
paths = (
{
closed = 1;
nodes = (
"981 924 OFFCURVE",
"696 609 OFFCURVE",
"696 337 CURVE",
"718 273 OFFCURVE",
"858 211 OFFCURVE",
"1069 114 CURVE",
"1050 244 LINE",
"917 88 OFFCURVE",
"718 23 OFFCURVE",
"612 23 CURVE SMOOTH",
"466 23 OFFCURVE",
"402 119 OFFCURVE",
"402 267 CURVE SMOOTH",
"402 365 OFFCURVE",
"430 485 OFFCURVE",
"481 615 CURVE",
"185 710 LINE",
"99 504 OFFCURVE",
"51 306 OFFCURVE",
"51 137 CURVE SMOOTH",
"51 -157 OFFCURVE",
"195 -362 OFFCURVE",
"531 -362 CURVE SMOOTH",
"965 -362 OFFCURVE",
"1311 -69 OFFCURVE",
"1311 264 CURVE SMOOTH",
"1311 435 OFFCURVE",
"882 563 OFFCURVE",
"821 588 CURVE",
"955 421 LINE",
"1004 508 OFFCURVE",
"1119 570 OFFCURVE",
"1368 625 CURVE",
"1414 697 OFFCURVE",
"1434 896 OFFCURVE",
"1384 998 CURVE"
);
}
);
width = 1506;
}
);
unicode = 0649;
},
{
color = 6;
glyphname = "alefMaksura-ar.fina";
lastChange = "2015-11-03 12:04:37 +0000";
layers = (
{
background = {
paths = (
{
closed = 1;
nodes = (
"928 240 OFFCURVE",
"963 19 OFFCURVE",
"963 -347 CURVE",
"1171 -30 LINE",
"999 -110 OFFCURVE",
"754 -146 OFFCURVE",
"650 -146 CURVE SMOOTH",
"475 -146 OFFCURVE",
"400 -71 OFFCURVE",
"400 73 CURVE SMOOTH",
"400 162 OFFCURVE",
"428 276 OFFCURVE",
"478 415 CURVE",
"182 510 LINE",
"94 293 OFFCURVE",
"46 102 OFFCURVE",
"46 -55 CURVE SMOOTH",
"46 -361 OFFCURVE",
"226 -542 OFFCURVE",
"641 -542 CURVE SMOOTH",
"788 -542 OFFCURVE",
"964 -514 OFFCURVE",
"1173 -451 CURVE",
"1342 -215 OFFCURVE",
"1339 147 OFFCURVE",
"1245 544 CURVE",
"899 473 LINE"
);
}
);
};
layerId = "5483B82D-F897-45AA-9987-2D1C58E320E8";
name = Regular;
paths = (
{
closed = 1;
nodes = (
"698 175 LINE",
"933 72 OFFCURVE",
"1130 -139 OFFCURVE",
"1204 -268 CURVE",
"1269 -39 LINE",
"1059 -15 LINE",
"659 -239 OFFCURVE",
"394 -235 OFFCURVE",
"394 38 CURVE SMOOTH",
"394 130 OFFCURVE",
"424 260 OFFCURVE",
"478 415 CURVE",
"182 510 LINE",
"87 279 OFFCURVE",
"44 71 OFFCURVE",
"44 -78 CURVE SMOOTH",
"44 -415 OFFCURVE",
"264 -563 OFFCURVE",
"545 -563 CURVE SMOOTH",
"809 -563 OFFCURVE",
"1084 -432 OFFCURVE",
"1287 -260 CURVE",
"1322 -74 OFFCURVE",
"1305 233 OFFCURVE",
"1255 342 CURVE",
"1025 181 LINE",
"1138 74 OFFCURVE",
"1319 0 OFFCURVE",
"1449 0 CURVE",
"1499 133 OFFCURVE",
"1499 267 OFFCURVE",
"1449 400 CURVE",
"1343 400 OFFCURVE",
"1004 410 OFFCURVE",
"803 460 CURVE"
);
},
{
closed = 1;
nodes = (
"1360 57 LINE",
"1282 94 LINE",
"1282 -9 LINE"
);
}
);
width = 1449;
}
);
unicode = FEF0;
},
{
color = 6;
glyphname = "yeh-ar.medi";
lastChange = "2015-10-26 20:09:21 +0000";
layers = (
{
components = (
{
name = "dot-two";
transform = "{1, 0, 0, 1, -36, -300}";
}
);
layerId = "5483B82D-F897-45AA-9987-2D1C58E320E8";
name = Regular;
paths = (
{
closed = 1;
nodes = (
"521 149 LINE",
"610 23 OFFCURVE",
"726 0 OFFCURVE",
"830 0 CURVE",
"880 133 OFFCURVE",
"880 267 OFFCURVE",
"830 400 CURVE",
"670 400 OFFCURVE",
"618 467 OFFCURVE",
"553 579 CURVE",
"535 581 LINE",
"424 477 OFFCURVE",
"234 400 OFFCURVE",
"0 400 CURVE",
"-50 267 OFFCURVE",
"-50 133 OFFCURVE",
"0 0 CURVE",
"184 0 OFFCURVE",
"331 12 OFFCURVE",
"502 149 CURVE"
);
}
);
width = 830;
}
);
unicode = FEF4;
},
{
color = 6;
glyphname = "yeh-ar.init";
lastChange = "2015-10-26 20:09:21 +0000";
layers = (
{
components = (
{
name = "dot-two";
transform = "{1, 0, 0, 1, -138, -304}";
}
);
layerId = "5483B82D-F897-45AA-9987-2D1C58E320E8";
name = Regular;
paths = (
{
closed = 1;
nodes = (
"-50 133 OFFCURVE",
"-50 266 OFFCURVE",
"0 400 CURVE",
"223 401 OFFCURVE",
"340 415 OFFCURVE",
"387 443 CURVE",
"355 234 LINE",
"355 381 OFFCURVE",
"290 553 OFFCURVE",
"256 654 CURVE",
"600 734 LINE",
"666 528 OFFCURVE",
"650 218 OFFCURVE",
"551 63 CURVE",
"439 31 OFFCURVE",
"274 3 OFFCURVE",
"0 0 CURVE"
);
}
);
width = 690;
}
);
unicode = FEF3;
},
{
color = 4;
glyphname = "kashida-ar";
lastChange = "2015-10-26 20:09:38 +0000";
layers = (
{
layerId = "5483B82D-F897-45AA-9987-2D1C58E320E8";
name = Regular;
paths = (
{
closed = 1;
nodes = (
"-30 267 OFFCURVE",
"-30 133 OFFCURVE",
"0 0 CURVE",
"400 0 LINE",
"430 133 OFFCURVE",
"430 267 OFFCURVE",
"400 400 CURVE",
"0 400 LINE"
);
}
);
width = 400;
}
);
unicode = 0640;
},
{
color = 9;
glyphname = "lam_alef-ar";
lastChange = "2015-10-26 20:09:31 +0000";
layers = (
{
background = {
paths = (
{
closed = 1;
nodes = (
"850 62 LINE",
"799 262 OFFCURVE",
"677 436 OFFCURVE",
"471 517 CURVE",
"335 595 OFFCURVE",
"183 682 OFFCURVE",
"50 761 CURVE",
"205 1110 LINE",
"345 1041 OFFCURVE",
"537 898 OFFCURVE",
"683 747 CURVE SMOOTH",
"693 736 OFFCURVE",
"703 726 OFFCURVE",
"713 715 CURVE SMOOTH",
"801 618 OFFCURVE",
"868 520 OFFCURVE",
"891 437 CURVE SMOOTH",
"921 325 OFFCURVE",
"918 161 OFFCURVE",
"860 52 CURVE"
);
},
{
closed = 1;
nodes = (
"781 23 OFFCURVE",
"532 0 OFFCURVE",
"196 0 CURVE",
"147 84 OFFCURVE",
"85 277 OFFCURVE",
"85 380 CURVE",
"164 370 OFFCURVE",
"274 389 OFFCURVE",
"352 388 CURVE",
"529 355 OFFCURVE",
"779 402 OFFCURVE",
"871 448 CURVE",
"850 372 OFFCURVE",
"928 175 OFFCURVE",
"860 52 CURVE"
);
},
{
closed = 1;
nodes = (
"289 570 OFFCURVE",
"527 651 OFFCURVE",
"608 701 CURVE",
"616 800 OFFCURVE",
"596 986 OFFCURVE",
"573 1194 CURVE",
"919 1213 LINE",
"941 800 OFFCURVE",
"899 704 OFFCURVE",
"762 563 CURVE",
"643 523 OFFCURVE",
"333 394 OFFCURVE",
"154 216 CURVE",
"85 380 LINE"
);
}
);
};
layerId = "5483B82D-F897-45AA-9987-2D1C58E320E8";
name = Regular;
paths = (
{
closed = 1;
nodes = (
"850 62 LINE",
"799 262 OFFCURVE",
"677 436 OFFCURVE",
"471 517 CURVE",
"335 595 OFFCURVE",
"183 682 OFFCURVE",
"50 761 CURVE",
"205 1110 LINE",
"345 1041 OFFCURVE",
"537 898 OFFCURVE",
"683 747 CURVE SMOOTH",
"693 736 OFFCURVE",
"703 726 OFFCURVE",
"713 715 CURVE SMOOTH",
"801 618 OFFCURVE",
"868 520 OFFCURVE",
"891 437 CURVE SMOOTH",
"921 325 OFFCURVE",
"918 161 OFFCURVE",
"860 52 CURVE"
);
},
{
closed = 1;
nodes = (
"781 23 OFFCURVE",
"532 0 OFFCURVE",
"196 0 CURVE",
"147 84 OFFCURVE",
"85 277 OFFCURVE",
"85 380 CURVE",
"164 370 OFFCURVE",
"274 389 OFFCURVE",
"352 388 CURVE",
"547 386 OFFCURVE",
"779 402 OFFCURVE",
"871 448 CURVE",
"850 372 OFFCURVE",
"928 175 OFFCURVE",
"860 52 CURVE"
);
},
{
closed = 1;
nodes = (
"289 570 OFFCURVE",
"527 651 OFFCURVE",
"608 701 CURVE",
"616 800 OFFCURVE",
"596 986 OFFCURVE",
"573 1194 CURVE",
"919 1213 LINE",
"941 800 OFFCURVE",
"899 704 OFFCURVE",
"762 563 CURVE",
"643 523 OFFCURVE",
"509 503 OFFCURVE",
"330 325 CURVE",
"85 380 LINE"
);
}
);
width = 975;
}
);
unicode = FEFB;
},
{
color = 9;
glyphname = "lam_alef-ar.fina";
lastChange = "2015-10-26 20:09:31 +0000";
layers = (
{
background = {
paths = (
{
closed = 1;
nodes = (
"764 114 LINE",
"767 167 OFFCURVE",
"725 123 OFFCURVE",
"726 184 CURVE SMOOTH",
"732 449 OFFCURVE",
"694 816 OFFCURVE",
"656 1134 CURVE",
"1002 1153 LINE",
"1021 910 OFFCURVE",
"1030 663 OFFCURVE",
"1031 442 CURVE SMOOTH",
"1032 298 OFFCURVE",
"908 342 OFFCURVE",
"902 229 CURVE",
"837 193 OFFCURVE",
"909 85 OFFCURVE",
"792 84 CURVE"
);
},
{
closed = 1;
nodes = (
"200 84 OFFCURVE",
"135 248 OFFCURVE",
"128 400 CURVE",
"514 400 OFFCURVE",
"802 405 OFFCURVE",
"889 432 CURVE",
"747 190 LINE",
"758 337 OFFCURVE",
"832 546 OFFCURVE",
"805 627 CURVE",
"992 723 LINE",
"1045 535 OFFCURVE",
"1058 259 OFFCURVE",
"943 52 CURVE",
"854 23 OFFCURVE",
"629 0 OFFCURVE",
"249 0 CURVE"
);
},
{
closed = 1;
nodes = (
"250 373 LINE",
"216 585 OFFCURVE",
"138 809 OFFCURVE",
"40 1000 CURVE",
"371 1159 LINE",
"464 964 OFFCURVE",
"512 694 OFFCURVE",
"527 575 CURVE",
"457 477 OFFCURVE",
"318 388 OFFCURVE",
"260 363 CURVE"
);
}
);
};
layerId = "5483B82D-F897-45AA-9987-2D1C58E320E8";
name = Regular;
paths = (
{
closed = 1;
nodes = (
"764 114 LINE",
"767 167 OFFCURVE",
"725 123 OFFCURVE",
"726 184 CURVE SMOOTH",
"732 449 OFFCURVE",
"694 816 OFFCURVE",
"656 1194 CURVE",
"1002 1213 LINE",
"1021 910 OFFCURVE",
"1031 663 OFFCURVE",
"1031 442 CURVE SMOOTH",
"1031 174 OFFCURVE",
"908 342 OFFCURVE",
"902 229 CURVE",
"837 193 OFFCURVE",
"909 85 OFFCURVE",
"792 84 CURVE"
);
},
{
closed = 1;
nodes = (
"200 84 OFFCURVE",
"135 248 OFFCURVE",
"128 400 CURVE",
"510 400 OFFCURVE",
"802 405 OFFCURVE",
"889 432 CURVE",
"747 190 LINE",
"758 337 OFFCURVE",
"832 546 OFFCURVE",
"805 627 CURVE",
"992 723 LINE",
"1045 535 OFFCURVE",
"1042 199 OFFCURVE",
"912 90 CURVE SMOOTH",
"805 0 OFFCURVE",
"628 0 OFFCURVE",
"249 0 CURVE"
);
},
{
closed = 1;
nodes = (
"250 373 LINE",
"216 585 OFFCURVE",
"138 809 OFFCURVE",
"40 1060 CURVE",
"371 1219 LINE",
"464 964 OFFCURVE",
"512 694 OFFCURVE",
"527 575 CURVE",
"457 477 OFFCURVE",
"318 388 OFFCURVE",
"260 363 CURVE"
);
},
{
closed = 1;
nodes = (
"1153 267 OFFCURVE",
"1153 133 OFFCURVE",
"1103 0 CURVE",
"1029 0 OFFCURVE",
"1029 0 OFFCURVE",
"891 184 CURVE",
"891 400 LINE",
"1103 400 LINE"
);
}
);
width = 1103;
}
);
unicode = FEFC;
},
{
color = 9;
glyphname = "lam_alefMadda-ar";
lastChange = "2015-11-03 16:23:09 +0000";
layers = (
{
components = (
{
name = "lam_alef-ar";
}
);
layerId = "5483B82D-F897-45AA-9987-2D1C58E320E8";
name = Regular;
paths = (
{
closed = 1;
nodes = (
"-7 1438 OFFCURVE",
"28 1481 OFFCURVE",
"140 1481 CURVE SMOOTH",
"260 1481 OFFCURVE",
"349 1432 OFFCURVE",
"516 1513 CURVE",
"583 1317 LINE",
"516 1257 OFFCURVE",
"467 1209 OFFCURVE",
"331 1209 CURVE SMOOTH",
"169 1209 OFFCURVE",
"125 1263 OFFCURVE",
"2 1172 CURVE",
"-90 1350 LINE"
);
}
);
width = 975;
}
);
leftMetricsKey = "lam_alef-ar";
rightMetricsKey = "lam_alef-ar";
unicode = FEF5;
},
{
color = 9;
glyphname = "lam_alefMadda-ar.fina";
lastChange = "2015-10-26 20:09:31 +0000";
layers = (
{
components = (
{
name = "lam_alef-ar.fina";
}
);
layerId = "5483B82D-F897-45AA-9987-2D1C58E320E8";
name = Regular;
paths = (
{
closed = 1;
nodes = (
"43 1538 OFFCURVE",
"78 1581 OFFCURVE",
"190 1581 CURVE SMOOTH",
"310 1581 OFFCURVE",
"399 1532 OFFCURVE",
"566 1613 CURVE",
"633 1417 LINE",
"566 1357 OFFCURVE",
"517 1309 OFFCURVE",
"381 1309 CURVE SMOOTH",
"219 1309 OFFCURVE",
"175 1363 OFFCURVE",
"52 1272 CURVE",
"-40 1450 LINE"
);
}
);
width = 1103;
}
);
leftMetricsKey = "lam_alef-ar.fina";
rightMetricsKey = "lam_alef-ar.fina";
unicode = FEF6;
},
{
color = 9;
glyphname = "beh_reh-ar.fina";
lastChange = "2015-10-26 20:09:31 +0000";
layers = (
{
components = (
{
name = "dot-one";
transform = "{1, 0, 0, 1, 523, -276}";
}
);
layerId = "5483B82D-F897-45AA-9987-2D1C58E320E8";
name = Regular;
paths = (
{
closed = 1;
nodes = (
"1083 400 OFFCURVE",
"1034 489 OFFCURVE",
"974 639 CURVE",
"739 556 OFFCURVE",
"513 522 OFFCURVE",
"295 539 CURVE",
"192 195 OFFCURVE",
"55 -48 OFFCURVE",
"-130 -329 CURVE",
"-66 -402 OFFCURVE",
"95 -512 OFFCURVE",
"194 -549 CURVE",
"216 -521 OFFCURVE",
"451 -88 OFFCURVE",
"533 294 CURVE",
"374 179 LINE",
"557 154 OFFCURVE",
"748 180 OFFCURVE",
"948 255 CURVE",
"902 299 LINE",
"953 118 OFFCURVE",
"1050 0 OFFCURVE",
"1231 0 CURVE",
"1281 133 OFFCURVE",
"1281 267 OFFCURVE",
"1231 400 CURVE"
);
}
);
width = 1231;
}
);
rightMetricsKey = "reh-ar.fina";
unicode = FC6A;
},
{
color = 9;
glyphname = "beh_zain-ar.fina";
lastChange = "2015-10-26 20:09:31 +0000";
layers = (
{
components = (
{
name = "dot-one";
transform = "{1, 0, 0, 1, 533, -276}";
},
{
name = "dot-one";
transform = "{1, 0, 0, 1, 60, 950}";
}
);
layerId = "5483B82D-F897-45AA-9987-2D1C58E320E8";
name = Regular;
paths = (
{
closed = 1;
nodes = (
"1083 400 OFFCURVE",
"1034 489 OFFCURVE",
"974 639 CURVE",
"739 556 OFFCURVE",
"513 522 OFFCURVE",
"295 539 CURVE",
"192 195 OFFCURVE",
"55 -48 OFFCURVE",
"-130 -329 CURVE",
"-66 -402 OFFCURVE",
"95 -512 OFFCURVE",
"194 -549 CURVE",
"216 -521 OFFCURVE",
"451 -88 OFFCURVE",
"533 294 CURVE",
"374 179 LINE",
"557 154 OFFCURVE",
"748 180 OFFCURVE",
"948 255 CURVE",
"902 299 LINE",
"953 118 OFFCURVE",
"1050 0 OFFCURVE",
"1231 0 CURVE",
"1281 133 OFFCURVE",
"1281 267 OFFCURVE",
"1231 400 CURVE"
);
}
);
width = 1231;
}
);
leftMetricsKey = "beh-ar.medi";
unicode = FC6B;
},
{
color = 9;
glyphname = "beh_meem-ar.001";
lastChange = "2015-10-26 20:09:31 +0000";
layers = (
{
background = {
paths = (
{
closed = 1;
nodes = (
"78 223 OFFCURVE",
"174 369 OFFCURVE",
"259 394 CURVE",
"561 381 OFFCURVE",
"777 266 OFFCURVE",
"970 173 CURVE",
"935 32 OFFCURVE",
"824 -86 OFFCURVE",
"761 -124 CURVE",
"644 -61 OFFCURVE",
"434 9 OFFCURVE",
"276 9 CURVE",
"384 223 LINE",
"365 -48 OFFCURVE",
"409 -379 OFFCURVE",
"455 -561 CURVE",
"390 -597 OFFCURVE",
"232 -619 OFFCURVE",
"115 -620 CURVE",
"105 -610 LINE",
"59 -392 OFFCURVE",
"36 -107 OFFCURVE",
"59 132 CURVE"
);
},
{
closed = 1;
nodes = (
"409 486 OFFCURVE",
"659 791 OFFCURVE",
"1171 886 CURVE",
"1221 781 OFFCURVE",
"1252 666 OFFCURVE",
"1262 541 CURVE",
"1046 493 OFFCURVE",
"630 365 OFFCURVE",
"970 173 CURVE",
"630 11 LINE"
);
}
);
};
layerId = "5483B82D-F897-45AA-9987-2D1C58E320E8";
name = Regular;
paths = (
{
closed = 1;
nodes = (
"78 223 OFFCURVE",
"174 369 OFFCURVE",
"259 394 CURVE",
"561 381 OFFCURVE",
"767 316 OFFCURVE",
"1030 143 CURVE",
"1015 62 OFFCURVE",
"904 -103 OFFCURVE",
"841 -154 CURVE",
"741 -154 OFFCURVE",
"683 -83 OFFCURVE",
"608 -16 CURVE",
"493 14 OFFCURVE",
"385 31 OFFCURVE",
"276 39 CURVE",
"384 223 LINE",
"365 -48 OFFCURVE",
"409 -379 OFFCURVE",
"455 -561 CURVE",
"390 -597 OFFCURVE",
"232 -619 OFFCURVE",
"115 -620 CURVE",
"105 -610 LINE",
"59 -392 OFFCURVE",
"36 -107 OFFCURVE",
"59 132 CURVE"
);
},
{
closed = 1;
nodes = (
"409 486 OFFCURVE",
"659 791 OFFCURVE",
"1171 886 CURVE",
"1221 781 OFFCURVE",
"1252 666 OFFCURVE",
"1262 541 CURVE",
"1046 493 OFFCURVE",
"630 365 OFFCURVE",
"1030 143 CURVE",
"630 11 LINE"
);
}
);
width = 1312;
}
);
},
{
color = 9;
glyphname = "beh_meem-ar.fina";
lastChange = "2015-10-26 20:09:31 +0000";
layers = (
{
background = {
paths = (
{
closed = 1;
nodes = (
"78 223 OFFCURVE",
"174 369 OFFCURVE",
"259 394 CURVE",
"442 386 OFFCURVE",
"590 359 OFFCURVE",
"737 300 CURVE SMOOTH",
"832 262 OFFCURVE",
"845 166 OFFCURVE",
"1030 143 CURVE",
"1015 62 OFFCURVE",
"904 -103 OFFCURVE",
"841 -154 CURVE",
"741 -154 OFFCURVE",
"646 -33 OFFCURVE",
"608 -16 CURVE",
"493 14 OFFCURVE",
"385 31 OFFCURVE",
"276 39 CURVE",
"384 223 LINE",
"365 -48 OFFCURVE",
"409 -379 OFFCURVE",
"455 -561 CURVE",
"390 -597 OFFCURVE",
"232 -619 OFFCURVE",
"115 -620 CURVE",
"105 -610 LINE",
"59 -392 OFFCURVE",
"36 -107 OFFCURVE",
"59 132 CURVE"
);
},
{
closed = 1;
nodes = (
"1289 400 OFFCURVE",
"1643 400 CURVE",
"1643 0 LINE",
"1226 0 OFFCURVE",
"1306 373 OFFCURVE",
"995 426 CURVE SMOOTH",
"981 429 OFFCURVE",
"969 430 OFFCURVE",
"957 430 CURVE SMOOTH",
"884 430 OFFCURVE",
"840 386 OFFCURVE",
"830 337 CURVE SMOOTH",
"809 245 OFFCURVE",
"898 191 OFFCURVE",
"1030 143 CURVE",
"630 11 LINE",
"444 412 OFFCURVE",
"690 804 OFFCURVE",
"995 804 CURVE SMOOTH",
"1340 804 OFFCURVE"
);
}
);
};
components = (
{
name = "beh_meem-ar.fina.001";
},
{
name = "dot-one";
transform = "{1, 0, 0, 1, 860, -300}";
}
);
layerId = "5483B82D-F897-45AA-9987-2D1C58E320E8";
name = Regular;
width = 1643;
}
);
leftMetricsKey = "beh-ar.medi";
unicode = FC6C;
},
{
color = 9;
glyphname = "beh_meem-ar.fina.001";
lastChange = "2015-10-26 20:09:31 +0000";
layers = (
{
background = {
paths = (
{
closed = 1;
nodes = (
"78 223 OFFCURVE",
"174 369 OFFCURVE",
"259 394 CURVE",
"442 386 OFFCURVE",
"590 359 OFFCURVE",
"737 300 CURVE SMOOTH",
"832 262 OFFCURVE",
"845 166 OFFCURVE",
"1030 143 CURVE",
"1015 62 OFFCURVE",
"904 -103 OFFCURVE",
"841 -154 CURVE",
"741 -154 OFFCURVE",
"646 -33 OFFCURVE",
"608 -16 CURVE",
"493 14 OFFCURVE",
"385 31 OFFCURVE",
"276 39 CURVE",
"384 223 LINE",
"365 -48 OFFCURVE",
"409 -379 OFFCURVE",
"455 -561 CURVE",
"390 -597 OFFCURVE",
"232 -619 OFFCURVE",
"115 -620 CURVE",
"105 -610 LINE",
"59 -392 OFFCURVE",
"36 -107 OFFCURVE",
"59 132 CURVE"
);
},
{
closed = 1;
nodes = (
"1289 400 OFFCURVE",
"1643 400 CURVE",
"1643 0 LINE",
"1226 0 OFFCURVE",
"1306 373 OFFCURVE",
"995 426 CURVE SMOOTH",
"981 429 OFFCURVE",
"969 430 OFFCURVE",
"957 430 CURVE SMOOTH",
"884 430 OFFCURVE",
"840 386 OFFCURVE",
"830 337 CURVE SMOOTH",
"809 245 OFFCURVE",
"898 191 OFFCURVE",
"1030 143 CURVE",
"630 11 LINE",
"444 412 OFFCURVE",
"690 804 OFFCURVE",
"995 804 CURVE SMOOTH",
"1340 804 OFFCURVE"
);
}
);
};
layerId = "5483B82D-F897-45AA-9987-2D1C58E320E8";
name = Regular;
paths = (
{
closed = 1;
nodes = (
"78 223 OFFCURVE",
"174 369 OFFCURVE",
"259 394 CURVE",
"442 386 OFFCURVE",
"590 359 OFFCURVE",
"737 300 CURVE SMOOTH",
"832 262 OFFCURVE",
"845 166 OFFCURVE",
"1030 143 CURVE",
"1015 62 OFFCURVE",
"904 -103 OFFCURVE",
"841 -154 CURVE",
"741 -154 OFFCURVE",
"646 -33 OFFCURVE",
"608 -16 CURVE",
"493 14 OFFCURVE",
"385 31 OFFCURVE",
"276 39 CURVE",
"384 223 LINE",
"365 -48 OFFCURVE",
"409 -379 OFFCURVE",
"455 -561 CURVE",
"390 -597 OFFCURVE",
"232 -619 OFFCURVE",
"115 -620 CURVE",
"105 -610 LINE",
"59 -392 OFFCURVE",
"36 -107 OFFCURVE",
"59 132 CURVE"
);
},
{
closed = 1;
nodes = (
"1293 400 OFFCURVE",
"1643 400 CURVE",
"1693 267 OFFCURVE",
"1693 133 OFFCURVE",
"1643 0 CURVE",
"1214 0 OFFCURVE",
"1284 420 OFFCURVE",
"973 420 CURVE SMOOTH",
"889 420 OFFCURVE",
"855 383 OFFCURVE",
"850 337 CURVE SMOOTH",
"839 242 OFFCURVE",
"949 196 OFFCURVE",
"1030 143 CURVE",
"630 11 LINE",
"445 415 OFFCURVE",
"685 804 OFFCURVE",
"1004 804 CURVE SMOOTH",
"1330 804 OFFCURVE"
);
}
);
width = 1643;
}
);
leftMetricsKey = "beh-ar.medi";
},
{
color = 9;
glyphname = "beh_meem-ar.medi.001";
lastChange = "2015-10-26 20:09:31 +0000";
layers = (
{
background = {
paths = (
{
closed = 1;
nodes = (
"-30 133 OFFCURVE",
"-30 267 OFFCURVE",
"0 400 CURVE",
"288 400 OFFCURVE",
"482 314 OFFCURVE",
"771 143 CURVE",
"756 62 OFFCURVE",
"645 -103 OFFCURVE",
"582 -154 CURVE",
"482 -154 OFFCURVE",
"387 -17 OFFCURVE",
"349 0 CURVE",
"291 35 OFFCURVE",
"131 0 OFFCURVE",
"0 0 CURVE"
);
},
{
closed = 1;
nodes = (
"1071 804 OFFCURVE",
"1034 400 OFFCURVE",
"1384 400 CURVE",
"1434 267 OFFCURVE",
"1434 133 OFFCURVE",
"1384 0 CURVE",
"955 0 OFFCURVE",
"1025 420 OFFCURVE",
"714 420 CURVE SMOOTH",
"630 420 OFFCURVE",
"596 383 OFFCURVE",
"591 337 CURVE SMOOTH",
"580 242 OFFCURVE",
"690 196 OFFCURVE",
"771 143 CURVE",
"371 11 LINE",
"186 415 OFFCURVE",
"426 804 OFFCURVE",
"745 804 CURVE SMOOTH"
);
}
);
};
layerId = "5483B82D-F897-45AA-9987-2D1C58E320E8";
name = Regular;
paths = (
{
closed = 1;
nodes = (
"-30 133 OFFCURVE",
"-30 267 OFFCURVE",
"0 400 CURVE",
"145 400 OFFCURVE",
"296 392 OFFCURVE",
"418 348 CURVE",
"427 320 LINE",
"494 255 OFFCURVE",
"562 172 OFFCURVE",
"771 143 CURVE",
"756 62 OFFCURVE",
"645 -103 OFFCURVE",
"582 -154 CURVE",
"482 -154 OFFCURVE",
"387 -17 OFFCURVE",
"349 0 CURVE",
"291 35 OFFCURVE",
"131 0 OFFCURVE",
"0 0 CURVE"
);
},
{
closed = 1;
nodes = (
"1052 824 OFFCURVE",
"1034 400 OFFCURVE",
"1384 400 CURVE",
"1434 267 OFFCURVE",
"1434 133 OFFCURVE",
"1384 0 CURVE",
"957 0 OFFCURVE",
"991 440 OFFCURVE",
"718 440 CURVE SMOOTH",
"562 440 OFFCURVE",
"494 255 OFFCURVE",
"771 143 CURVE",
"449 22 LINE",
"131 417 OFFCURVE",
"426 824 OFFCURVE",
"744 824 CURVE SMOOTH"
);
}
);
width = 1384;
}
);
},
{
color = 9;
glyphname = "beh_meem-ar.init.001";
lastChange = "2015-10-26 20:09:31 +0000";
layers = (
{
layerId = "5483B82D-F897-45AA-9987-2D1C58E320E8";
name = Regular;
paths = (
{
closed = 1;
nodes = (
"149 486 OFFCURVE",
"399 791 OFFCURVE",
"911 886 CURVE",
"961 781 OFFCURVE",
"992 666 OFFCURVE",
"1002 541 CURVE",
"786 493 OFFCURVE",
"370 365 OFFCURVE",
"770 143 CURVE",
"370 11 LINE"
);
},
{
closed = 1;
nodes = (
"-30 133 OFFCURVE",
"-30 267 OFFCURVE",
"0 400 CURVE",
"288 400 OFFCURVE",
"482 314 OFFCURVE",
"771 143 CURVE",
"756 62 OFFCURVE",
"645 -103 OFFCURVE",
"582 -154 CURVE",
"482 -154 OFFCURVE",
"387 -17 OFFCURVE",
"349 0 CURVE",
"291 35 OFFCURVE",
"131 0 OFFCURVE",
"0 0 CURVE"
);
}
);
width = 1052;
}
);
},
{
color = 9;
glyphname = "beh_alefMaksura-ar.fina";
lastChange = "2015-10-26 20:09:31 +0000";
layers = (
{
background = {
paths = (
{
closed = 1;
nodes = (
"1763 383 LINE",
"1519 383 OFFCURVE",
"1542 761 OFFCURVE",
"1288 761 CURVE SMOOTH",
"1034 761 OFFCURVE",
"698 422 OFFCURVE",
"698 249 CURVE SMOOTH",
"698 39 OFFCURVE",
"1069 -44 OFFCURVE",
"1179 -201 CURVE",
"1059 -15 LINE",
"669 -242 OFFCURVE",
"420 -228 OFFCURVE",
"420 33 CURVE SMOOTH",
"420 132 OFFCURVE",
"441 260 OFFCURVE",
"478 415 CURVE",
"182 510 LINE",
"94 285 OFFCURVE",
"50 83 OFFCURVE",
"50 -86 CURVE SMOOTH",
"50 -412 OFFCURVE",
"267 -563 OFFCURVE",
"549 -563 CURVE SMOOTH",
"807 -563 OFFCURVE",
"1067 -431 OFFCURVE",
"1230 -303 CURVE",
"1321 -109 OFFCURVE",
"1325 83 OFFCURVE",
"1298 132 CURVE SMOOTH",
"1222 270 OFFCURVE",
"1030 322 OFFCURVE",
"971 336 CURVE",
"1015 181 LINE",
"1067 246 OFFCURVE",
"1155 382 OFFCURVE",
"1257 382 CURVE SMOOTH",
"1446 382 OFFCURVE",
"1455 -15 OFFCURVE",
"1740 -15 CURVE"
);
}
);
};
components = (
{
name = "beh_alefMaksura-ar.fina.001";
},
{
name = "dot-one";
transform = "{1, 0, 0, 1, 1353, -246}";
}
);
layerId = "5483B82D-F897-45AA-9987-2D1C58E320E8";
name = Regular;
width = 1983;
}
);
leftMetricsKey = "beh-ar.medi";
unicode = FC6E;
},
{
color = 9;
glyphname = "beh_alefMaksura-ar.fina.001";
lastChange = "2015-10-26 20:09:31 +0000";
layers = (
{
background = {
paths = (
{
closed = 1;
nodes = (
"1763 383 LINE",
"1519 383 OFFCURVE",
"1542 761 OFFCURVE",
"1288 761 CURVE SMOOTH",
"1034 761 OFFCURVE",
"698 422 OFFCURVE",
"698 249 CURVE SMOOTH",
"698 39 OFFCURVE",
"1069 -44 OFFCURVE",
"1179 -201 CURVE",
"1059 -15 LINE",
"669 -242 OFFCURVE",
"420 -228 OFFCURVE",
"420 33 CURVE SMOOTH",
"420 132 OFFCURVE",
"441 260 OFFCURVE",
"478 415 CURVE",
"182 510 LINE",
"94 285 OFFCURVE",
"50 83 OFFCURVE",
"50 -86 CURVE SMOOTH",
"50 -412 OFFCURVE",
"267 -563 OFFCURVE",
"549 -563 CURVE SMOOTH",
"807 -563 OFFCURVE",
"1067 -431 OFFCURVE",
"1230 -303 CURVE",
"1321 -109 OFFCURVE",
"1325 83 OFFCURVE",
"1298 132 CURVE SMOOTH",
"1222 270 OFFCURVE",
"1030 322 OFFCURVE",
"971 336 CURVE",
"1015 181 LINE",
"1067 246 OFFCURVE",
"1155 382 OFFCURVE",
"1257 382 CURVE SMOOTH",
"1446 382 OFFCURVE",
"1455 -15 OFFCURVE",
"1740 -15 CURVE"
);
}
);
};
layerId = "5483B82D-F897-45AA-9987-2D1C58E320E8";
name = Regular;
paths = (
{
closed = 1;
nodes = (
"2033 133 OFFCURVE",
"2033 267 OFFCURVE",
"1983 400 CURVE",
"1614 400 OFFCURVE",
"1652 761 OFFCURVE",
"1398 761 CURVE SMOOTH",
"1097 761 OFFCURVE",
"698 422 OFFCURVE",
"698 249 CURVE SMOOTH",
"698 39 OFFCURVE",
"1069 -44 OFFCURVE",
"1179 -201 CURVE",
"1059 -15 LINE",
"669 -242 OFFCURVE",
"420 -228 OFFCURVE",
"420 33 CURVE SMOOTH",
"420 132 OFFCURVE",
"441 260 OFFCURVE",
"478 415 CURVE",
"182 510 LINE",
"94 285 OFFCURVE",
"50 83 OFFCURVE",
"50 -86 CURVE SMOOTH",
"50 -412 OFFCURVE",
"267 -563 OFFCURVE",
"549 -563 CURVE SMOOTH",
"807 -563 OFFCURVE",
"1067 -431 OFFCURVE",
"1230 -303 CURVE",
"1321 -109 OFFCURVE",
"1325 83 OFFCURVE",
"1298 132 CURVE SMOOTH",
"1222 270 OFFCURVE",
"1030 322 OFFCURVE",
"971 336 CURVE",
"1015 181 LINE",
"1113 293 OFFCURVE",
"1219 382 OFFCURVE",
"1367 382 CURVE SMOOTH",
"1556 382 OFFCURVE",
"1553 0 OFFCURVE",
"1983 0 CURVE"
);
}
);
width = 1983;
}
);
leftMetricsKey = "beh-ar.medi";
},
{
color = 9;
glyphname = "peh_reh-ar.fina";
lastChange = "2015-10-26 20:09:31 +0000";
layers = (
{
background = {
paths = (
{
closed = 1;
nodes = (
"817 654 LINE",
"837 595 OFFCURVE",
"868 511 OFFCURVE",
"890 421 CURVE",
"825 407 OFFCURVE",
"729 400 OFFCURVE",
"681 400 CURVE SMOOTH",
"673 400 OFFCURVE",
"493 400 OFFCURVE",
"352 430 CURVE",
"333 419 LINE",
"235 123 OFFCURVE",
"105 -86 OFFCURVE",
"-70 -329 CURVE",
"-6 -402 OFFCURVE",
"155 -512 OFFCURVE",
"254 -549 CURVE",
"274 -525 OFFCURVE",
"422 -259 OFFCURVE",
"523 17 CURVE",
"597 5 OFFCURVE",
"662 0 OFFCURVE",
"681 0 CURVE SMOOTH",
"809 0 OFFCURVE",
"1026 31 OFFCURVE",
"1112 63 CURVE",
"1211 218 OFFCURVE",
"1227 528 OFFCURVE",
"1161 734 CURVE"
);
}
);
};
components = (
{
name = "dot-three-b";
transform = "{1, 0, 0, 1, 487, -321}";
}
);
layerId = "5483B82D-F897-45AA-9987-2D1C58E320E8";
name = Regular;
paths = (
{
closed = 1;
nodes = (
"817 654 LINE",
"837 595 OFFCURVE",
"868 511 OFFCURVE",
"890 421 CURVE",
"742 384 OFFCURVE",
"511 396 OFFCURVE",
"352 430 CURVE",
"333 419 LINE",
"235 123 OFFCURVE",
"105 -86 OFFCURVE",
"-70 -329 CURVE",
"-6 -402 OFFCURVE",
"155 -512 OFFCURVE",
"254 -549 CURVE",
"274 -525 OFFCURVE",
"422 -259 OFFCURVE",
"523 17 CURVE",
"701 -22 OFFCURVE",
"926 4 OFFCURVE",
"1112 63 CURVE",
"1211 218 OFFCURVE",
"1227 528 OFFCURVE",
"1161 734 CURVE"
);
}
);
width = 1251;
}
);
leftMetricsKey = "peh-ar.init";
},
{
color = 9;
glyphname = "peh_zain-ar.fina";
lastChange = "2015-10-26 20:09:31 +0000";
layers = (
{
components = (
{
name = "dot-one";
transform = "{1, 0, 0, 1, 106, 852}";
},
{
name = "dot-three-b";
transform = "{1, 0, 0, 1, 487, -321}";
}
);
layerId = "5483B82D-F897-45AA-9987-2D1C58E320E8";
name = Regular;
paths = (
{
closed = 1;
nodes = (
"817 654 LINE",
"837 595 OFFCURVE",
"868 511 OFFCURVE",
"890 421 CURVE",
"742 384 OFFCURVE",
"511 396 OFFCURVE",
"352 430 CURVE",
"333 419 LINE",
"235 123 OFFCURVE",
"105 -86 OFFCURVE",
"-70 -329 CURVE",
"-6 -402 OFFCURVE",
"155 -512 OFFCURVE",
"254 -549 CURVE",
"274 -525 OFFCURVE",
"422 -259 OFFCURVE",
"523 17 CURVE",
"701 -22 OFFCURVE",
"926 4 OFFCURVE",
"1112 63 CURVE",
"1211 218 OFFCURVE",
"1227 528 OFFCURVE",
"1161 734 CURVE"
);
}
);
width = 1251;
}
);
leftMetricsKey = "peh-ar.init";
},
{
color = 9;
glyphname = "peh_noon-ar.fina";
lastChange = "2015-11-03 12:11:04 +0000";
layers = (
{
components = (
{
name = "dot-three-b";
transform = "{1, 0, 0, 1, 1244, -321}";
},
{
name = "noon-ar.fina";
}
);
layerId = "5483B82D-F897-45AA-9987-2D1C58E320E8";
name = Regular;
paths = (
{
closed = 1;
nodes = (
"1662 3 OFFCURVE",
"1827 31 OFFCURVE",
"1939 63 CURVE",
"2038 218 OFFCURVE",
"2054 528 OFFCURVE",
"1988 734 CURVE",
"1644 654 LINE",
"1678 553 OFFCURVE",
"1743 381 OFFCURVE",
"1743 234 CURVE",
"1775 443 LINE",
"1728 415 OFFCURVE",
"1611 401 OFFCURVE",
"1378 400 CURVE",
"1328 266 OFFCURVE",
"1328 133 OFFCURVE",
"1378 0 CURVE"
);
}
);
width = 2093;
}
);
leftMetricsKey = "peh-ar.init";
rightMetricsKey = "noon-ar.fina";
},
{
color = 9;
glyphname = "peh_heh-ar.init";
lastChange = "2015-11-03 12:11:09 +0000";
layers = (
{
components = (
{
name = "dot-three-b";
transform = "{1, 0, 0, 1, 850, -321}";
},
{
name = "heh-ar.fina";
}
);
layerId = "5483B82D-F897-45AA-9987-2D1C58E320E8";
name = Regular;
paths = (
{
closed = 1;
nodes = (
"1268 3 OFFCURVE",
"1433 31 OFFCURVE",
"1545 63 CURVE",
"1644 218 OFFCURVE",
"1660 528 OFFCURVE",
"1594 734 CURVE",
"1250 654 LINE",
"1284 553 OFFCURVE",
"1349 381 OFFCURVE",
"1349 234 CURVE",
"1381 443 LINE",
"1334 415 OFFCURVE",
"1217 401 OFFCURVE",
"984 400 CURVE",
"934 266 OFFCURVE",
"934 133 OFFCURVE",
"984 0 CURVE"
);
}
);
width = 1699;
}
);
leftMetricsKey = "peh-ar.init";
rightMetricsKey = "heh-ar.fina";
},
{
color = 9;
glyphname = "teh_heh-ar.init";
lastChange = "2015-10-26 20:09:31 +0000";
layers = (
{
components = (
{
name = "dot-two";
transform = "{1, 0, 0, 1, 812, 1027}";
}
);
layerId = "5483B82D-F897-45AA-9987-2D1C58E320E8";
name = Regular;
paths = (
{
closed = 1;
nodes = (
"1085 3 OFFCURVE",
"1250 31 OFFCURVE",
"1362 63 CURVE",
"1461 218 OFFCURVE",
"1477 528 OFFCURVE",
"1411 734 CURVE",
"1067 654 LINE",
"1101 553 OFFCURVE",
"1166 381 OFFCURVE",
"1166 234 CURVE",
"1198 443 LINE",
"1151 415 OFFCURVE",
"1034 401 OFFCURVE",
"881 400 CURVE",
"831 266 OFFCURVE",
"831 133 OFFCURVE",
"881 0 CURVE"
);
},
{
closed = 1;
nodes = (
"533 419 LINE",
"447 147 OFFCURVE",
"333 -45 OFFCURVE",
"180 -269 CURVE",
"244 -342 OFFCURVE",
"405 -452 OFFCURVE",
"504 -489 CURVE",
"523 -463 OFFCURVE",
"683 -149 OFFCURVE",
"763 138 CURVE",
"556 62 LINE",
"669 14 OFFCURVE",
"848 0 OFFCURVE",
"881 0 CURVE",
"931 133 OFFCURVE",
"931 267 OFFCURVE",
"881 400 CURVE",
"873 400 OFFCURVE",
"693 400 OFFCURVE",
"552 430 CURVE"
);
},
{
closed = 1;
nodes = (
"-50 267 OFFCURVE",
"-50 133 OFFCURVE",
"0 0 CURVE",
"99 0 OFFCURVE",
"263 0 OFFCURVE",
"361 29 CURVE",
"281 303 LINE",
"291 226 OFFCURVE",
"276 -57 OFFCURVE",
"180 -269 CURVE",
"376 -104 LINE",
"503 114 LINE",
"387 114 LINE",
"367 351 OFFCURVE",
"330 408 OFFCURVE",
"215 408 CURVE SMOOTH",
"152 408 OFFCURVE",
"103 400 OFFCURVE",
"0 400 CURVE"
);
}
);
width = 1531;
}
);
leftMetricsKey = "teh-ar.init";
rightMetricsKey = "heh-ar.medi";
unicode = FCA5;
},
{
color = 9;
glyphname = "khah_alefMaksura-ar";
lastChange = "2015-10-26 20:09:31 +0000";
layers = (
{
components = (
{
name = "dot-one";
transform = "{1, 0, 0, 1, 1080, 1394}";
}
);
layerId = "5483B82D-F897-45AA-9987-2D1C58E320E8";
name = Regular;
paths = (
{
closed = 1;
nodes = (
"1654 898 OFFCURVE",
"1535 1048 OFFCURVE",
"1295 1068 CURVE",
"1239 945 OFFCURVE",
"1203 812 OFFCURVE",
"1187 669 CURVE",
"1352 656 OFFCURVE",
"1494 597 OFFCURVE",
"1602 523 CURVE",
"1403 483 OFFCURVE",
"1273 418 OFFCURVE",
"1078 418 CURVE SMOOTH",
"993 418 OFFCURVE",
"881 441 OFFCURVE",
"803 460 CURVE",
"698 175 LINE",
"817 123 OFFCURVE",
"926 43 OFFCURVE",
"1015 -40 CURVE",
"650 -241 OFFCURVE",
"420 -218 OFFCURVE",
"420 33 CURVE SMOOTH",
"420 132 OFFCURVE",
"441 260 OFFCURVE",
"478 415 CURVE",
"182 510 LINE",
"94 285 OFFCURVE",
"50 83 OFFCURVE",
"50 -86 CURVE SMOOTH",
"50 -412 OFFCURVE",
"267 -563 OFFCURVE",
"549 -563 CURVE SMOOTH",
"807 -563 OFFCURVE",
"1086 -431 OFFCURVE",
"1287 -260 CURVE",
"1303 -174 OFFCURVE",
"1308 -61 OFFCURVE",
"1304 45 CURVE",
"1561 105 OFFCURVE",
"1718 243 OFFCURVE",
"2007 212 CURVE",
"2070 356 OFFCURVE",
"2092 449 OFFCURVE",
"2095 550 CURVE",
"1963 593 OFFCURVE",
"1868 643 OFFCURVE",
"1750 784 CURVE SMOOTH"
);
}
);
width = 2145;
}
);
unicode = FD03;
},
{
color = 9;
glyphname = "seen_reh-ar";
lastChange = "2015-10-26 20:09:31 +0000";
layers = (
{
layerId = "5483B82D-F897-45AA-9987-2D1C58E320E8";
name = Regular;
paths = (
{
closed = 1;
nodes = (
"1624 654 LINE",
"1645 590 OFFCURVE",
"1680 497 OFFCURVE",
"1702 398 CURVE",
"1565 374 OFFCURVE",
"1485 441 OFFCURVE",
"1411 579 CURVE",
"1393 581 LINE",
"1262 453 OFFCURVE",
"1178 400 OFFCURVE",
"1093 400 CURVE SMOOTH",
"979 400 OFFCURVE",
"932 495 OFFCURVE",
"884 639 CURVE",
"713 570 OFFCURVE",
"484 536 OFFCURVE",
"295 539 CURVE",
"192 195 OFFCURVE",
"55 -48 OFFCURVE",
"-130 -329 CURVE",
"-66 -402 OFFCURVE",
"95 -512 OFFCURVE",
"194 -549 CURVE",
"214 -524 OFFCURVE",
"403 -176 OFFCURVE",
"502 170 CURVE",
"617 176 OFFCURVE",
"736 195 OFFCURVE",
"950 300 CURVE",
"771 349 LINE",
"859 81 OFFCURVE",
"957 -6 OFFCURVE",
"1082 -6 CURVE SMOOTH",
"1173 -6 OFFCURVE",
"1272 54 OFFCURVE",
"1360 149 CURVE",
"1379 149 LINE",
"1492 -23 OFFCURVE",
"1647 -54 OFFCURVE",
"1919 63 CURVE",
"2018 218 OFFCURVE",
"2034 528 OFFCURVE",
"1968 734 CURVE"
);
}
);
width = 2058;
}
);
leftMetricsKey = "seen-ar.init";
unicode = FD0E;
},
{
color = 9;
glyphname = "seen_reh-ar.fina";
lastChange = "2015-10-26 20:09:31 +0000";
layers = (
{
layerId = "5483B82D-F897-45AA-9987-2D1C58E320E8";
name = Regular;
paths = (
{
closed = 1;
nodes = (
"1941 400 OFFCURVE",
"1892 467 OFFCURVE",
"1832 579 CURVE",
"1814 581 LINE",
"1702 331 OFFCURVE",
"1556 341 OFFCURVE",
"1440 579 CURVE",
"1422 581 LINE",
"1155 322 OFFCURVE",
"991 305 OFFCURVE",
"884 639 CURVE",
"713 570 OFFCURVE",
"484 536 OFFCURVE",
"295 539 CURVE",
"192 195 OFFCURVE",
"55 -48 OFFCURVE",
"-130 -329 CURVE",
"-66 -402 OFFCURVE",
"95 -512 OFFCURVE",
"194 -549 CURVE",
"214 -524 OFFCURVE",
"403 -176 OFFCURVE",
"502 170 CURVE",
"597 175 OFFCURVE",
"696 189 OFFCURVE",
"850 254 CURVE",
"793 283 LINE",
"928 -76 OFFCURVE",
"1077 -87 OFFCURVE",
"1389 149 CURVE",
"1408 149 LINE",
"1517 -52 OFFCURVE",
"1660 -61 OFFCURVE",
"1781 149 CURVE",
"1800 149 LINE",
"1883 23 OFFCURVE",
"1992 0 OFFCURVE",
"2089 0 CURVE",
"2139 133 OFFCURVE",
"2132 267 OFFCURVE",
"2089 400 CURVE"
);
}
);
width = 2089;
}
);
leftMetricsKey = "seen-ar.medi";
unicode = FD2A;
},
{
color = 9;
glyphname = "seen_meem-ar";
lastChange = "2015-10-26 20:09:31 +0000";
layers = (
{
background = {
paths = (
{
closed = 1;
nodes = (
"78 223 OFFCURVE",
"174 369 OFFCURVE",
"259 394 CURVE",
"442 386 OFFCURVE",
"590 359 OFFCURVE",
"737 300 CURVE SMOOTH",
"832 262 OFFCURVE",
"845 166 OFFCURVE",
"1030 143 CURVE",
"1015 62 OFFCURVE",
"904 -103 OFFCURVE",
"841 -154 CURVE",
"741 -154 OFFCURVE",
"646 -33 OFFCURVE",
"608 -16 CURVE",
"493 14 OFFCURVE",
"385 31 OFFCURVE",
"276 39 CURVE",
"384 223 LINE",
"365 -48 OFFCURVE",
"409 -379 OFFCURVE",
"455 -561 CURVE",
"390 -597 OFFCURVE",
"232 -619 OFFCURVE",
"115 -620 CURVE",
"105 -610 LINE",
"59 -392 OFFCURVE",
"36 -107 OFFCURVE",
"59 132 CURVE"
);
},
{
closed = 1;
nodes = (
"2649 528 OFFCURVE",
"2633 218 OFFCURVE",
"2534 63 CURVE",
"2262 -54 OFFCURVE",
"2107 -23 OFFCURVE",
"1994 149 CURVE",
"1975 149 LINE",
"1864 49 OFFCURVE",
"1748 -5 OFFCURVE",
"1643 -6 CURVE SMOOTH",
"1214 0 OFFCURVE",
"1284 420 OFFCURVE",
"973 420 CURVE SMOOTH",
"889 420 OFFCURVE",
"855 383 OFFCURVE",
"850 337 CURVE SMOOTH",
"839 242 OFFCURVE",
"949 196 OFFCURVE",
"1030 143 CURVE",
"630 11 LINE",
"445 415 OFFCURVE",
"685 804 OFFCURVE",
"1004 804 CURVE SMOOTH",
"1330 804 OFFCURVE",
"1293 400 OFFCURVE",
"1643 389 CURVE",
"1742 390 OFFCURVE",
"1861 458 OFFCURVE",
"2008 581 CURVE",
"2026 579 LINE",
"2100 441 OFFCURVE",
"2180 374 OFFCURVE",
"2317 398 CURVE",
"2295 497 OFFCURVE",
"2260 590 OFFCURVE",
"2239 654 CURVE",
"2583 734 LINE"
);
}
);
};
layerId = "5483B82D-F897-45AA-9987-2D1C58E320E8";
name = Regular;
paths = (
{
closed = 1;
nodes = (
"78 223 OFFCURVE",
"174 369 OFFCURVE",
"259 394 CURVE",
"442 386 OFFCURVE",
"590 359 OFFCURVE",
"737 300 CURVE SMOOTH",
"832 262 OFFCURVE",
"845 166 OFFCURVE",
"1030 143 CURVE",
"1015 62 OFFCURVE",
"904 -103 OFFCURVE",
"841 -154 CURVE",
"741 -154 OFFCURVE",
"646 -33 OFFCURVE",
"608 -16 CURVE",
"493 14 OFFCURVE",
"385 31 OFFCURVE",
"276 39 CURVE",
"384 223 LINE",
"365 -48 OFFCURVE",
"409 -379 OFFCURVE",
"455 -561 CURVE",
"390 -597 OFFCURVE",
"232 -619 OFFCURVE",
"115 -620 CURVE",
"105 -610 LINE",
"59 -392 OFFCURVE",
"36 -107 OFFCURVE",
"59 132 CURVE"
);
},
{
closed = 1;
nodes = (
"2649 528 OFFCURVE",
"2633 218 OFFCURVE",
"2534 63 CURVE",
"2262 -54 OFFCURVE",
"2107 -23 OFFCURVE",
"1994 149 CURVE",
"1975 149 LINE",
"1856 42 OFFCURVE",
"1743 -10 OFFCURVE",
"1636 -10 CURVE SMOOTH",
"1243 -10 OFFCURVE",
"1268 420 OFFCURVE",
"973 420 CURVE SMOOTH",
"889 420 OFFCURVE",
"855 383 OFFCURVE",
"850 337 CURVE SMOOTH",
"839 242 OFFCURVE",
"949 196 OFFCURVE",
"1030 143 CURVE",
"630 11 LINE",
"445 415 OFFCURVE",
"685 804 OFFCURVE",
"1004 804 CURVE SMOOTH",
"1324 804 OFFCURVE",
"1322 387 OFFCURVE",
"1621 387 CURVE SMOOTH",
"1740 387 OFFCURVE",
"1866 462 OFFCURVE",
"2008 581 CURVE",
"2026 579 LINE",
"2100 441 OFFCURVE",
"2180 374 OFFCURVE",
"2317 398 CURVE",
"2295 497 OFFCURVE",
"2260 590 OFFCURVE",
"2239 654 CURVE",
"2583 734 LINE"
);
}
);
width = 2673;
}
);
leftMetricsKey = "seen-ar.init";
unicode = FC1F;
},
{
color = 9;
glyphname = "seen_meem-ar.medi";
lastChange = "2015-10-26 20:09:31 +0000";
layers = (
{
layerId = "5483B82D-F897-45AA-9987-2D1C58E320E8";
name = Regular;
paths = (
{
closed = 1;
nodes = (
"-50 133 OFFCURVE",
"-50 267 OFFCURVE",
"0 400 CURVE",
"288 400 OFFCURVE",
"482 314 OFFCURVE",
"771 143 CURVE",
"756 62 OFFCURVE",
"645 -103 OFFCURVE",
"582 -154 CURVE",
"482 -154 OFFCURVE",
"387 -17 OFFCURVE",
"349 0 CURVE",
"291 35 OFFCURVE",
"131 0 OFFCURVE",
"0 0 CURVE"
);
},
{
closed = 1;
nodes = (
"2182 467 OFFCURVE",
"2231 400 OFFCURVE",
"2379 400 CURVE",
"2429 267 OFFCURVE",
"2429 133 OFFCURVE",
"2379 0 CURVE",
"2282 0 OFFCURVE",
"2173 23 OFFCURVE",
"2090 149 CURVE",
"2071 149 LINE",
"1950 -61 OFFCURVE",
"1807 -52 OFFCURVE",
"1698 149 CURVE",
"1679 149 LINE",
"1541 48 OFFCURVE",
"1439 -7 OFFCURVE",
"1328 -7 CURVE SMOOTH",
"1020 -7 OFFCURVE",
"992 420 OFFCURVE",
"712 420 CURVE SMOOTH",
"631 420 OFFCURVE",
"597 384 OFFCURVE",
"591 337 CURVE SMOOTH",
"579 243 OFFCURVE",
"691 195 OFFCURVE",
"771 143 CURVE",
"371 11 LINE",
"185 415 OFFCURVE",
"431 804 OFFCURVE",
"739 804 CURVE SMOOTH",
"1060 804 OFFCURVE",
"1091 381 OFFCURVE",
"1368 381 CURVE SMOOTH",
"1485 381 OFFCURVE",
"1591 456 OFFCURVE",
"1712 581 CURVE",
"1730 579 LINE",
"1846 341 OFFCURVE",
"1992 331 OFFCURVE",
"2104 581 CURVE",
"2122 579 LINE"
);
}
);
width = 2379;
}
);
leftMetricsKey = "seen-ar.medi";
unicode = FCE7;
},
{
color = 9;
glyphname = "seen_meem-ar.init";
lastChange = "2015-10-26 20:09:31 +0000";
layers = (
{
layerId = "5483B82D-F897-45AA-9987-2D1C58E320E8";
name = Regular;
paths = (
{
closed = 1;
nodes = (
"2390 528 OFFCURVE",
"2374 218 OFFCURVE",
"2275 63 CURVE",
"2003 -54 OFFCURVE",
"1848 -23 OFFCURVE",
"1735 149 CURVE",
"1716 149 LINE",
"1597 42 OFFCURVE",
"1484 -10 OFFCURVE",
"1377 -10 CURVE SMOOTH",
"984 -10 OFFCURVE",
"1009 420 OFFCURVE",
"714 420 CURVE SMOOTH",
"630 420 OFFCURVE",
"596 383 OFFCURVE",
"591 337 CURVE SMOOTH",
"580 242 OFFCURVE",
"690 196 OFFCURVE",
"771 143 CURVE",
"371 11 LINE",
"186 415 OFFCURVE",
"426 804 OFFCURVE",
"745 804 CURVE SMOOTH",
"1065 804 OFFCURVE",
"1063 387 OFFCURVE",
"1362 387 CURVE SMOOTH",
"1481 387 OFFCURVE",
"1607 462 OFFCURVE",
"1749 581 CURVE",
"1767 579 LINE",
"1841 441 OFFCURVE",
"1921 374 OFFCURVE",
"2058 398 CURVE",
"2036 497 OFFCURVE",
"2001 590 OFFCURVE",
"1980 654 CURVE",
"2324 734 LINE"
);
},
{
closed = 1;
nodes = (
"-50 133 OFFCURVE",
"-50 267 OFFCURVE",
"0 400 CURVE",
"288 400 OFFCURVE",
"482 314 OFFCURVE",
"771 143 CURVE",
"756 62 OFFCURVE",
"645 -103 OFFCURVE",
"582 -154 CURVE",
"482 -154 OFFCURVE",
"387 -17 OFFCURVE",
"349 0 CURVE",
"291 35 OFFCURVE",
"131 0 OFFCURVE",
"0 0 CURVE"
);
}
);
width = 2414;
}
);
unicode = FCB0;
},
{
color = 9;
glyphname = "seen_meem-ar.fina";
lastChange = "2015-10-26 20:09:31 +0000";
layers = (
{
background = {
paths = (
{
closed = 1;
nodes = (
"78 223 OFFCURVE",
"174 369 OFFCURVE",
"259 394 CURVE",
"442 386 OFFCURVE",
"590 359 OFFCURVE",
"737 300 CURVE SMOOTH",
"832 262 OFFCURVE",
"845 166 OFFCURVE",
"1030 143 CURVE",
"1015 62 OFFCURVE",
"904 -103 OFFCURVE",
"841 -154 CURVE",
"741 -154 OFFCURVE",
"646 -33 OFFCURVE",
"608 -16 CURVE",
"493 14 OFFCURVE",
"385 31 OFFCURVE",
"276 39 CURVE",
"384 223 LINE",
"365 -48 OFFCURVE",
"409 -379 OFFCURVE",
"455 -561 CURVE",
"390 -597 OFFCURVE",
"232 -619 OFFCURVE",
"115 -620 CURVE",
"105 -610 LINE",
"59 -392 OFFCURVE",
"36 -107 OFFCURVE",
"59 132 CURVE"
);
},
{
closed = 1;
nodes = (
"2441 467 OFFCURVE",
"2490 400 OFFCURVE",
"2638 400 CURVE",
"2638 0 LINE",
"2541 0 OFFCURVE",
"2432 23 OFFCURVE",
"2349 149 CURVE",
"2330 149 LINE",
"2209 -61 OFFCURVE",
"2066 -52 OFFCURVE",
"1957 149 CURVE",
"1938 149 LINE",
"1805 51 OFFCURVE",
"1696 -7 OFFCURVE",
"1593 -7 CURVE SMOOTH",
"1477 -7 OFFCURVE",
"1369 67 OFFCURVE",
"1245 236 CURVE SMOOTH",
"1174 332 OFFCURVE",
"1106 420 OFFCURVE",
"973 420 CURVE SMOOTH",
"889 420 OFFCURVE",
"855 383 OFFCURVE",
"850 337 CURVE SMOOTH",
"839 242 OFFCURVE",
"949 196 OFFCURVE",
"1030 143 CURVE",
"630 11 LINE",
"445 415 OFFCURVE",
"685 804 OFFCURVE",
"1004 804 CURVE SMOOTH",
"1185 804 OFFCURVE",
"1263 671 OFFCURVE",
"1354 555 CURVE SMOOTH",
"1449 435 OFFCURVE",
"1540 381 OFFCURVE",
"1632 381 CURVE SMOOTH",
"1740 381 OFFCURVE",
"1851 456 OFFCURVE",
"1971 581 CURVE",
"1989 579 LINE",
"2105 341 OFFCURVE",
"2251 331 OFFCURVE",
"2363 581 CURVE",
"2381 579 LINE"
);
}
);
};
layerId = "5483B82D-F897-45AA-9987-2D1C58E320E8";
name = Regular;
paths = (
{
closed = 1;
nodes = (
"78 223 OFFCURVE",
"174 369 OFFCURVE",
"259 394 CURVE",
"442 386 OFFCURVE",
"590 359 OFFCURVE",
"737 300 CURVE SMOOTH",
"832 262 OFFCURVE",
"845 166 OFFCURVE",
"1030 143 CURVE",
"1015 62 OFFCURVE",
"904 -103 OFFCURVE",
"841 -154 CURVE",
"741 -154 OFFCURVE",
"646 -33 OFFCURVE",
"608 -16 CURVE",
"493 14 OFFCURVE",
"385 31 OFFCURVE",
"276 39 CURVE",
"384 223 LINE",
"365 -48 OFFCURVE",
"409 -379 OFFCURVE",
"455 -561 CURVE",
"390 -597 OFFCURVE",
"232 -619 OFFCURVE",
"115 -620 CURVE",
"105 -610 LINE",
"59 -392 OFFCURVE",
"36 -107 OFFCURVE",
"59 132 CURVE"
);
},
{
closed = 1;
nodes = (
"2441 467 OFFCURVE",
"2490 400 OFFCURVE",
"2638 400 CURVE",
"2688 267 OFFCURVE",
"2688 133 OFFCURVE",
"2638 0 CURVE",
"2541 0 OFFCURVE",
"2432 23 OFFCURVE",
"2349 149 CURVE",
"2330 149 LINE",
"2209 -61 OFFCURVE",
"2066 -52 OFFCURVE",
"1957 149 CURVE",
"1938 149 LINE",
"1800 48 OFFCURVE",
"1698 -7 OFFCURVE",
"1587 -7 CURVE SMOOTH",
"1279 -7 OFFCURVE",
"1251 420 OFFCURVE",
"971 420 CURVE SMOOTH",
"890 420 OFFCURVE",
"856 384 OFFCURVE",
"850 337 CURVE SMOOTH",
"838 243 OFFCURVE",
"950 195 OFFCURVE",
"1030 143 CURVE",
"630 11 LINE",
"444 415 OFFCURVE",
"690 804 OFFCURVE",
"998 804 CURVE SMOOTH",
"1319 804 OFFCURVE",
"1350 381 OFFCURVE",
"1627 381 CURVE SMOOTH",
"1744 381 OFFCURVE",
"1850 456 OFFCURVE",
"1971 581 CURVE",
"1989 579 LINE",
"2105 341 OFFCURVE",
"2251 331 OFFCURVE",
"2363 581 CURVE",
"2381 579 LINE"
);
}
);
width = 2638;
}
);
leftMetricsKey = "seen-ar.init";
},
{
color = 9;
glyphname = "seen_alefMaksura-ar";
lastChange = "2015-10-26 20:09:31 +0000";
layers = (
{
background = {
paths = (
{
closed = 1;
nodes = (
"2326 650 LINE",
"2347 586 OFFCURVE",
"2382 493 OFFCURVE",
"2404 394 CURVE",
"2267 370 OFFCURVE",
"2187 437 OFFCURVE",
"2113 575 CURVE",
"2095 577 LINE",
"1952 457 OFFCURVE",
"1852 383 OFFCURVE",
"1763 383 CURVE SMOOTH",
"1519 383 OFFCURVE",
"1542 761 OFFCURVE",
"1288 761 CURVE SMOOTH",
"1034 761 OFFCURVE",
"698 422 OFFCURVE",
"698 249 CURVE SMOOTH",
"698 88 OFFCURVE",
"926 43 OFFCURVE",
"1015 -40 CURVE",
"650 -241 OFFCURVE",
"420 -218 OFFCURVE",
"420 33 CURVE SMOOTH",
"420 132 OFFCURVE",
"441 260 OFFCURVE",
"478 415 CURVE",
"182 510 LINE",
"94 285 OFFCURVE",
"50 83 OFFCURVE",
"50 -86 CURVE SMOOTH",
"50 -412 OFFCURVE",
"267 -563 OFFCURVE",
"549 -563 CURVE SMOOTH",
"807 -563 OFFCURVE",
"1086 -431 OFFCURVE",
"1287 -260 CURVE",
"1321 -180 OFFCURVE",
"1325 83 OFFCURVE",
"1298 132 CURVE SMOOTH",
"1222 270 OFFCURVE",
"1030 322 OFFCURVE",
"971 336 CURVE",
"1015 181 LINE",
"1067 246 OFFCURVE",
"1155 382 OFFCURVE",
"1257 382 CURVE SMOOTH",
"1312 382 OFFCURVE",
"1372 342 OFFCURVE",
"1432 229 CURVE SMOOTH",
"1527 52 OFFCURVE",
"1631 -18 OFFCURVE",
"1740 -18 CURVE SMOOTH",
"1845 -18 OFFCURVE",
"1954 47 OFFCURVE",
"2062 145 CURVE",
"2081 145 LINE",
"2194 -27 OFFCURVE",
"2349 -58 OFFCURVE",
"2621 59 CURVE",
"2720 214 OFFCURVE",
"2736 524 OFFCURVE",
"2670 730 CURVE"
);
}
);
};
layerId = "5483B82D-F897-45AA-9987-2D1C58E320E8";
name = Regular;
paths = (
{
closed = 1;
nodes = (
"2326 650 LINE",
"2347 586 OFFCURVE",
"2382 493 OFFCURVE",
"2404 394 CURVE",
"2267 370 OFFCURVE",
"2187 437 OFFCURVE",
"2113 575 CURVE",
"2095 577 LINE",
"1952 457 OFFCURVE",
"1852 383 OFFCURVE",
"1763 383 CURVE SMOOTH",
"1519 383 OFFCURVE",
"1542 761 OFFCURVE",
"1288 761 CURVE SMOOTH",
"1034 761 OFFCURVE",
"698 422 OFFCURVE",
"698 249 CURVE SMOOTH",
"698 39 OFFCURVE",
"1069 -44 OFFCURVE",
"1179 -201 CURVE",
"1059 -15 LINE",
"669 -242 OFFCURVE",
"420 -228 OFFCURVE",
"420 33 CURVE SMOOTH",
"420 132 OFFCURVE",
"441 260 OFFCURVE",
"478 415 CURVE",
"182 510 LINE",
"94 285 OFFCURVE",
"50 83 OFFCURVE",
"50 -86 CURVE SMOOTH",
"50 -412 OFFCURVE",
"267 -563 OFFCURVE",
"549 -563 CURVE SMOOTH",
"807 -563 OFFCURVE",
"1067 -431 OFFCURVE",
"1230 -303 CURVE",
"1321 -109 OFFCURVE",
"1325 83 OFFCURVE",
"1298 132 CURVE SMOOTH",
"1222 270 OFFCURVE",
"1030 322 OFFCURVE",
"971 336 CURVE",
"1015 181 LINE",
"1067 246 OFFCURVE",
"1155 382 OFFCURVE",
"1257 382 CURVE SMOOTH",
"1446 382 OFFCURVE",
"1455 -15 OFFCURVE",
"1740 -15 CURVE SMOOTH",
"1845 -15 OFFCURVE",
"1954 49 OFFCURVE",
"2062 145 CURVE",
"2081 145 LINE",
"2194 -27 OFFCURVE",
"2349 -58 OFFCURVE",
"2621 59 CURVE",
"2720 214 OFFCURVE",
"2736 524 OFFCURVE",
"2670 730 CURVE"
);
}
);
width = 2760;
},
{
associatedMasterId = "5483B82D-F897-45AA-9987-2D1C58E320E8";
background = {
paths = (
{
closed = 1;
nodes = (
"2356 650 LINE",
"2379 579 OFFCURVE",
"2420 471 OFFCURVE",
"2441 361 CURVE",
"2468 402 LINE",
"2310 360 OFFCURVE",
"2223 426 OFFCURVE",
"2143 575 CURVE",
"2125 577 LINE",
"1838 336 OFFCURVE",
"1656 307 OFFCURVE",
"1525 575 CURVE",
"1507 577 LINE",
"1408 473 OFFCURVE",
"1229 396 OFFCURVE",
"1102 396 CURVE",
"1052 263 OFFCURVE",
"1052 129 OFFCURVE",
"1102 -4 CURVE",
"1184 -4 OFFCURVE",
"1323 8 OFFCURVE",
"1474 145 CURVE",
"1493 145 LINE",
"1634 -70 OFFCURVE",
"1872 -54 OFFCURVE",
"2092 145 CURVE",
"2111 145 LINE",
"2224 -27 OFFCURVE",
"2379 -58 OFFCURVE",
"2651 59 CURVE",
"2750 214 OFFCURVE",
"2766 524 OFFCURVE",
"2700 730 CURVE"
);
},
{
closed = 1;
nodes = (
"698 175 LINE",
"933 72 OFFCURVE",
"1130 -139 OFFCURVE",
"1204 -268 CURVE",
"1269 -39 LINE",
"1059 -15 LINE",
"669 -243 OFFCURVE",
"420 -228 OFFCURVE",
"420 33 CURVE SMOOTH",
"420 132 OFFCURVE",
"441 260 OFFCURVE",
"478 415 CURVE",
"182 510 LINE",
"94 285 OFFCURVE",
"50 83 OFFCURVE",
"50 -86 CURVE SMOOTH",
"50 -412 OFFCURVE",
"267 -563 OFFCURVE",
"549 -563 CURVE SMOOTH",
"807 -563 OFFCURVE",
"1086 -431 OFFCURVE",
"1287 -260 CURVE",
"1322 -74 OFFCURVE",
"1305 233 OFFCURVE",
"1255 342 CURVE",
"1025 181 LINE",
"1138 74 OFFCURVE",
"1272 197 OFFCURVE",
"1402 197 CURVE",
"1452 330 OFFCURVE",
"1499 267 OFFCURVE",
"1449 400 CURVE",
"1343 400 OFFCURVE",
"1004 410 OFFCURVE",
"803 460 CURVE"
);
}
);
};
layerId = "CC33C07B-DC12-42BB-A8C7-18198CD78399";
name = "Regular Oct 24 15, 23:01";
paths = (
{
closed = 1;
nodes = (
"2356 650 LINE",
"2377 586 OFFCURVE",
"2412 493 OFFCURVE",
"2434 394 CURVE",
"2297 370 OFFCURVE",
"2217 437 OFFCURVE",
"2143 575 CURVE",
"2125 577 LINE",
"1838 336 OFFCURVE",
"1656 307 OFFCURVE",
"1525 575 CURVE",
"1507 577 LINE",
"1315 375 OFFCURVE",
"1091 387 OFFCURVE",
"803 460 CURVE",
"698 175 LINE",
"817 123 OFFCURVE",
"926 43 OFFCURVE",
"1015 -40 CURVE",
"650 -241 OFFCURVE",
"420 -218 OFFCURVE",
"420 33 CURVE SMOOTH",
"420 132 OFFCURVE",
"441 260 OFFCURVE",
"478 415 CURVE",
"182 510 LINE",
"94 285 OFFCURVE",
"50 83 OFFCURVE",
"50 -86 CURVE SMOOTH",
"50 -412 OFFCURVE",
"267 -563 OFFCURVE",
"549 -563 CURVE SMOOTH",
"807 -563 OFFCURVE",
"1086 -431 OFFCURVE",
"1287 -260 CURVE",
"1305 -156 OFFCURVE",
"1308 26 OFFCURVE",
"1279 233 CURVE",
"1035 44 LINE",
"1184 -4 OFFCURVE",
"1367 48 OFFCURVE",
"1474 145 CURVE",
"1493 145 LINE",
"1634 -70 OFFCURVE",
"1872 -54 OFFCURVE",
"2092 145 CURVE",
"2111 145 LINE",
"2224 -27 OFFCURVE",
"2379 -58 OFFCURVE",
"2651 59 CURVE",
"2750 214 OFFCURVE",
"2766 524 OFFCURVE",
"2700 730 CURVE"
);
}
);
width = 2790;
},
{
associatedMasterId = "5483B82D-F897-45AA-9987-2D1C58E320E8";
background = {
paths = (
{
closed = 1;
nodes = (
"2216 650 LINE",
"2237 586 OFFCURVE",
"2272 493 OFFCURVE",
"2294 394 CURVE",
"2157 370 OFFCURVE",
"2077 437 OFFCURVE",
"2003 575 CURVE",
"1985 577 LINE",
"1698 336 OFFCURVE",
"1516 307 OFFCURVE",
"1385 575 CURVE",
"1367 577 LINE",
"1160 577 OFFCURVE",
"1034 550 OFFCURVE",
"803 460 CURVE",
"698 175 LINE",
"817 123 OFFCURVE",
"926 43 OFFCURVE",
"1015 -40 CURVE",
"650 -241 OFFCURVE",
"420 -218 OFFCURVE",
"420 33 CURVE SMOOTH",
"420 132 OFFCURVE",
"441 260 OFFCURVE",
"478 415 CURVE",
"182 510 LINE",
"94 285 OFFCURVE",
"50 83 OFFCURVE",
"50 -86 CURVE SMOOTH",
"50 -412 OFFCURVE",
"267 -563 OFFCURVE",
"549 -563 CURVE SMOOTH",
"807 -563 OFFCURVE",
"1086 -431 OFFCURVE",
"1287 -260 CURVE",
"1305 -156 OFFCURVE",
"1308 26 OFFCURVE",
"1279 233 CURVE",
"1035 142 LINE",
"1165 118 OFFCURVE",
"1272 118 OFFCURVE",
"1353 145 CURVE",
"1494 -70 OFFCURVE",
"1732 -54 OFFCURVE",
"1952 145 CURVE",
"1971 145 LINE",
"2084 -27 OFFCURVE",
"2239 -58 OFFCURVE",
"2511 59 CURVE",
"2610 214 OFFCURVE",
"2626 524 OFFCURVE",
"2560 730 CURVE"
);
}
);
};
layerId = "1CB0BA68-577F-4259-A83D-4A16BF7E5803";
name = "Regular Oct 25 15, 09:44";
paths = (
{
closed = 1;
nodes = (
"2326 650 LINE",
"2347 586 OFFCURVE",
"2382 493 OFFCURVE",
"2404 394 CURVE",
"2267 370 OFFCURVE",
"2187 437 OFFCURVE",
"2113 575 CURVE",
"2095 577 LINE",
"1808 336 OFFCURVE",
"1639 281 OFFCURVE",
"1495 635 CURVE",
"1186 553 OFFCURVE",
"993 512 OFFCURVE",
"803 460 CURVE",
"698 175 LINE",
"817 123 OFFCURVE",
"926 43 OFFCURVE",
"1015 -40 CURVE",
"650 -241 OFFCURVE",
"420 -218 OFFCURVE",
"420 33 CURVE SMOOTH",
"420 132 OFFCURVE",
"441 260 OFFCURVE",
"478 415 CURVE",
"182 510 LINE",
"94 285 OFFCURVE",
"50 83 OFFCURVE",
"50 -86 CURVE SMOOTH",
"50 -412 OFFCURVE",
"267 -563 OFFCURVE",
"549 -563 CURVE SMOOTH",
"807 -563 OFFCURVE",
"1086 -431 OFFCURVE",
"1287 -260 CURVE",
"1462 220 OFFCURVE",
"1066 314 OFFCURVE",
"971 336 CURVE",
"1000 93 LINE",
"1125 178 OFFCURVE",
"1279 233 OFFCURVE",
"1431 267 CURVE",
"1590 -118 OFFCURVE",
"1842 -54 OFFCURVE",
"2062 145 CURVE",
"2081 145 LINE",
"2194 -27 OFFCURVE",
"2349 -58 OFFCURVE",
"2621 59 CURVE",
"2720 214 OFFCURVE",
"2736 524 OFFCURVE",
"2670 730 CURVE"
);
}
);
width = 2760;
},
{
associatedMasterId = "5483B82D-F897-45AA-9987-2D1C58E320E8";
background = {
paths = (
{
closed = 1;
nodes = (
"698 175 LINE",
"933 72 OFFCURVE",
"1130 -139 OFFCURVE",
"1204 -268 CURVE",
"1269 -39 LINE",
"1059 -15 LINE",
"669 -243 OFFCURVE",
"420 -228 OFFCURVE",
"420 33 CURVE SMOOTH",
"420 132 OFFCURVE",
"441 260 OFFCURVE",
"478 415 CURVE",
"182 510 LINE",
"94 285 OFFCURVE",
"50 83 OFFCURVE",
"50 -86 CURVE SMOOTH",
"50 -412 OFFCURVE",
"267 -563 OFFCURVE",
"549 -563 CURVE SMOOTH",
"807 -563 OFFCURVE",
"1086 -431 OFFCURVE",
"1287 -260 CURVE",
"1322 -74 OFFCURVE",
"1305 233 OFFCURVE",
"1255 342 CURVE",
"1025 181 LINE",
"1138 74 OFFCURVE",
"1319 0 OFFCURVE",
"1449 0 CURVE",
"1499 133 OFFCURVE",
"1499 267 OFFCURVE",
"1449 400 CURVE",
"1343 400 OFFCURVE",
"1004 410 OFFCURVE",
"803 460 CURVE"
);
},
{
closed = 1;
nodes = (
"1360 57 LINE",
"1282 94 LINE",
"1282 -9 LINE"
);
}
);
};
layerId = "D9ECAAC3-E5EF-42A5-AEF1-CBCC74F097A3";
name = "Regular Oct 25 15, 09:49";
paths = (
{
closed = 1;
nodes = (
"2326 650 LINE",
"2347 586 OFFCURVE",
"2382 493 OFFCURVE",
"2404 394 CURVE",
"2267 370 OFFCURVE",
"2187 437 OFFCURVE",
"2113 575 CURVE",
"2095 577 LINE",
"1808 336 OFFCURVE",
"1694 281 OFFCURVE",
"1495 635 CURVE SMOOTH",
"1290 1000 OFFCURVE",
"698 479 OFFCURVE",
"698 249 CURVE SMOOTH",
"698 88 OFFCURVE",
"926 43 OFFCURVE",
"1015 -40 CURVE",
"650 -241 OFFCURVE",
"420 -218 OFFCURVE",
"420 33 CURVE SMOOTH",
"420 132 OFFCURVE",
"441 260 OFFCURVE",
"478 415 CURVE",
"182 510 LINE",
"94 285 OFFCURVE",
"50 83 OFFCURVE",
"50 -86 CURVE SMOOTH",
"50 -412 OFFCURVE",
"267 -563 OFFCURVE",
"549 -563 CURVE SMOOTH",
"807 -563 OFFCURVE",
"1107 -455 OFFCURVE",
"1287 -260 CURVE SMOOTH",
"1563 39 OFFCURVE",
"1066 314 OFFCURVE",
"971 336 CURVE",
"1015 181 LINE",
"1095 281 OFFCURVE",
"1260 551 OFFCURVE",
"1432 229 CURVE SMOOTH",
"1618 -118 OFFCURVE",
"1842 -54 OFFCURVE",
"2062 145 CURVE",
"2081 145 LINE",
"2194 -27 OFFCURVE",
"2349 -58 OFFCURVE",
"2621 59 CURVE",
"2720 214 OFFCURVE",
"2736 524 OFFCURVE",
"2670 730 CURVE"
);
}
);
width = 2760;
}
);
unicode = FCFB;
},
{
color = 9;
glyphname = "seen_alefMaksura-ar.fina";
lastChange = "2015-10-26 20:09:31 +0000";
layers = (
{
background = {
paths = (
{
closed = 1;
nodes = (
"1765 -3 LINE",
"1848 3 OFFCURVE",
"1941 56 OFFCURVE",
"2067 149 CURVE",
"2086 149 LINE",
"2195 -52 OFFCURVE",
"2338 -61 OFFCURVE",
"2459 149 CURVE",
"2478 149 LINE",
"2561 23 OFFCURVE",
"2670 0 OFFCURVE",
"2767 0 CURVE",
"2817 133 OFFCURVE",
"2810 267 OFFCURVE",
"2767 400 CURVE",
"2619 400 OFFCURVE",
"2570 467 OFFCURVE",
"2510 579 CURVE",
"2492 581 LINE",
"2380 331 OFFCURVE",
"2234 341 OFFCURVE",
"2118 579 CURVE",
"2100 581 LINE",
"1956 449 OFFCURVE",
"1854 381 OFFCURVE",
"1765 387 CURVE"
);
},
{
closed = 1;
nodes = (
"1763 383 LINE",
"1519 383 OFFCURVE",
"1542 761 OFFCURVE",
"1288 761 CURVE SMOOTH",
"1034 761 OFFCURVE",
"698 422 OFFCURVE",
"698 249 CURVE SMOOTH",
"698 39 OFFCURVE",
"1069 -44 OFFCURVE",
"1179 -201 CURVE",
"1059 -15 LINE",
"669 -242 OFFCURVE",
"420 -228 OFFCURVE",
"420 33 CURVE SMOOTH",
"420 132 OFFCURVE",
"441 260 OFFCURVE",
"478 415 CURVE",
"182 510 LINE",
"94 285 OFFCURVE",
"50 83 OFFCURVE",
"50 -86 CURVE SMOOTH",
"50 -412 OFFCURVE",
"267 -563 OFFCURVE",
"549 -563 CURVE SMOOTH",
"807 -563 OFFCURVE",
"1067 -431 OFFCURVE",
"1230 -303 CURVE",
"1321 -109 OFFCURVE",
"1325 83 OFFCURVE",
"1298 132 CURVE SMOOTH",
"1222 270 OFFCURVE",
"1030 322 OFFCURVE",
"971 336 CURVE",
"1015 181 LINE",
"1067 246 OFFCURVE",
"1155 382 OFFCURVE",
"1257 382 CURVE SMOOTH",
"1446 382 OFFCURVE",
"1455 -15 OFFCURVE",
"1740 -15 CURVE"
);
}
);
};
layerId = "5483B82D-F897-45AA-9987-2D1C58E320E8";
name = Regular;
paths = (
{
closed = 1;
nodes = (
"2619 400 OFFCURVE",
"2570 467 OFFCURVE",
"2510 579 CURVE",
"2492 581 LINE",
"2380 331 OFFCURVE",
"2234 341 OFFCURVE",
"2118 579 CURVE",
"2100 581 LINE",
"1956 455 OFFCURVE",
"1854 396 OFFCURVE",
"1765 396 CURVE SMOOTH",
"1519 396 OFFCURVE",
"1542 761 OFFCURVE",
"1288 761 CURVE SMOOTH",
"1034 761 OFFCURVE",
"698 422 OFFCURVE",
"698 249 CURVE SMOOTH",
"698 114 OFFCURVE",
"852 31 OFFCURVE",
"991 -53 CURVE",
"640 -239 OFFCURVE",
"420 -213 OFFCURVE",
"420 33 CURVE SMOOTH",
"420 132 OFFCURVE",
"441 260 OFFCURVE",
"478 415 CURVE",
"182 510 LINE",
"94 285 OFFCURVE",
"50 83 OFFCURVE",
"50 -86 CURVE SMOOTH",
"50 -412 OFFCURVE",
"267 -563 OFFCURVE",
"549 -563 CURVE SMOOTH",
"807 -563 OFFCURVE",
"1067 -431 OFFCURVE",
"1230 -303 CURVE",
"1321 -109 OFFCURVE",
"1325 83 OFFCURVE",
"1298 132 CURVE SMOOTH",
"1255 210 OFFCURVE",
"1176 260 OFFCURVE",
"1104 292 CURVE",
"1148 340 OFFCURVE",
"1200 382 OFFCURVE",
"1257 382 CURVE SMOOTH",
"1446 382 OFFCURVE",
"1455 -6 OFFCURVE",
"1740 -6 CURVE SMOOTH",
"1848 -6 OFFCURVE",
"1941 61 OFFCURVE",
"2067 149 CURVE",
"2086 149 LINE",
"2195 -52 OFFCURVE",
"2338 -61 OFFCURVE",
"2459 149 CURVE",
"2478 149 LINE",
"2561 23 OFFCURVE",
"2670 0 OFFCURVE",
"2767 0 CURVE",
"2817 133 OFFCURVE",
"2810 267 OFFCURVE",
"2767 400 CURVE"
);
}
);
width = 2767;
}
);
rightMetricsKey = "alefMaksura-ar.fina";
unicode = FD17;
},
{
color = 9;
glyphname = "sad_reh-ar";
lastChange = "2015-10-26 20:09:31 +0000";
layers = (
{
background = {
paths = (
{
closed = 1;
nodes = (
"1297 380 LINE",
"1008 380 OFFCURVE",
"932 495 OFFCURVE",
"884 639 CURVE",
"713 570 OFFCURVE",
"484 536 OFFCURVE",
"295 539 CURVE",
"192 195 OFFCURVE",
"55 -48 OFFCURVE",
"-130 -329 CURVE",
"-66 -402 OFFCURVE",
"95 -512 OFFCURVE",
"194 -549 CURVE",
"214 -524 OFFCURVE",
"403 -176 OFFCURVE",
"502 170 CURVE",
"617 176 OFFCURVE",
"736 195 OFFCURVE",
"950 300 CURVE",
"771 349 LINE",
"859 81 OFFCURVE",
"1005 -9 OFFCURVE",
"1297 -9 CURVE"
);
},
{
closed = 1;
nodes = (
"1373 -15 LINE",
"1599 -18 OFFCURVE",
"1848 29 OFFCURVE",
"1997 86 CURVE",
"2069 190 OFFCURVE",
"2100 348 OFFCURVE",
"2100 391 CURVE SMOOTH",
"2100 903 OFFCURVE",
"1569 1110 OFFCURVE",
"949 376 CURVE",
"1183 251 LINE",
"1476 554 OFFCURVE",
"1833 484 OFFCURVE",
"1857 349 CURVE",
"2059 455 LINE",
"1829 390 OFFCURVE",
"1582 368 OFFCURVE",
"1374 372 CURVE"
);
}
);
};
layerId = "5483B82D-F897-45AA-9987-2D1C58E320E8";
name = Regular;
paths = (
{
closed = 1;
nodes = (
"1297 380 LINE",
"1008 380 OFFCURVE",
"932 495 OFFCURVE",
"884 639 CURVE",
"713 570 OFFCURVE",
"484 536 OFFCURVE",
"295 539 CURVE",
"192 195 OFFCURVE",
"55 -48 OFFCURVE",
"-130 -329 CURVE",
"-66 -402 OFFCURVE",
"95 -512 OFFCURVE",
"194 -549 CURVE",
"214 -524 OFFCURVE",
"403 -176 OFFCURVE",
"502 170 CURVE",
"617 176 OFFCURVE",
"736 195 OFFCURVE",
"950 300 CURVE",
"771 349 LINE",
"859 81 OFFCURVE",
"1005 -9 OFFCURVE",
"1297 -9 CURVE"
);
},
{
closed = 1;
nodes = (
"1297 -9 LINE",
"1523 -9 OFFCURVE",
"1848 29 OFFCURVE",
"1997 86 CURVE",
"2069 190 OFFCURVE",
"2100 348 OFFCURVE",
"2100 391 CURVE SMOOTH",
"2100 903 OFFCURVE",
"1569 1110 OFFCURVE",
"949 376 CURVE",
"1183 251 LINE",
"1476 554 OFFCURVE",
"1833 484 OFFCURVE",
"1857 349 CURVE",
"2059 455 LINE",
"1829 390 OFFCURVE",
"1505 376 OFFCURVE",
"1297 380 CURVE"
);
}
);
width = 2148;
}
);
unicode = FD0F;
},
{
color = 9;
glyphname = "sad_reh-ar.fina";
lastChange = "2015-10-26 20:09:31 +0000";
layers = (
{
background = {
paths = (
{
closed = 1;
nodes = (
"1964 400 LINE",
"1845 289 LINE",
"1845 129 OFFCURVE",
"1999 0 OFFCURVE",
"2176 0 CURVE",
"2226 133 OFFCURVE",
"2226 267 OFFCURVE",
"2176 400 CURVE"
);
},
{
closed = 1;
nodes = (
"1547 564 OFFCURVE",
"1732 530 OFFCURVE",
"1851 412 CURVE",
"1678 394 OFFCURVE",
"1509 380 OFFCURVE",
"1359 380 CURVE SMOOTH",
"1146 380 OFFCURVE",
"1003 394 OFFCURVE",
"914 579 CURVE",
"896 581 LINE",
"797 477 OFFCURVE",
"676 400 OFFCURVE",
"561 400 CURVE",
"511 267 OFFCURVE",
"511 133 OFFCURVE",
"561 0 CURVE",
"613 0 OFFCURVE",
"751 22 OFFCURVE",
"863 149 CURVE",
"882 149 LINE",
"965 23 OFFCURVE",
"1112 -9 OFFCURVE",
"1297 -9 CURVE SMOOTH",
"1593 -9 OFFCURVE",
"1909 22 OFFCURVE",
"2076 188 CURVE",
"2209 844 OFFCURVE",
"1710 1123 OFFCURVE",
"1079 603 CURVE",
"1217 319 LINE"
);
}
);
};
components = (
{
name = "sad_reh-ar";
}
);
layerId = "5483B82D-F897-45AA-9987-2D1C58E320E8";
name = Regular;
paths = (
{
closed = 1;
nodes = (
"1964 400 LINE",
"1854 184 LINE",
"2102 0 OFFCURVE",
"2102 0 OFFCURVE",
"2176 0 CURVE",
"2226 133 OFFCURVE",
"2226 267 OFFCURVE",
"2176 400 CURVE"
);
}
);
width = 2176;
}
);
rightMetricsKey = "reh-ar.fina";
unicode = FD2B;
},
{
color = 9;
glyphname = "sad_meem-ar";
lastChange = "2015-10-26 20:09:31 +0000";
layers = (
{
background = {
paths = (
{
closed = 1;
nodes = (
"78 223 OFFCURVE",
"174 369 OFFCURVE",
"259 394 CURVE",
"442 386 OFFCURVE",
"590 359 OFFCURVE",
"737 300 CURVE SMOOTH",
"832 262 OFFCURVE",
"845 166 OFFCURVE",
"1030 143 CURVE",
"1015 62 OFFCURVE",
"904 -103 OFFCURVE",
"841 -154 CURVE",
"741 -154 OFFCURVE",
"646 -33 OFFCURVE",
"608 -16 CURVE",
"493 14 OFFCURVE",
"385 31 OFFCURVE",
"276 39 CURVE",
"384 223 LINE",
"365 -48 OFFCURVE",
"409 -379 OFFCURVE",
"455 -561 CURVE",
"390 -597 OFFCURVE",
"232 -619 OFFCURVE",
"115 -620 CURVE",
"105 -610 LINE",
"59 -392 OFFCURVE",
"36 -107 OFFCURVE",
"59 132 CURVE"
);
},
{
closed = 1;
nodes = (
"1330 804 OFFCURVE",
"1236 380 OFFCURVE",
"1696 380 CURVE",
"1563 267 OFFCURVE",
"1726 124 OFFCURVE",
"1693 -9 CURVE",
"1159 -9 OFFCURVE",
"1259 420 OFFCURVE",
"973 420 CURVE SMOOTH",
"889 420 OFFCURVE",
"855 383 OFFCURVE",
"850 337 CURVE SMOOTH",
"839 242 OFFCURVE",
"949 196 OFFCURVE",
"1030 143 CURVE",
"630 11 LINE",
"445 415 OFFCURVE",
"685 804 OFFCURVE",
"1004 804 CURVE SMOOTH"
);
},
{
closed = 1;
nodes = (
"1673 -9 LINE",
"1899 -9 OFFCURVE",
"2224 29 OFFCURVE",
"2373 86 CURVE",
"2445 190 OFFCURVE",
"2476 348 OFFCURVE",
"2476 391 CURVE SMOOTH",
"2476 903 OFFCURVE",
"1945 1110 OFFCURVE",
"1325 376 CURVE",
"1559 251 LINE",
"1852 554 OFFCURVE",
"2209 484 OFFCURVE",
"2233 349 CURVE",
"2435 455 LINE",
"2205 390 OFFCURVE",
"1881 376 OFFCURVE",
"1673 380 CURVE"
);
}
);
};
layerId = "5483B82D-F897-45AA-9987-2D1C58E320E8";
name = Regular;
paths = (
{
closed = 1;
nodes = (
"78 223 OFFCURVE",
"174 369 OFFCURVE",
"259 394 CURVE",
"442 386 OFFCURVE",
"590 359 OFFCURVE",
"737 300 CURVE SMOOTH",
"832 262 OFFCURVE",
"845 166 OFFCURVE",
"1030 143 CURVE",
"1015 62 OFFCURVE",
"904 -103 OFFCURVE",
"841 -154 CURVE",
"741 -154 OFFCURVE",
"646 -33 OFFCURVE",
"608 -16 CURVE",
"493 14 OFFCURVE",
"385 31 OFFCURVE",
"276 39 CURVE",
"384 223 LINE",
"365 -48 OFFCURVE",
"409 -379 OFFCURVE",
"455 -561 CURVE",
"390 -597 OFFCURVE",
"232 -619 OFFCURVE",
"115 -620 CURVE",
"105 -610 LINE",
"59 -392 OFFCURVE",
"36 -107 OFFCURVE",
"59 132 CURVE"
);
},
{
closed = 1;
nodes = (
"1330 804 OFFCURVE",
"1236 380 OFFCURVE",
"1696 380 CURVE",
"1841 236 OFFCURVE",
"1726 124 OFFCURVE",
"1693 -9 CURVE",
"1159 -9 OFFCURVE",
"1259 420 OFFCURVE",
"973 420 CURVE SMOOTH",
"889 420 OFFCURVE",
"855 383 OFFCURVE",
"850 337 CURVE SMOOTH",
"839 242 OFFCURVE",
"949 196 OFFCURVE",
"1030 143 CURVE",
"630 11 LINE",
"445 415 OFFCURVE",
"685 804 OFFCURVE",
"1004 804 CURVE SMOOTH"
);
},
{
closed = 1;
nodes = (
"1881 376 OFFCURVE",
"2205 390 OFFCURVE",
"2435 455 CURVE",
"2233 349 LINE",
"2209 484 OFFCURVE",
"1852 554 OFFCURVE",
"1559 251 CURVE",
"1325 376 LINE",
"1945 1110 OFFCURVE",
"2476 903 OFFCURVE",
"2476 391 CURVE SMOOTH",
"2476 348 OFFCURVE",
"2445 190 OFFCURVE",
"2373 86 CURVE",
"2224 29 OFFCURVE",
"1899 -9 OFFCURVE",
"1693 -9 CURVE",
"1696 380 LINE"
);
}
);
width = 2527;
}
);
leftMetricsKey = "sad-ar.init";
unicode = FC21;
},
